<?xml version="1.0" encoding="UTF-8"?>
<svg width="1920px" height="1080px" viewBox="0 0 1920 1080" version="1.1" xmlns="http://www.w3.org/2000/svg" xmlns:xlink="http://www.w3.org/1999/xlink">
    <!-- Generator: Sketch 48.2 (47327) - http://www.bohemiancoding.com/sketch -->
    <title>Login_Pattren</title>
    <desc>Created with Sketch.</desc>
    <defs>
        <rect id="path-1" x="0.0429401233" y="0" width="1920" height="1080"></rect>
    </defs>
    <g id="Login-(delivery)" stroke="none" stroke-width="1" fill="none" fill-rule="evenodd">
        <g id="Login_Pattren">
            <mask id="mask-2" fill="white">
                <use xlink:href="#path-1"></use>
            </mask>
            <g id="Mask"></g>
            <path d="M1936.26112,1002.3272 L1936.26112,1352.47705 L960.039443,1746.11514 L960.039443,1395.9653 L1936.26112,1002.3272 Z M2261.66834,165.565768 L2261.66834,517.968887 L960.039443,1048.81395 L960.039443,696.446675 L2261.66834,165.565768 Z M2958.89943,-810.655905 L2958.96954,-810.655905 L2958.96954,-465.631052 L960.039443,351.512753 L960.039443,6.45280094 L2958.89943,-810.655905 Z M955.493942,1014.06351 L955.493942,1358.6949 C955.493942,1358.6949 785.518579,1503.22906 504.044973,1555.81243 C205.398959,1611.62091 -7.83968122,1746.12917 -7.83968122,1746.12917 L-7.83968122,1401.49777 C-7.83968122,1401.49777 190.534858,1296.15575 463.124978,1244.72922 C790.449963,1182.96129 955.493942,1014.06351 955.493942,1014.06351 Z M955.493942,328.148515 L955.493942,672.779914 C955.493942,672.779914 728.965048,877.188996 353.935043,929.772365 C-43.9681895,985.545792 -328.134821,1189.07848 -328.134821,1189.07848 L-328.134821,844.447085 C-328.134821,844.447085 -63.833623,670.080634 299.410024,618.6541 C735.610175,556.921225 955.493942,328.148515 955.493942,328.148515 Z M955.493942,-359.575344 L955.493942,-14.9439447 C955.493942,-14.9439447 603.547012,323.763062 20.8392896,376.34643 C-597.402377,432.119857 -1038.88366,802.41194 -1038.88366,802.41194 L-1038.88366,457.815597 C-1038.88366,457.815597 -628.179809,116.6547 -63.8685973,65.228165 C613.794498,3.49528997 955.493942,-359.575344 955.493942,-359.575344 Z" id="Combined-Shape" fill="#F1F1F1" mask="url(#mask-2)"></path>
        </g>
    </g>
</svg>