<svg width="278" height="111" xmlns="http://www.w3.org/2000/svg" xmlns:xlink="http://www.w3.org/1999/xlink">
  <defs>
    <path id="a" d="M.382688.5200895h11.7983874V9.322756H.3826879z"/>
    <path id="c" d="M.6640654.2358504H43.800585v30.2539191H.6640654z"/>
    <path id="e" d="M.16768.5764079h6.1585318v26.0542627H.16768z"/>
  </defs>
  <g fill="none" fill-rule="evenodd">
    <path d="M11.5532562 80.674316c-.6133082 0-1.0707366.198019-1.3716048.5940574-.3001874.3973993-.4506215.9730839-.4506215 1.7263733 0 .8186153.150434 1.4065485.4506215 1.7651605.3008682.3572511.7582966.5368973 1.3716048.5368973.6139888 0 1.0680138-.1823681 1.3627556-.5477849.2940612-.3640559.440411-.9485867.440411-1.754273 0-1.546727-.6003748-2.3204307-1.8031666-2.3204307m0 6.5203424c-.6262414 0-1.1857745-.0891426-1.6785992-.2681084-.492144-.1782853-.9046465-.4668081-1.2368267-.8628464-.1027853.1660367-.2239494.2912447-.3648537.3735826-.1409043.0836988-.2756823.1728414-.4029727.2681084-.127971.0959474-.2368826.2211554-.3260539.3749435-.0891713.1531076-.1340973.3763045-.1340973.6709515v3.1832772H5.242513v-3.5854398c0-.4096479.053775-.7485261.1626866-1.017315.1082308-.2681084.2491351-.4913052.4220322-.6709515.1722164-.1796463.357366-.3293515.5561296-.4504766.1980828-.1224861.3839132-.2429307.5568102-.3640558.1722164-.1224861.3253733-.2565403.4594706-.4028432.134778-.1476637.2144196-.342961.240286-.5858917-.0129331-.1279299-.022463-.2579013-.0285892-.3919555-.006807-.1347347-.0102104-.2796765-.0102104-.4321037 0-.7805085.0993817-1.4446552.2981453-1.9951621.1980829-.5484655.4724038-.9900959.825005-1.3221692.3512397-.3334344.7705491-.5756846 1.2558862-.7294727.4860177-.1531076 1.0108352-.2300017 1.573091-.2300017.5629366 0 1.0877541.076894 1.5737718.2300017.4853371.153788.9046466.3960383 1.2558863.7294727.3519204.3320733.626922.7737037.8250049 1.3221692.1980829.5505069.2981454 1.2146536.2981454 1.9951621 0 .7546504-.096659 1.3942999-.2879349 1.9175877-.1919566.5253292-.4642355.95335-.8154752 1.2854234-.3519204.3320734-.7705492.5756846-1.256567.7281117-.4866984.1544686-1.0169615.2300016-1.5928312.2300016M17.7307189 74.2111337c0-.1272495.0639855-.1912144.1919566-.1912144h1.7841072c.127971 0 .1919566.063965.1919566.1912144v9.9349822c0 .3824287.0735153.6484957.2205458.7961595.1470306.1456223.379829.2204749.6997567.2204749h.6718481c.2552614 0 .4478987.0728112.5751891.220475.127971.1463028.1919566.3987602.1919566.7573723 0 .3960383-.0605821.6484957-.1817462.7580527-.1218448.1075156-.3165242.1619538-.5853995.1619538H19.975658c-.8066261 0-1.3811345-.1939363-1.7269286-.5852113-.3451135-.3892335-.5180105-.998942-.5180105-1.8311669V74.2111337z" fill="#404042"/>
    <path d="M21.4905495 87.060468c-.2559421 0-.431562-.0639649-.5275403-.1912144-.0959783-.1279299-.1436271-.3640558-.1436271-.7097388 0-.3844702.0449261-.6457738.1340974-.7866328.089852-.1401785.2681947-.2102678.53707-.2102678h2.3021178c.2559421 0 .447218.0700893.5758697.2102678.1272904.140859.1919566.3837897.1919566.7294727 0 .3960383-.0612627.6553005-.1831075.7757452-.1218448.122486-.3165242.1823681-.5847188.1823681h-2.3021178z" fill="#404042"/>
    <path d="M23.7925311 87.060468c-.2559421 0-.431562-.0639649-.5275403-.1912144-.0959783-.1279299-.1436271-.3640558-.1436271-.7097388 0-.3844702.0449261-.6457738.1340974-.7866328.089852-.1401785.2681947-.2102678.53707-.2102678h2.3021178c.2559421 0 .447218.0700893.5758697.2102678.1272904.140859.1919566.3837897.1919566.7294727 0 .3960383-.0612627.6553005-.1831075.7757452-.1218448.122486-.3165242.1823681-.5847188.1823681h-2.3021178z" fill="#404042"/>
    <path d="M26.0945127 87.060468c-.2559421 0-.431562-.0639649-.5275403-.1912144-.0959783-.1279299-.1436271-.3640558-.1436271-.7097388 0-.3844702.044926-.6457738.1340974-.7866328.089852-.1401785.2681946-.2102678.53707-.2102678h2.3021178c.2559421 0 .447218.0700893.5758697.2102678.1272904.140859.1919566.3837897.1919566.7294727 0 .3960383-.0612627.6553005-.1831075.7757452-.1218448.122486-.3165242.1823681-.5847188.1823681h-2.3021178z" fill="#404042"/>
    <path d="M28.3965624 87.060468c-.2559421 0-.431562-.0639649-.5275403-.1912144-.0959783-.1279299-.1436271-.3640558-.1436271-.7097388 0-.3844702.044926-.6457738.1340973-.7866328.0898521-.1401785.2681947-.2102678.5370701-.2102678h2.3021177c.2559421 0 .447218.0700893.5758698.2102678.1272904.140859.1919566.3837897.1919566.7294727 0 .3960383-.0612627.6553005-.1831075.7757452-.1218448.122486-.3165242.1823681-.5847189.1823681h-2.3021177z" fill="#404042"/>
    <path d="M36.358813 84.5485507c.2042091-.1272495.4118218-.281718.6235186-.4600033.2110161-.1789658.3961657-.3749435.5561295-.5858918.1599639-.2102677.2906577-.4375475.393443-.6804782.1021046-.2422503.1531568-.4919858.1531568-.748526 0-.5232878-.1885531-.8873437-.5656593-1.0921676-.3777869-.204824-.8604012-.3068957-1.4485235-.3068957-.5118842 0-.9563795.0517164-1.3334857.1524271-.3777869.1041132-.6357711.1925754-.7766754.268789.5881223.3722215 1.0897961.8546806 1.505702 1.448738.415906.5940576.7126899 1.2622872.892394 2.0040085m-.2879349-5.7922307c1.4703058 0 2.5444459.2755937 3.223101.82542.6779743.549146 1.0169615 1.2718139 1.0169615 2.1666428 0 .3837897-.0612627.7451236-.1824268 1.0833213-.1218448.3388782-.2784052.6525786-.4696811.93906-.1926373.2885227-.4097796.5477849-.6527885.7777866-.2430089.2300016-.4792108.421216-.7092864.5756846.1014238.0251777.2137389.0381067.3355836.0381067h2.7908583c.2940612 0 .4921441.0762136.5949293.2300017.1021046.1531076.1531569.4096479.1531569.766899 0 .3579315-.0605821.5981403-.1824268.7192654-.1211641.1224861-.3103979.1816877-.5656594.1816877h-2.8582473c-.4608319 0-.8985202-.0408287-1.3137455-.1245275-.4165866-.0823378-.8093489-.2395283-1.1803288-.46953-.4220322.2300017-.8699309.3871922-1.3430155.46953-.4730845.0836988-.8951167.1245275-1.2660966.1245275h-2.762269c-.2430089 0-.4281585-.0632844-.5568103-.1912143-.1272904-.1272495-.1919566-.3640559-.1919566-.7097388 0-.3320734.0415225-.5818089.1252483-.7478456.083045-.1667172.2906577-.2490551.6235186-.2490551h2.2442584c.2042092 0 .4349655-.0102071.6909076-.0292605.2552615-.0183729.5561296-.0660064.901243-.1435809-.1021045-.422577-.2396053-.7866329-.4118217-1.0935285-.1728971-.3068957-.3682572-.5784065-.5860803-.8145325-.2171424-.2368064-.4506215-.4477547-.6997566-.6328448-.2491352-.1857705-.5016738-.3681387-.7576159-.546424-.1409044-.1020717-.2205459-.1952972-.2402861-.278996-.0190596-.082338-.0285893-.1755634-.0285893-.2776352v-1.2078488c0-.140859.1218448-.2939666.364173-.4600033.2430088-.1660367.5636172-.3164224.9597829-.4504766.3961658-.1347347.8508715-.247694 1.362075-.3361563.5118843-.0891426 1.0360211-.1347346 1.5730911-.1347346" fill="#404042"/>
    <path d="M41.4228594 87.060468c-.2559421 0-.447218-.0598821-.5758698-.1823681-.1272904-.1204447-.1912759-.3667778-.1912759-.7376384 0-.3586121.060582-.6110695.1824268-.7573723.1211641-.1476638.3158435-.220475.5847189-.220475h.9400427c.3199277 0 .5527261-.0741721.7004374-.2204749.1470306-.1476638.2198652-.4137308.2198652-.7961595v-9.9349822c0-.1272495.0639855-.1912144.1926373-.1912144h1.7841072c.1272903 0 .1919566.063965.1919566.1912144v10.4330922c0 .8322249-.1728971 1.4419334-.5186913 1.8318474-.3451134.3905945-.9203025.5845308-1.7262479.5845308h-1.7841072zM50.1130475 86.8690495c0 .1272494-.0639855.1912144-.1912759.1912144h-1.7841072c-.1286518 0-.1926373-.063965-.1926373-.1912144v-12.658256c0-.1272495.0639855-.1912145.1926373-.1912145h1.7841072c.1272904 0 .1912759.063965.1912759.1912144v12.6582561zM56.7318742 86.6391159c0-.6913659.1082309-1.3806903.326054-2.0720562.2171424-.6900049.485337-1.2840624.8059454-1.7835335.0503716-.0891426.1470306-.1020717.2879349-.0387872l1.5533509.6144718c.0639855.0265387.0993817.0612431.105508.1061546.0061263.0435506-.0027228.0932255-.0285893.1435809-.2042091.3572511-.3995692.7757452-.5853995 1.2561629-.1851496.4797371-.2777244 1.0071077-.2777244 1.5814314 0 .499471.0796415.9179651.2396054 1.2568433.1599638.3381976.3648536.6103889.6139888.8152129.2491351.2048239.5275403.3477244.8345347.4314232.3069944.0830183.6071818.123847.9019237.123847.7412792 0 1.3355278-.1939363 1.7841072-.5845308.447218-.389914.6711674-1.0193564.6711674-1.8890076V74.2108615c0-.1272495.0639855-.1912144.1919566-.1912144h1.7841072c.127971 0 .1919566.063965.1919566.1912144v9.7621407c0 .3837897.1436271.6777563.431562.8825803.2879349.2048239.6745708.3068956 1.1605886.3068956h.3069944c.2559421 0 .4478987.0707698.5751891.2102678.127971.140859.1926373.376985.1926373.7097388 0 .3708606-.0612628.6274009-.1824269.7682599-.1218447.1394981-.3165241.2095873-.5853995.2095873-.409099 0-.7705492-.0347044-1.0836698-.1047936-.3138014-.0707698-.5853996-.2395284-.8154752-.5089977v.2109482c0 .7301532-.1116344 1.3677613-.3362644 1.9182682-.2239494.5498264-.5431963 1.0071077-.9591023 1.3711636-.4152252.3640559-.9114535.6355667-1.4859618.8152129-.5758698.1789658-1.2164058.2681084-1.9188853.2681084-.6779743 0-1.3014929-.0891426-1.8705557-.2681084-.5697435-.1796462-1.0646104-.451157-1.4866426-.8152129-.4220322-.3640559-.7514896-.8213372-.9883722-1.3711636-.236202-.5505069-.3546433-1.1949198-.3546433-1.9366411" fill="#404042"/>
    <path d="M68.0318552 87.060468c-.2559421 0-.431562-.0639649-.5275403-.1912144-.0959783-.1279299-.1436271-.3640558-.1436271-.7097388 0-.3844702.044926-.6457738.1340974-.7866328.089852-.1401785.2681946-.2102678.53707-.2102678h2.3021178c.2559421 0 .447218.0700893.5758697.2102678.1272904.140859.1919566.3837897.1919566.7294727 0 .3960383-.0612627.6553005-.1831075.7757452-.1218448.122486-.3165242.1823681-.5847188.1823681h-2.3021178z" fill="#404042"/>
    <path d="M70.3338368 87.060468c-.2559421 0-.431562-.0639649-.5275403-.1912144-.0959783-.1279299-.1436271-.3640558-.1436271-.7097388 0-.3844702.044926-.6457738.1340974-.7866328.089852-.1401785.2681946-.2102678.53707-.2102678h2.3021177c.2559422 0 .4472181.0700893.5758698.2102678.1272904.140859.1919566.3837897.1919566.7294727 0 .3960383-.0612627.6553005-.1831075.7757452-.1218448.122486-.3165242.1823681-.5847189.1823681h-2.3021177z" fill="#404042"/>
    <path d="M72.6358865 87.060468c-.2559421 0-.431562-.0639649-.5275403-.1912144-.0959783-.1279299-.1436271-.3640558-.1436271-.7097388 0-.3844702.044926-.6457738.1340973-.7866328.0898521-.1401785.2681947-.2102678.5370701-.2102678h2.3021177c.2559421 0 .447218.0700893.5758698.2102678.1272904.140859.1919566.3837897.1919566.7294727 0 .3960383-.0612628.6553005-.1831075.7757452-.1218448.122486-.3165242.1823681-.5847189.1823681h-2.3021177z" fill="#404042"/>
    <path d="M74.9378681 87.060468c-.2559422 0-.431562-.0639649-.5275403-.1912144-.0959783-.1279299-.1436271-.3640558-.1436271-.7097388 0-.3844702.044926-.6457738.1340973-.7866328.0898521-.1401785.2681947-.2102678.5370701-.2102678h2.3021177c.2559421 0 .447218.0700893.5758698.2102678.1272904.140859.1919566.3837897.1919566.7294727 0 .3960383-.0612628.6553005-.1831075.7757452-.1218448.122486-.3165242.1823681-.5847189.1823681h-2.3021177z" fill="#404042"/>
    <path d="M82.9187698 77.1842111c-.1279711 0-.1919566-.063965-.1919566-.1925753v-1.6494793c0-.1279299.0639855-.1912144.1919566-.1912144h1.6112101c.1279711 0 .1912759.0632845.1912759.1912144v1.6494793c0 .1286103-.0633048.1925753-.1912759.1925753h-1.6112101zm-.5186912 3.2785441c-.4982703 0-.9298323.1571905-1.294686.470891-.364173.3137004-.5465998.7757451-.5465998 1.390217 0 .6525786.1790233 1.1785883.53707 1.5827924.3580467.4028431.7930122.7124607 1.3042158.9288528.4996317-.2163921.9277902-.5260097 1.2858369-.9288528.357366-.4042041.53707-.9302138.53707-1.5827924 0-.6144719-.179704-1.0765166-.53707-1.390217-.3580467-.3137005-.7862052-.470891-1.2858369-.470891zm-1.9753831-3.2785441c-.1286518 0-.1919566-.063965-.1919566-.1925753v-1.6494793c0-.1279299.0633048-.1912144.1919566-.1912144h1.6112101c.1279711 0 .1919566.0632845.1919566.1912144v1.6494793c0 .1286103-.0639855.1925753-.1919566.1925753h-1.6112101zm1.9753831 1.5725852c1.3048964 0 2.3027984.3096176 2.993706.9302137.6902269.6205962 1.0353403 1.4473772 1.0353403 2.4837456 0 .62604-.1436271 1.1976417-.4315619 1.7161661-.2872542.5178439-.6745709.9431428-1.1605887 1.2758967h2.72415c.2552614 0 .4478987.0598821.5758698.1816877.127971.1211251.1912759.3613339.1912759.7192655 0 .3708606-.0605821.6301228-.1817462.7757451-.1218448.1476638-.3165241.2211555-.5853995.2211555h-2.6669714c-.4594706 0-.8951168-.0190534-1.3042157-.0571602-.409099-.0387873-.7991385-.1728415-1.1701184-.4028431-.4227129.2300016-.8733345.3640558-1.3525452.4028431-.4798915.0381068-.9053272.0571602-1.2763072.0571602h-2.5512529c-.2559421 0-.447218-.0762136-.5751891-.2300017-.127971-.1531076-.1919566-.4028431-.1919566-.748526 0-.3708607.0605821-.6165133.1824269-.7376384.1218448-.1218056.3165242-.1816877.5847188-.1816877h2.7050905c-.4730845-.3327539-.8535942-.7580528-1.1415291-1.2758967-.2879349-.5185244-.431562-1.0901261-.431562-1.7161661 0-1.0363684.3451134-1.8631494 1.036021-2.4837456.6902269-.6205961 1.6881289-.9302137 2.9923447-.9302137z" fill="#404042"/>
    <path d="M89.6898685 77.1842111c-.1272904 0-.1912759-.063965-.1912759-.1925753v-1.6494793c0-.1279299.0639855-.1912144.1912759-.1912144h1.8419664c.1279711 0 .1919566.0632845.1919566.1912144v1.6494793c0 .1286103-.0639855.1925753-.1919566.1925753h-1.8419664zm1.995804 6.7891313c0 .3837898.1436271.6777563.4308813.8818998.2879349.204824.6752515.3075762 1.1612693.3075762h.3260539c.2559422 0 .4472181.0700892.5758698.2095873.1272904.140859.1912759.3776654.1912759.7097388 0 .3708606-.060582.6274009-.1824268.7682599-.1211641.139498-.3158435.2102678-.5847189.2102678-.4982703 0-.9339164-.0598821-1.3048964-.1823682-.3709799-.1211251-.6650411-.3865116-.8821835-.7961595-.179704.3708606-.4444952.6274009-.7964156.7682599-.3512398.139498-.833854.2102678-1.4485236.2102678h-1.5152318c-.2552614 0-.4478987-.0415092-.5758698-.125208-.127971-.0823379-.1912759-.2647061-.1912759-.546424 0-.3184639.0605821-.6029038.1817462-.8533197.1218447-.2497356.3233311-.3729021.604459-.3729021h.9209833c.2171423 0 .3900394-.0319825.5180105-.0959475.127971-.0653259.2205459-.1660366.2777244-.3068956.0578593-.140859.0925748-.3273101.1061888-.5573117.0122525-.2293212.0190595-.5103587.0190595-.843793v-4.065177c0-.1279299.0639855-.1918948.1912759-.1918948h1.7841072c.1279711 0 .1926373.063965.1926373.1918948v4.6796488z" fill="#404042"/>
    <path d="M93.508171 87.060468c-.2559421 0-.447218-.0598821-.5758698-.1823681-.1272903-.1204447-.1912759-.3667778-.1912759-.7376384 0-.3586121.0605821-.6110695.1824269-.7573723.1211641-.1476638.3158434-.220475.5847188-.220475h.9400428c.3199276 0 .552726-.0741721.7004373-.2204749.1470306-.1476638.2198652-.4137308.2198652-.7961595v-9.9349822c0-.1272495.0639855-.1912144.1926373-.1912144h1.7841072c.1272904 0 .1919566.063965.1919566.1912144v10.4330922c0 .8322249-.1728971 1.4419334-.5186912 1.8318474-.3451135.3905945-.9203026.5845308-1.726248.5845308H93.508171zM102.1983591 86.8690495c0 .1272494-.0639855.1912144-.1912759.1912144h-1.7841072c-.1286517 0-.1926373-.063965-.1926373-.1912144v-12.658256c0-.1272495.0639856-.1912145.1926373-.1912145h1.7841072c.1272904 0 .1912759.063965.1912759.1912144v12.6582561zM113.249001 76.4173121c-.127971 0-.191957-.063965-.191957-.1925753v-1.6494793c0-.1279299.063986-.1912143.191957-.1912143h1.61121c.127971 0 .191276.0632844.191276.1912143v1.6494793c0 .1286104-.063305.1925753-.191276.1925753h-1.61121zm-.633729 7.958193c.614669 0 1.068014-.1748829 1.362075-.5273707.294742-.3511267.441772-.8655683.441772-1.5433246V80.674384h-1.707869c-.550003 0-.991095.140859-1.323275.421216-.332861.281718-.498951.8002424-.498951 1.5535318 0 .5886137.153837 1.0234393.460151 1.3051572.306994.2803571.729027.4212161 1.266097.4212161zm-1.860346-7.958193c-.128651 0-.191956-.063965-.191956-.1925753v-1.6494793c0-.1279299.063305-.1912143.191956-.1912143h1.611211c.127971 0 .191956.0632844.191956.1912143v1.6494793c0 .1286104-.063985.1925753-.191956.1925753h-1.611211zm3.664193 2.3394842v-.8240591c0-.129291.063305-.1932559.191957-.1932559h1.765047c.127291 0 .191276.063965.191276.1932559v6.2127662c0 .3831093.073516.6491763.220546.7961596.147031.1463028.38051.2211554.701118.2211554h.728346c.511884 0 .767827.3184638.767827.9581133 0 .3837898-.061263.6362472-.182427.7573723-.122526.1224861-.317205.1823682-.5854.1823682h-1.553351c-.626922 0-1.116343-.1081961-1.468263-.3259491-.351921-.217753-.584719-.6008623-.700438-1.1506887-.268194.2300016-.588122.4028431-.959102.5178439-.37098.1143204-.760339.1728415-1.170118.1728415-.498271 0-.968632-.0700892-1.409724-.2109482-.441773-.140859-.825005-.3579316-1.15174-.6525787-.325373-.2939666-.584719-.6675491-.776675-1.1221086-.191276-.4531985-.287935-1.000303-.287935-1.6399525 0-.7403603.105508-1.3609565.317205-1.8590665.210335-.5001516.491463-.8989118.843384-1.1990027.35192-.3000909.75217-.5144415 1.199388-.643052.447218-.1279298.914857-.1912143 1.400194-.1912143h1.918885z" fill="#404042"/>
    <path d="M118.447349 87.060468c-.255942 0-.431562-.0639649-.527541-.1912144-.095978-.1279299-.143627-.3640558-.143627-.7097388 0-.3844702.044926-.6457738.134098-.7866328.089852-.1401785.268194-.2102678.53707-.2102678h2.302117c.255943 0 .447218.0700893.57587.2102678.127291.140859.191957.3837897.191957.7294727 0 .3960383-.061263.6553005-.183108.7757452-.121845.122486-.316524.1823681-.584719.1823681h-2.302117z" fill="#404042"/>
    <path d="M120.750011 87.060468c-.255942 0-.431562-.0639649-.52754-.1912144-.095979-.1279299-.143627-.3640558-.143627-.7097388 0-.3844702.044926-.6457738.134097-.7866328.089852-.1401785.268195-.2102678.53707-.2102678h2.302118c.255942 0 .447218.0700893.575869.2102678.127291.140859.191957.3837897.191957.7294727 0 .3960383-.061263.6553005-.183107.7757452-.121845.122486-.316525.1823681-.584719.1823681h-2.302118z" fill="#404042"/>
    <path d="M123.051993 87.060468c-.255943 0-.431562-.0639649-.527541-.1912144-.095978-.1279299-.143627-.3640558-.143627-.7097388 0-.3844702.044926-.6457738.134098-.7866328.089852-.1401785.268194-.2102678.53707-.2102678h2.302117c.255942 0 .447218.0700893.57587.2102678.12729.140859.191957.3837897.191957.7294727 0 .3960383-.061263.6553005-.183108.7757452-.121845.122486-.316524.1823681-.584719.1823681h-2.302117z" fill="#404042"/>
    <path d="M125.353974 87.060468c-.255942 0-.431562-.0639649-.52754-.1912144-.095978-.1279299-.143627-.3640558-.143627-.7097388 0-.3844702.044926-.6457738.134097-.7866328.089852-.1401785.268195-.2102678.53707-.2102678h2.302118c.255942 0 .447218.0700893.57587.2102678.12729.140859.191956.3837897.191956.7294727 0 .3960383-.061262.6553005-.183107.7757452-.121845.122486-.316524.1823681-.584719.1823681h-2.302118z" fill="#404042"/>
    <path d="M129.190928 76.2631838c-.089852-.1272494-.162687-.2749132-.220546-.4409499-.057859-.1667171-.086449-.3579315-.086449-.5756846 0-.203463.038119-.4150917.115038-.6328447.076919-.2163921.198083-.4184941.364854-.6035842.165409-.1857706.385955-.3361563.661638-.4518376.275001-.1143203.603778-.1714805.988372-.1714805.383232 0 .735153.0734917 1.05508.2211554.319247.1456224.55613.3279906.709967.5457436.037439.0891426.030632.1531076-.01974.1918949l-.57587.5368973c-.038119.0381068-.089171.0265386-.153156-.0387873-.127971-.1272494-.275002-.2300016-.441773-.3068957-.16609-.075533-.358047-.1143203-.574508-.1143203-.306995 0-.541154.0864207-.701118.2592622-.159964.1728415-.239606.3797068-.239606.623318 0 .2551794.063986.4600033.191957.6124305.127971.1544685.262068.2687889.402973.345683h2.091101c.076238 0 .115038.0449115.115038.1340541v.748526c0 .0891427-.0388.1340543-.115038.1340543h-4.220322c-.076919 0-.115719-.0449116-.115719-.1340542v-.748526c0-.0891427.0388-.1340543.115719-.1340543h.652108zm2.590052 7.7098184c0 .3844702.143628.6777563.430882.8825803.287935.2048239.675251.3068956 1.161269.3068956h.326054c.255942 0 .447218.0707698.57587.2102678.12729.140859.191276.376985.191276.7097388 0 .3708606-.060582.6274009-.182427.7682599-.121164.1394981-.315844.2095873-.584719.2095873-.49827 0-.933916-.0598821-1.304896-.1816877-.37098-.1211251-.665042-.3871921-.882184-.7961595-.179704.3708606-.444495.6274009-.796416.7682599-.351239.1394981-.833854.2095873-1.448523.2095873h-1.515232c-.255261 0-.447218-.0408287-.57587-.1245275-.12729-.0823379-.191276-.264706-.191276-.546424 0-.3191443.060582-.6035842.181747-.8533197.121844-.2497355.323331-.3735826.604459-.3735826h.920983c.217142 0 .390039-.0319824.51801-.0952669.127971-.0653259.221227-.1667172.278405-.3075762.057179-.140859.091895-.3266295.105509-.5566312.012252-.2300016.019059-.5103586.019059-.843793v-4.0658574c0-.1272495.063986-.1912144.191276-.1912144h1.784107c.127971 0 .192637.063965.192637.1912144v4.6796488z" fill="#404042"/>
    <path d="M137.266855 90.7432843c-.127291 0-.191276-.063965-.191276-.1912144v-1.6494792c0-.1292909.063985-.1925754.191276-.1925754h1.611891c.127971 0 .191276.0632845.191276.1925754v1.6494792c0 .1272494-.063305.1912144-.191276.1912144h-1.611891zm-2.494074 0c-.127972 0-.191276-.063965-.191276-.1912144v-1.6494792c0-.1292909.063304-.1925754.191276-.1925754h1.61189c.127971 0 .191276.0632845.191276.1925754v1.6494792c0 .1272494-.063305.1912144-.191276.1912144h-1.61189zm2.993025-4.6612759c-.179023.3708606-.451302.6274009-.815475.7682599-.364173.139498-.853595.2102678-1.467583.2102678h-1.784108c-.255261 0-.447218-.0598821-.575869-.1823682-.127291-.1204446-.191276-.3613339-.191276-.718585 0-.3708606.060582-.6301228.181746-.7764257.121845-.1476637.316524-.2204749.585399-.2204749h1.247038c.230756 0 .406376-.0360654.52754-.1061546.121164-.0694088.211016-.1782853.268875-.3259491.057179-.1463028.092575-.3388782.105508-.5756846.012934-.2361259.01906-.5273706.01906-.8716926v-3.9896439c0-.076894.034715-.1279299.105508-.1531076.070112-.0265386.144308-.0381068.220546-.0381068h1.65001c.12729 0 .191956.0632845.191956.1912144v4.6796488c0 .3837898.143627.6777564.431562.8825803.287935.2041435.674571.3068957 1.160589.3068957h.326054c.255261 0 .447898.0700892.57587.2095873.12729.140859.191275.3776654.191275.7097388 0 .3708606-.060582.6274009-.181746.7682599-.121844.139498-.316524.2102678-.585399.2102678-.498951 0-.933917-.0598821-1.304897-.1823682-.37098-.1204446-.66436-.3865116-.882183-.7961595z" fill="#404042"/>
    <g transform="translate(138.803256 77.737644)">
      <mask id="b" fill="#fff">
        <use xlink:href="#a"/>
      </mask>
      <path d="M5.7731286 4.7587884c-.3580467 0-.6364518.1184032-.8345347.3545292-.1987636.2368064-.296784.5716017-.296784 1.0064273 0 .4477547.0891714.7777866.2681947.9887349.1790234.2102677.4281585.328671.7480862.3552096h.2116968c.3321802-.0265386.5813153-.1449419.7474055-.3552096.16609-.2109483.2491351-.5409802.2491351-.988735 0-.4348255-.0918941-.7696208-.2777244-1.0064272-.1851496-.236126-.4574285-.3545292-.8154752-.3545292zM1.1498336 9.322756c-.2559421 0-.447218-.0728111-.5758698-.220475C.4466735 8.9559783.382688 8.715089.382688 8.3830156c0-.3708606.060582-.623318.1824269-.7573723.121164-.1340542.3158434-.200741.5847188-.200741h2.1292207c-.1790234-.3837898-.2688754-.832225-.2688754-1.3425836 0-.499471.074196-.9274918.2212266-1.284743.1463499-.3579315.3478362-.6525785.6037783-.8825802.2559422-.2300016.5500033-.4001212.8828642-.5076367.3321802-.1088766.6841007-.1639953 1.0550806-.1639953.8059454 0 1.47439.2300016 2.004653.690005.5309439.4613642.7964157 1.1779078.7964157 2.1489502 0 .204824-.015656.4280208-.0476488.671632-.0326734.2415698-.0803222.4661276-.1443078.6709515.3199277 0 .5819961-.0387872.786886-.1156813.204209-.076894.364173-.1939363.4792107-.3545291.1150378-.1599124.1926373-.3647363.2300757-.6144719.0387997-.2483745.0578592-.5396192.0578592-.8716926 0-.9465452-.2681946-1.7011956-.8052647-2.2632706-.53707-.562075-1.362075-.843793-2.4750148-.843793-.4349655 0-.892394.0449116-1.3722854.1340542-.4792108.0905036-.9625058.2429308-1.4485236.4600033-.076238.0517163-.1409043.076894-.1912759.076894-.0646662 0-.1021045-.0251777-.1150378-.076894l-.460832-1.169742c-.0258664-.0755332-.038119-.1340543-.038119-.1728415 0-.063965.0319928-.1143204.0959783-.1531076C4.3280086.83379 5.6322243.5200895 7.0392253.5200895c1.0108352 0 1.8480927.1476638 2.5138145.4416304.6643604.2939666 1.1925814.6736734 1.5826209 1.1404815.3893588.4674885.6616376.9914568.8147945 1.5732657.1538375.5811284.2307563 1.1670201.2307563 1.7542729 0 .7165435-.0578593 1.3201277-.1728971 1.812794-.1150378.4919857-.3035909.892107-.56634 1.1976417-.2620684.3068957-.6044591.5314535-1.0264913.6723125-.4213515.1401785-.9332358.2102677-1.5342914.2102677h-7.731358z" fill="#404042" mask="url(#b)"/>
    </g>
    <path d="M7.0370348 95.9524812c.2729596 0 .4860178-.0707697.6378133-.2136701.150434-.1429005.2266721-.3368367.2266721-.5811284 0-.2436112-.076238-.4389085-.2266721-.5845308-.1517955-.1449419-.3648537-.2184335-.6378133-.2184335H6.058873c-.0347155 0-.0524136.0176924-.0524136.0523968v1.4929692c0 .0353849.017698.0523968.0524136.0523968h.9781618zm-2.2265603 3.2295497c-.0578593 0-.0871293-.0292605-.0871293-.0871012v-5.7616092c0-.0578406.02927-.0871012.0871293-.0871012H7.115315c.3199277 0 .6085432.046953.8644854.1401785.2566228.0925451.4744459.2238774.6555113.392636.179704.1687586.3165242.3694996.4097797.6015427.0932555.2334041.139543.4919858.139543.7771062 0 .2796765-.0476489.5355363-.1443079.7682599-.0952976.233404-.2321177.4341451-.4097797.6029037-.177662.1687586-.3941236.2994104-.6507464.3926359-.2559422.0932256-.5445577.1394981-.8644854.1394981H6.058873c-.0347155 0-.0524136.0170119-.0524136.0523968v1.9815526c0 .0578407-.02927.0871012-.08781.0871012h-1.108175zM13.1227396 99.2778423c-.3314995 0-.6378133-.0489945-.916899-.1483443-.2797666-.0986693-.519372-.2442917-.7201777-.4361865-.2008056-.1925754-.3587274-.4307428-.471723-.7158631-.1136765-.2851204-.170855-.6110695-.170855-.9778473v-3.6657362c0-.0578406.02927-.0871012.0878099-.0871012h1.1088556c.0578593 0 .0871292.0292606.0871292.0871012v3.7011211c0 .3552097.0905328.6280814.2715982.8199763.179704.1918948.4213515.2885228.7242618.2885228.296784 0 .535028-.096628.7160934-.2885228.179704-.1918949.2702367-.4647666.2702367-.8199763v-3.7011211c0-.0578406.02927-.0871012.08781-.0871012h1.1088556c.0578593 0 .0871292.0292606.0871292.0871012v3.6657362c0 .3667778-.0564978.6927269-.1701743.9778473-.1136764.2851203-.2702367.5232877-.4710424.7158631-.2008056.1918948-.440411.3375172-.7160934.4361865-.2770437.0993498-.5813153.1483443-.9128148.1483443M18.6500684 98.0909521c0 .0353849.0170175.0523969.0524137.0523969h.9781618c.2613877 0 .460832-.0660064.5983328-.1966582.1361394-.1306519.2042091-.3123396.2042091-.5457436 0-.2265992-.0680697-.406926-.2042091-.5409802-.1375008-.1333737-.3369451-.2007411-.5983328-.2007411h-.9781618c-.0353962 0-.0524137.0176925-.0524137.0530773v1.3786489zm.9604637-2.4184196c.2443703 0 .4349655-.0605626.5717856-.1823682.1368201-.1224861.2055705-.2939666.2055705-.515122 0-.2211554-.0687504-.391275-.2055705-.5110391-.1368201-.1190837-.3274153-.1789658-.5717856-.1789658h-.90805c-.0353962 0-.0524137.0176924-.0524137.0523968v1.283382c0 .0347043.0170175.0517163.0524137.0517163h.90805zm-2.2442585-2.3388037c0-.0578406.02927-.0871012.0871292-.0871012h2.3143703c.6459816 0 1.1231503.1456223 1.4315061.4361865.3083558.2912447.4635548.6723125.4635548 1.1432035 0 .3266295-.0660276.5906551-.1967215.7947986-.1313745.2034629-.2961033.3606534-.4935054.4708909v.0176924c.0993818.0353849.1960408.0918646.2926997.1701196.0952976.0789355.1797041.1762438.2532194.2926056.0721539.1163618.1320552.2490551.1790233.3973993.0462874.1476638.0694311.3096176.0694311.48382 0 .5886137-.1817461 1.0227588-.5459191 1.3051573-.3634922.2823984-.8685695.4239379-1.5145511.4239379h-2.2531076c-.0578592 0-.0871292-.0292605-.0871292-.0871012v-5.7616092zM23.5572141 93.3335927c0-.0578406.02927-.0871012.0871293-.0871012h1.1088556c.05854 0 .0878099.0292606.0878099.0871012v4.6524297c0 .0353849.0170175.0523968.0524137.0523968h2.6193226c.0578593 0 .0871292.0292606.0871292.0877817v.969001c0 .0578407-.0292699.0871012-.0871292.0871012h-3.8684018c-.0578593 0-.0871293-.0292605-.0871293-.0871012v-5.7616092zM29.224154 93.3335927c0-.0578406.0292699-.0871012.0871292-.0871012h1.1088556c.05854 0 .08781.0292606.08781.0871012v5.7616092c0 .0578407-.02927.0871012-.08781.0871012h-1.1088556c-.0578593 0-.0871292-.0292605-.0871292-.0871012v-5.7616092zM32.5159373 97.8205301c-.0353963-.0932255-.0626242-.187812-.0830451-.2837594-.0204209-.0966279-.0367576-.2041435-.0476488-.3232272-.0122525-.1184032-.0211016-.2585817-.0258665-.4191746-.0061262-.1592319-.0095297-.3531682-.0095297-.5797674 0-.2272798.0034035-.4212161.0095297-.5811285.0047649-.1592319.013614-.2994104.0258665-.4184941.0108912-.1197641.0272279-.2252383.0476488-.3191443.0204209-.0932255.0476488-.1884924.0830451-.2878423.1565603-.4885833.4172673-.8540001.7814403-1.0955699.364173-.2415698.8079875-.3620144 1.3314436-.3620144.5071194 0 .9359586.1150008 1.287879.3450024.3526011.2293212.6126274.5539093.782121.9730839.0285893.0523968.0142947.0871012-.0442453.1047937l-.9516146.4273403c-.0524137.0292606-.0932555.0149705-.1218448-.0435506-.0816836-.1918949-.1967215-.3518073-.3451134-.4797372-.1490727-.1286104-.348517-.1918948-.5983328-.1918948-.2327985 0-.4233937.0585211-.5717856.1748829-.148392.1156813-.2552615.2762741-.3185663.4797371-.0176981.0523969-.0319928.1088765-.0442453.1701196-.0108912.0605625-.0211016.1381371-.0306314.2306821-.0081683.0932255-.0142946.2102678-.0170174.3497658-.0027228.1394981-.0040842.314381-.0040842.5239683 0 .2089068.0013614.3837897.0040842.5232877.0027228.1394981.0088491.2558598.0170174.3490854.0095298.0939059.0197402.1708.0306314.232043.0122525.0605626.0265472.1177228.0442453.1701196.0633048.203463.1701743.3633754.3185663.4797371.1483919.1163618.3389871.1748829.5717856.1748829.2498158 0 .4492601-.0639649.5983328-.1925753.1483919-.1279299.2634298-.2878423.3451134-.4804176.0285893-.0578407.0694311-.0721307.1218448-.0428702l.9516146.4273404c.05854.0176924.0728346.0523968.0442453.1047936-.1694936.4191746-.4295199.7437627-.782121.9737644-.3519204.2300016-.7807596.344322-1.287879.344322-.5234561 0-.9672706-.1204447-1.3314436-.3626949-.364173-.2408893-.62488-.6063061-.7814403-1.0948895M42.5309663 99.182099c-.0578593 0-.0871293-.0292606-.0871293-.0871012v-4.6531102c0-.0347044-.0170174-.0517163-.0524137-.0517163h-1.5016179c-.0585399 0-.0878099-.0292606-.0878099-.0877817v-.969001c0-.0578407.02927-.0871012.0878099-.0871012h4.391858c.0578593 0 .0871292.0292605.0871292.0871012v.969001c0 .0585211-.0292699.0877817-.0871292.0877817h-1.5016179c-.0353962 0-.0524137.0170119-.0524137.0517163v4.6531102c0 .0578406-.0292699.0871012-.0878099.0871012h-1.1088556zM49.3333089 95.8302674c.2443703 0 .4397304-.0673674.5847189-.2007411.1456692-.1340542.2185038-.314381.2185038-.5416607 0-.2204749-.0728346-.3980798-.2185038-.532134-.1449885-.1333737-.3403486-.2007411-.5847189-.2007411H48.285716c-.0353962 0-.0524136.017012-.0524136.0523969v1.3704831c0 .0353849.0170174.0523969.0524136.0523969h1.0475929zm.899201 3.3520357c-.0639856 0-.1075502-.0292605-.1306939-.0871012l-1.0217264-2.1734475h-.7943736c-.0353962 0-.0524136.017012-.0524136.0523969v2.1210506c0 .0578407-.02927.0871012-.08781.0871012h-1.1088556c-.0578593 0-.0871293-.0292605-.0871293-.0871012v-5.7616092c0-.0578406.02927-.0871012.0871293-.0871012h2.3667839c.3022296 0 .5772312.045592.8243243.1347347.2477737.0905036.4601512.217753.6378132.3803873.177662.1626343.3144821.3572511.4104604.5845308.0959783.2265993.1436271.4749738.1436271.7417213 0 .3844702-.0925748.7192655-.2790859 1.0043859-.1858303.2851204-.4451759.5001515-.7766754.6457738l1.1694377 2.3388037c.0115719.0292606.0115719.0544383 0 .0748526-.0115719.0204144-.0313121.0306215-.060582.0306215h-1.2402302zM56.1960975 96.965237l-.6718481-2.0781805h-.0258664l-.6732095 2.0781805h1.370924zm-1.3355278-3.6317123c.0170175-.0578407.0551365-.0871012.1129958-.0871012h1.1006872c.0578593 0 .0959783.0292605.1129958.0871012l2.0087372 5.7616092c.0176982.0578406-.0027228.0871012-.060582.0871012h-1.1354029c-.0585399 0-.0966589-.0292606-.1136764-.0871012l-.3403485-1.0390903h-2.0781684l-.3321802 1.0390903c-.0176982.0578406-.0551365.0871012-.1129958.0871012h-1.1442518c-.05854 0-.0782802-.0292606-.0612628-.0871012l2.0434528-5.7616092zM59.7504938 93.3335927c0-.0578406.02927-.0871012.0871292-.0871012h1.0475929c.0646663 0 .1136764.0292606.1490727.0871012l2.0951858 3.7358255h.0435646v-3.7358255c0-.0578406.02927-.0871012.0871293-.0871012h.9870108c.0578593 0 .0871292.0292606.0871292.0871012v5.7616092c0 .0578407-.0292699.0871012-.0871292.0871012h-1.0387438c-.0646663 0-.1136765-.0292605-.1490727-.0871012l-2.1033542-3.7276597h-.0442453v3.7276597c0 .0578407-.02927.0871012-.0871292.0871012h-.9870109c-.0578592 0-.0871292-.0292605-.0871292-.0871012v-5.7616092zM68.3336763 99.2778423c-.2327984 0-.4615126-.0210949-.685462-.0653259-.2239494-.0435506-.4349655-.1013913-.6330483-.1748829-.1980829-.0721307-.379829-.157871-.5459191-.2565403-.1654094-.0993499-.3069945-.2041435-.4233937-.314381-.0469681-.046953-.0496909-.0966279-.008849-.1483442l.6643604-.7594137c.0340348-.046953.0782802-.0503554.1306938-.0088463.1974022.15651.4274778.297369.6895462.4232575.2613877.125208.5500033.1871315.8644854.1871315s.5547682-.0646454.7201776-.1959777c.1660901-.1306518.2491351-.3014519.2491351-.5110392 0-.1748829-.0646662-.3164224-.1919566-.4280208-.1286517-.1102375-.3696185-.1884925-.7249424-.234765l-.3144821-.0442311c-.6051397-.0809769-1.0693752-.2653865-1.3927063-.5539092-.3233312-.2878423-.4846564-.6974902-.4846564-1.2269023 0-.2728718.0496909-.5219268.148392-.7464846.0993818-.2238774.2402861-.4144113.4233936-.5709213.1837882-.1571904.4043341-.2796765.6636797-.3674582.2593456-.0864207.5486419-.1306518.8685696-.1306518.3961657 0 .768507.0557992 1.1183854.1660367.3491976.1102374.6487043.2619841.8992009.453879.051733.0347043.0578592.0782549.0176981.1313323l-.5336665.794118c-.0340349.0462726-.0748767.0557993-.1211641.0265387-.2273529-.1517466-.4526636-.2653865-.676613-.3409196-.2246301-.0755331-.4587899-.1129594-.7038408-.1129594-.2613877 0-.4594706.0612431-.5935679.1823682-.1340974.1224861-.2008057.2769546-.2008057.4634057 0 .1687586.0687504.3082566.2055705.4184941.1361395.1109179.3764256.1891729.7201776.2361259l.3144821.0435506c.6167116.0809769 1.0829891.266067 1.3967905.5545898.3144821.2878423.4717231.7022535.4717231 1.2432337 0 .267428-.0490102.5171635-.1483919.7471651-.0987011.2293212-.2457317.4266599-.4410918.593377-.1953601.1653563-.4383689.2946471-.7290266.3878726-.2906577.0932256-.6289642.1394981-1.0128774.1394981M74.7078605 95.9524812c.2729596 0 .4860178-.0707697.6378132-.2136701.1504341-.1429005.2266722-.3368367.2266722-.5811284 0-.2436112-.0762381-.4389085-.2266722-.5845308-.1517954-.1449419-.3648536-.2184335-.6378132-.2184335h-.9781618c-.0347155 0-.0524137.0176924-.0524137.0523968v1.4929692c0 .0353849.0176982.0523968.0524137.0523968h.9781618zm-2.2265603 3.2295497c-.0578593 0-.0871293-.0292605-.0871293-.0871012v-5.7616092c0-.0578406.02927-.0871012.0871293-.0871012h2.3048405c.3199276 0 .6085432.046953.8644854.1401785.2566228.0925451.4744459.2238774.6555113.392636.179704.1687586.3165242.3694996.4097797.6015427.0932555.2334041.1395429.4919858.1395429.7771062 0 .2796765-.0476488.5355363-.1443078.7682599-.0952976.233404-.2321177.4341451-.4097797.6029037-.1776619.1687586-.3941236.2994104-.6507464.3926359-.2559422.0932256-.5445578.1394981-.8644854.1394981h-1.056442c-.0347155 0-.0524137.0170119-.0524137.0523968v1.9815526c0 .0578407-.0292699.0871012-.0878099.0871012h-1.1081749zM80.7158296 98.1434851c.2436896 0 .445176-.0585212.602417-.174883.1565603-.1163617.267514-.2762741.3314995-.4797371.0170174-.0523968.0319928-.1122789.0442453-.1796463.0108912-.0660063.0217823-.1476637.0299507-.2436112.0088491-.0966279.0149753-.2136701.0176981-.3538486.0027228-.1401786.0047649-.3055348.0047649-.4974296 0-.1918949-.0020421-.3579316-.0047649-.4974296-.0027228-.1394981-.008849-.2572208-.0176981-.3538487-.0081684-.0959474-.0190595-.1776048-.0299507-.2442917-.0122525-.0666869-.0272279-.1265689-.0442453-.1789658-.0639855-.203463-.1749392-.3633753-.3314995-.4797371-.157241-.1163618-.3587274-.1748829-.602417-.1748829-.2443703 0-.4451759.0585211-.6030976.1748829-.1565604.1163618-.267514.2762741-.3314996.4797371-.0170174.0523969-.0319927.1122789-.0435646.1789658-.0115718.0666869-.0217823.1483443-.0306313.2442917-.0088491.0966279-.0149754.2143506-.0176982.3538487-.0027228.139498-.0040841.3055347-.0040841.4974296 0 .1918948.0013613.357251.0040841.4974296.0027228.1401785.0088491.2572207.0176982.3538486.008849.0959475.0190595.1776049.0306313.2436112.0115719.0673674.0265472.1272495.0435646.1796463.0639856.203463.1749392.3633754.3314996.4797371.1579217.1163618.3587273.174883.6030976.174883m0 1.1343572c-.5186912 0-.9713548-.1190837-1.3579908-.3572511-.386636-.2388479-.656192-.5995013-.8079875-1.0826409-.0347155-.1054741-.0619434-.2068654-.083045-.3055347-.0204209-.0986693-.036077-.2095873-.0476488-.3320734-.0122526-.1218056-.0204209-.2619841-.0258665-.4184941-.0061263-.1571905-.0095298-.3463634-.0095298-.5675188 0-.2211555.0034035-.4103284.0095298-.5675189.0054456-.15651.0136139-.2966885.0258665-.4184941.0115718-.1224861.0272279-.233404.0476488-.3320734.0211016-.0986693.0483295-.2007411.083045-.3055347.1517955-.4770152.4213515-.8363077.8079875-1.078558.386636-.2408893.8392996-.3620144 1.3579908-.3620144.5180105 0 .9706741.1211251 1.3573101.3620144.3873167.2422503.6561921.6015428.8079875 1.078558.0347156.1047936.0619435.2068654.0830451.3055347.0204209.0986694.0360769.2095873.0476488.3320734.0122525.1218056.0204209.2619841.0265472.4184941.0054455.1571905.008849.3463634.008849.5675189 0 .2211554-.0034035.4103283-.008849.5675188-.0061263.15651-.0142947.2966885-.0265472.4184941-.0115719.1224861-.0272279.2334041-.0476488.3320734-.0211016.0986693-.0483295.2000606-.0830451.3055347-.1517954.4831396-.4206708.843793-.8079875 1.0826409-.386636.2381674-.8392996.3572511-1.3573101.3572511M87.2728491 95.8302674c.2443702 0 .4397303-.0673674.5847188-.2007411.1456692-.1340542.2185038-.314381.2185038-.5416607 0-.2204749-.0728346-.3980798-.2185038-.532134-.1449885-.1333737-.3403486-.2007411-.5847188-.2007411h-1.0475929c-.0353963 0-.0524137.017012-.0524137.0523969v1.3704831c0 .0353849.0170174.0523969.0524137.0523969h1.0475929zm.8992009 3.3520357c-.0639856 0-.1075502-.0292605-.1306939-.0871012l-1.0217264-2.1734475h-.7943735c-.0353963 0-.0524137.017012-.0524137.0523969v2.1210506c0 .0578407-.02927.0871012-.08781.0871012h-1.1088556c-.0578593 0-.0871292-.0292605-.0871292-.0871012v-5.7616092c0-.0578406.0292699-.0871012.0871292-.0871012h2.366784c.3022295 0 .5772311.045592.8243242.1347347.2477738.0905036.4601513.217753.6378132.3803873.177662.1626343.3144821.3572511.4104604.5845308.0959783.2265993.1436271.4749738.1436271.7417213 0 .3844702-.0925748.7192655-.2790858 1.0043859-.1858304.2851204-.445176.5001515-.7766755.6457738l1.1694377 2.3388037c.0115719.0292606.0115719.0544383 0 .0748526-.0115718.0204144-.0313121.0306215-.060582.0306215H88.17205zM92.4944088 99.182099c-.0578593 0-.0871293-.0292606-.0871293-.0871012v-4.6531102c0-.0347044-.0170174-.0517163-.0524137-.0517163h-1.5016179c-.0585399 0-.0878099-.0292606-.0878099-.0877817v-.969001c0-.0578407.02927-.0871012.0878099-.0871012h4.391858c.0578593 0 .0871292.0292605.0871292.0871012v.969001c0 .0585211-.0292699.0877817-.0871292.0877817H93.743488c-.0353962 0-.0524137.0170119-.0524137.0517163v4.6531102c0 .0578406-.0292699.0871012-.0878099.0871012h-1.1088556zM102.6755959 96.965237l-.6718481-2.0781805h-.0258665l-.6732094 2.0781805h1.370924zm-1.3355278-3.6317123c.0170174-.0578407.0551365-.0871012.1129957-.0871012h1.1006873c.0578593 0 .0959783.0292605.1129957.0871012l2.0087372 5.7616092c.017698.0578406-.002723.0871012-.060582.0871012h-1.1354028c-.0585399 0-.096659-.0292606-.1136764-.0871012l-.3403486-1.0390903h-2.0781683l-.3321802 1.0390903c-.0176982.0578406-.0551365.0871012-.1129958.0871012H99.357878c-.0585399 0-.0782801-.0292606-.0612627-.0871012l2.0434528-5.7616092zM108.273445 99.2778423c-.3315 0-.637813-.0489945-.916899-.1483443-.279767-.0986693-.519372-.2442917-.720178-.4361865-.200805-.1925754-.358727-.4307428-.471723-.7158631-.113676-.2851204-.170855-.6110695-.170855-.9778473v-3.6657362c0-.0578406.02927-.0871012.08781-.0871012h1.108856c.057859 0 .087129.0292606.087129.0871012v3.7011211c0 .3552097.090533.6280814.271598.8199763.179704.1918948.421352.2885228.724262.2885228.296784 0 .535028-.096628.716093-.2885228.179704-.1918949.270237-.4647666.270237-.8199763v-3.7011211c0-.0578406.02927-.0871012.08781-.0871012h1.108856c.057859 0 .087129.0292606.087129.0871012v3.6657362c0 .3667778-.056498.6927269-.170174.9778473-.113677.2851203-.270237.5232877-.471043.7158631-.200805.1918948-.440411.3375172-.716093.4361865-.277044.0993498-.581315.1483443-.912815.1483443M113.826028 99.182099c-.05786 0-.08713-.0292606-.08713-.0871012v-4.6531102c0-.0347044-.017017-.0517163-.052413-.0517163h-1.501618c-.05854 0-.08781-.0292606-.08781-.0877817v-.969001c0-.0578407.02927-.0871012.08781-.0871012h4.391858c.057859 0 .087129.0292605.087129.0871012v.969001c0 .0585211-.02927.0877817-.087129.0877817h-1.501618c-.035396 0-.052414.0170119-.052414.0517163v4.6531102c0 .0578406-.02927.0871012-.08781.0871012h-1.108855zM118.244569 93.3335927c0-.0578406.02927-.0871012.087129-.0871012h1.108856c.05854 0 .08781.0292606.08781.0871012v2.2258443c0 .0347044.017017.0530773.052414.0530773h1.938625c.034035 0 .052414-.0183729.052414-.0530773v-2.2258443c0-.0578406.028589-.0871012.087129-.0871012h1.108856c.057859 0 .086448.0292606.086448.0871012v5.7616092c0 .0578407-.028589.0871012-.086448.0871012h-1.108856c-.05854 0-.087129-.0292605-.087129-.0871012v-2.2877678c0-.0340239-.018379-.0523968-.052414-.0523968h-1.938625c-.035397 0-.052414.0183729-.052414.0523968v2.2877678c0 .0578407-.02927.0871012-.08781.0871012h-1.108856c-.057859 0-.087129-.0292605-.087129-.0871012v-5.7616092zM127.02917 98.1434851c.243689 0 .445176-.0585212.602417-.174883.15656-.1163617.267514-.2762741.331499-.4797371.017018-.0523968.031993-.1122789.044246-.1796463.010891-.0660063.021782-.1476637.02995-.2436112.008849-.0966279.014976-.2136701.017698-.3538486.002723-.1401786.004765-.3055348.004765-.4974296 0-.1918949-.002042-.3579316-.004765-.4974296-.002722-.1394981-.008849-.2572208-.017698-.3538487-.008168-.0959474-.019059-.1776048-.02995-.2442917-.012253-.0666869-.027228-.1265689-.044246-.1789658-.063985-.203463-.174939-.3633753-.331499-.4797371-.157241-.1163618-.358728-.1748829-.602417-.1748829-.24437 0-.445176.0585211-.603098.1748829-.15656.1163618-.267514.2762741-.331499.4797371-.017018.0523969-.031993.1122789-.043565.1789658-.011572.0666869-.021782.1483443-.030631.2442917-.008849.0966279-.014976.2143506-.017698.3538487-.002723.139498-.004085.3055347-.004085.4974296 0 .1918948.001362.357251.004085.4974296.002722.1401785.008849.2572207.017698.3538486.008849.0959475.019059.1776049.030631.2436112.011572.0673674.026547.1272495.043565.1796463.063985.203463.174939.3633754.331499.4797371.157922.1163618.358728.174883.603098.174883m0 1.1343572c-.518691 0-.971355-.1190837-1.357991-.3572511-.386636-.2388479-.656192-.5995013-.807987-1.0826409-.034716-.1054741-.061944-.2068654-.083046-.3055347-.02042-.0986693-.036076-.2095873-.047648-.3320734-.012253-.1218056-.020421-.2619841-.025867-.4184941-.006126-.1571905-.00953-.3463634-.00953-.5675188 0-.2211555.003404-.4103284.00953-.5675189.005446-.15651.013614-.2966885.025867-.4184941.011572-.1224861.027228-.233404.047648-.3320734.021102-.0986693.04833-.2007411.083046-.3055347.151795-.4770152.421351-.8363077.807987-1.078558.386636-.2408893.8393-.3620144 1.357991-.3620144.51801 0 .970674.1211251 1.35731.3620144.387317.2422503.656192.6015428.807987 1.078558.034716.1047936.061944.2068654.083045.3055347.020421.0986694.036077.2095873.047649.3320734.012253.1218056.020421.2619841.026547.4184941.005446.1571905.00885.3463634.00885.5675189 0 .2211554-.003404.4103283-.00885.5675188-.006126.15651-.014294.2966885-.026547.4184941-.011572.1224861-.027228.2334041-.047649.3320734-.021101.0986693-.048329.2000606-.083045.3055347-.151795.4831396-.42067.843793-.807987 1.0826409-.386636.2381674-.8393.3572511-1.35731.3572511M133.586189 95.8302674c.244371 0 .439731-.0673674.584719-.2007411.145669-.1340542.218504-.314381.218504-.5416607 0-.2204749-.072835-.3980798-.218504-.532134-.144988-.1333737-.340348-.2007411-.584719-.2007411h-1.047593c-.035396 0-.052413.017012-.052413.0523969v1.3704831c0 .0353849.017017.0523969.052413.0523969h1.047593zm.899201 3.3520357c-.063985 0-.10755-.0292605-.130694-.0871012l-1.021726-2.1734475h-.794374c-.035396 0-.052413.017012-.052413.0523969v2.1210506c0 .0578407-.02927.0871012-.08781.0871012h-1.108856c-.057859 0-.087129-.0292605-.087129-.0871012v-5.7616092c0-.0578406.02927-.0871012.087129-.0871012h2.366784c.30223 0 .577231.045592.824324.1347347.247774.0905036.460152.217753.637814.3803873.177661.1626343.314482.3572511.41046.5845308.095978.2265993.143627.4749738.143627.7417213 0 .3844702-.092575.7192655-.279086 1.0043859-.18583.2851204-.445176.5001515-.776675.6457738l1.169437 2.3388037c.011572.0292606.011572.0544383 0 .0748526-.011571.0204144-.031312.0306215-.060582.0306215h-1.24023zM137.515514 93.3335927c0-.0578406.029269-.0871012.087129-.0871012h1.108855c.05854 0 .08781.0292606.08781.0871012v5.7616092c0 .0578407-.02927.0871012-.08781.0871012h-1.108855c-.05786 0-.087129-.0292605-.087129-.0871012v-5.7616092zM142.108177 99.182099c-.057859 0-.087129-.0292606-.087129-.0871012v-4.6531102c0-.0347044-.017018-.0517163-.052414-.0517163h-1.501618c-.05854 0-.08781-.0292606-.08781-.0877817v-.969001c0-.0578407.02927-.0871012.08781-.0871012h4.391858c.05786 0 .08713.0292605.08713.0871012v.969001c0 .0585211-.02927.0877817-.08713.0877817h-1.501618c-.035396 0-.052413.0170119-.052413.0517163v4.6531102c0 .0578406-.02927.0871012-.08781.0871012h-1.108856zM147.880149 99.182099c-.05854 0-.08781-.0292606-.08781-.0871012v-2.2789216l-1.754838-3.4826876c-.023143-.0578407-.002722-.0871012.061263-.0871012h1.135403c.063985 0 .10755.0292605.130694.0871012l1.07414 2.1652817h.025866l1.074821-2.1652817c.023144-.0578407.066028-.0871012.130694-.0871012h1.100007c.028589 0 .04901.0088462.061262.0258581.011572.0176925.011572.0381068 0 .0612431l-1.755518 3.4826876v2.2789216c0 .0578406-.028589.0871012-.087129.0871012h-1.108855z" fill="#404042"/>
    <g>
      <path fill="#ff6c00" d="M96.8724836 48.0192616L77.503356 55.6443132v6.7826531l19.3691276-7.6250516zM102.9253359 31.2102729L77.503356 42.035055v7.1848487l25.4219799-10.8240513zM116.2402524 12L77.503356 28.0390201v6.7731789l38.7382551-16.039709V12z"/>
      <path d="M78.7139265 48.0192616s-3.3184328 3.3240589-9.899745 4.5397068c-5.4807937 1.0121201-9.4693825 3.0853448-9.4693825 3.0853448v6.7826531s4.2874517-2.6472424 10.2921344-3.7456031c5.6594082-1.0348875 9.0769931-3.8794485 9.0769931-3.8794485v-6.7826531zM78.7139265 34.812199s-4.3547487 4.4666095-12.9935949 5.6718959c-7.193959 1.0040631-12.428385 4.4084326-12.428385 4.4084326v6.7286603s5.6278565-3.9738177 13.5082408-5.0627505c7.4273851-1.0266494 11.9137391-5.017578 11.9137391-5.017578V34.812199zM77.503356 20.4044944s-6.6370782 7.1278229-19.7998243 8.3397661c-10.9610295 1.0096086-18.9384307 7.7072983-18.9384307 7.7072983v6.7651346s8.5752138-7.2695948 20.583774-8.3645418c11.3183583-1.0323196 18.154481-7.6818344 18.154481-7.6818344v-6.7658228z" fill="#33B4E4"/>
    </g>
    <g>
      <g transform="translate(204 24)">
        <mask id="d" fill="#fff">
          <use xlink:href="#c"/>
        </mask>
        <path d="M27.2594033 13.8983362c0 1.1807033.0051388 2.3969656-.0014682 3.6132278-.0066071 1.1901373.0337694 2.381726-.0389083 3.5842001 3.4760471 0 6.9667765.0007257 10.4567718-.0007257.6342776 0 1.2766306.0616839 1.9395388-.2939059.8060612-.577652 1.0975059-1.4593695 1.0549271-2.4934827-.0205553-.4920202 0-.9854918-.0022024-1.4789633-.0036706-.6850547-.0139482-1.3606753-.1644423-2.0442785-.1725177-.7859261-.567473-1.4535641-1.1158589-1.9608238-.7598117-.703197-1.7743623-1.037016-2.7991905-1.1320818-1.6187295-.1494929-3.2616848-.0841805-4.81728.3809891-1.5401789.461541-3.1126589.8998599-4.5118871 1.8258447M3.0937186 15.941889c.442673.2256907.8214776.4150967 1.1966117.6117596.3751342.1981144.7458636.404937 1.1555012.6269992-.2951153.5762006-.5638023 1.1357103-.8625882 1.678529-.8684612 1.5841888-1.1386165 3.2975511-.9132424 5.0442953.2334495 1.8026226 1.2927812 3.0421071 3.0722824 3.6379014 1.4058353.4702494 2.8425035.5195965 4.2505412.1393331.78624-.2119025 1.5768847-.5645895 2.1245364-1.2351302.5094777-.6219194.8398306-1.3040712.9741742-2.1255562.0983717-.6008742.1380141-1.1894116.1380141-1.787383.0051388-7.1371953.0014682-14.2751163.0095435-21.4130373 0-.2975343-.1453553-.6502214.2217035-.883169.7715577 0 1.5570636-.0043541 2.3425694.007257.0653365.0014514.1284706.1081283.2114259.1836004v18.8564192c.0462494.0936144.0910306.1654581.1189271.243833.4265223 1.1727206 1.4124423 1.5072653 2.5202259 1.5558868 1.229647.0537013 2.4644329.0123368 3.6771953.0123368.5645364-.1480415.9191153-.4934716 1.1224658-1.0899916V9.8199389c.2488659-.0696666.51168-.2046455.7730259-.2031941.6555671.0036284 1.3265506-.1037742 2.0379106.09942v1.4666265c.5564612-.2119025 1.0424471-.3584926 1.4924612-.5762007 1.0519906-.5094368 2.1729882-.8113253 3.2932518-1.1059568.5483858-.144413 1.1283388-.1712637 1.6936094-.253267.3663247-.0529757.7297129-.132802 1.09824-.1596526.3795388-.0275764.7649506-.0333819 1.1437553-.0014514 1.3926211.1190138 2.8057976.2576212 4.0508611.9129224 1.5717459.8272906 2.7492706 2.0580667 3.2433318 3.8084393.19968.7053741.3876141 1.4172794.3744 2.1661951-.0044047.3026141.1637082.6110339.1446212.9107453-.080753 1.3272933-.0888283 2.672729-.5219577 3.9477724-.3046588.8976829-.767887 1.723522-1.6774588 2.1749034-.4022965.19884-.82368.3904231-1.2582776.4869403-.5278306.1175623-1.0798871.1792463-1.6231342.1806977-3.8739388.0145138-7.7486117.0050798-11.6232847.0116111-.5652705.0007257-1.0740141-.1204651-1.4961317-.4658952-.7348518.2460101-1.4675012.4658952-2.2508047.4637181-.9095718-.0021771-1.8213459-.0297534-2.7294494.009434-1.2942495.054427-2.4805836-.2133539-3.562673-1.0580611-.0638682.6952144-.0646023 1.316408-.1629741 1.9383273-.1637082 1.0290333-.5168188 1.9615494-1.0593318 2.8273018-.9499482 1.5137965-2.4233223 2.3120594-4.1139953 2.7140935-1.0284988.2452844-2.0870964.4375932-3.1589082.3548641-1.278833-.09942-2.5752847-.2104511-3.75648-.7293219-1.9564235-.8606725-3.2961882-2.2721463-3.8056659-4.403508-.2070212-.866478-.3729317-1.7206192-.3266823-2.6074166.0822211-1.560241.4595576-3.0580723 1.0688753-4.493494.2327153-.5457215.542513-1.0609639.836894-1.579109.1350777-.2373018.3200754-.4470272.5160848-.7155338" fill="#FAB717" mask="url(#d)"/>
      </g>
      <path d="M227.2105745 93.1558893h-2.4768096c-.1032004-.1673417-.2730053-.3442669-.3337544-.5528912-.329363-1.1463277-.6250578-2.3029761-.9463696-3.4522526-.2832522-1.0121595-.5884619-2.0169471-.8731779-3.0276322-.4171931-1.4758509-.8190159-2.956125-1.236209-4.4312387-.293499-1.0379611-.604564-2.0700246-.9002588-3.1079857-.4054824-1.4190874-.7970584-2.842598-1.2076642-4.2609482-.1090557-.3796519-.2634904-.7460345-.4457379-1.2539572-.1734645.5632118-.319848.9878322-.435491 1.4220361-.4647678 1.7567197-.9793059 3.5016443-1.4279715 5.2635242-.3710823 1.4581584-.8365819 2.8905152-1.2493835 4.3376158-.5218573 1.8297013-1.0268806 3.6638257-1.548006 5.4927898-.2803245.9826719-.569432 1.9631323-.8775693 2.9384324-.0739237.2344259-.2386052.4393642-.347661.6332447h-2.4292348c-.1756603-.6037572-.3710823-1.2229953-.5350319-1.8510797-.2876436-1.0991477-.6089555-2.1931351-.8204797-3.308501-.302282-1.5967497-.756803-3.1536914-1.1234937-4.734223-.4054824-1.7449246-.8373139-3.4839517-1.2691453-5.2215045-.4464698-1.7928418-.9112376-3.579049-1.3584393-5.3711537-.3776695-1.5171334-.7407007-3.0379528-1.1125149-4.5565606-.0739237-.2978241-.1610219-.591225-.2561712-.9384407.150775-.0530776.3037458-.1496492.4589124-.1533352.7897392-.0162181 1.5794784-.0073719 2.3904432-.0073719.1200346.1150014.2466563.2359003.3718142.3567992 1.5450783 6.4747245 3.0886928 12.9442887 4.6330392 19.4145901.0607491.0375966.1222302.0759304.1829794.113527.0417193-.1054179.0944174-.2086243.123694-.3169909.4318315-1.6196027.8534161-3.242154 1.2932987-4.8595451.3498566-1.2886051.7231347-2.5698383 1.0825063-3.8554946.3425375-1.2303672.6784877-2.462946 1.0202933-3.6940504.2510477-.9037928.5072189-1.8053741.7575348-2.7084297.3344864-1.2038284.6623855-2.4091312 1.0012634-3.6114853.0775833-.2712853.1924944-.5322499.2920352-.8035352h2.2528427c.4406145.1599698.4867253.6339819.5687001.9915182.2547073 1.1102055.6177385 2.1879748.9097737 3.2871225.3996271 1.5090244.8146244 3.0158372 1.2354771 4.5197012.2905713 1.0394355.6089555 2.0700247.9046503 3.1072486.4047505 1.4205618.791203 2.8462839 1.2010769 4.2638969.3461971 1.1979309.7136198 2.3899643 1.1322767 3.7869361.1924944-.6251356.3784015-1.0409098.4406145-1.4751137.1383324-.9635051.435491-1.8864648.6521387-2.8300658.2744691-1.1927706.5079509-2.3951246.7772966-3.5893696.293499-1.3040861.6031002-2.6044862.9148971-3.9048863.2715415-1.1330583.5679682-2.259482.8299947-3.3940147.3081374-1.331362.5840704-2.6693587.8929396-4.0007207.062213-.269811.2064008-.520455.3103331-.7733105h2.837645c.0161022.0184297.1112515.1223732.1785879.1968292-1.0729913 4.3847958-2.1152422 8.6951356-3.183842 12.9988407-1.067136 4.2978076-2.1606211 8.5882433-3.2526423 12.9214359M245.1113766 85.7971859c-.1840181-.3548113-.4106129-.3533267-.648754-.3510999-.778649.0059383-1.5565765-.0081651-2.3345039.0044537-1.0817377.0192994-2.1678052-.0868471-3.23944.178148-.9467911.2353036-1.7629654.6465284-2.092033 1.6627137-.3600982 1.109713-.2951506 2.1696931.5217453 3.0856702.5917445.6628587 1.3783316.8699556 2.1959492.9634833.4842202.0549289.9799865-.0066806 1.4685365.0163302.9352449.0452793 1.7954392-.2145198 2.5603771-.7311487.5903012-.3978637 1.1640046-.8655019 1.3285385-1.6359916.1075243-.5040101.284326-.9939169.248244-1.5328143-.0375253-.5604236-.0086597-1.1253009-.0086597-1.6597446m2.9305782 7.6046887c-.1125757.0987236-.1768017.2041278-.2424709.2048701-.8053497.0170725-1.6099778.0222685-2.4146059.0155879-.0678341-.0007423-.1349466-.102435-.2720581-.2137775v-1.7480763c-.4589628.411967-.8226691.7897891-1.2354469 1.0985788-.8804003.6591472-1.8589435 1.0184122-2.9659386 1.1015478-.4712306.0356296-.948956.1684983-1.4288463.133611-1.5320408-.1106002-2.9984124-.4765457-4.2122101-1.497927-.6639084-.5589391-1.1495718-1.3398207-1.3711152-2.1682085-.4055614-1.5127726-.3333974-3.0418754.2994805-4.5153071.2908207-.676962.7930818-1.1772607 1.3328682-1.5862586.6942173-.5255363 1.4952372-.8818322 2.3619263-1.0792794 2.1194553-.4847108 4.2648897-.3065629 6.4031077-.3407079.1731935-.0029691.346387-.0007423.5693736-.0007423.0548447-.0697746.188348-.1595908.1905129-.2531184.0173193-.6732507.0555662-1.3516973-.0043298-2.0197519-.0714424-.7838508-.348552-1.5120304-.9597807-2.1823119-.4214375-.2041278-.9078225-.5663618-1.5233811-.6079297-.2208217-.0141034-.4373135-.1135693-.6574136-.1195075-.6335995-.0178148-1.269364-.0141034-1.9044068-.0081652-1.2982295.0118766-2.484605.3963791-3.5569613 1.1527654-.1371116.0964968-.294429.1640446-.5123641.2835521-.4106129-.7118493-.8241124-1.4281523-1.2340037-2.140744.5664871-.8951932 1.4605985-1.2344165 2.3207928-1.5788358.8060714-.3214085 1.6467815-.5144021 2.5322332-.5893726.6480324-.054929 1.3040027-.1952204 1.9462619-.1165385 1.3285384.1647869 2.6736746.1974473 3.9278841.8417489 1.2635909.6494976 1.9426537 1.6590024 2.2868758 3.0233184.2157702.8536254.3319542 1.6990857.3290676 2.5794332-.0129895 4.0966596-.0050515 8.1940614-.0050515 12.3315465M262.1082698 44.2641985v-.5506472c-.0007522-1.5390984-.009027-3.0774826.0015045-4.616581.0052658-.7056284-.1632385-1.3848315-.388914-2.0383234-.2617835-.7591933-.7620307-1.3848314-1.5436199-1.7605-.9478368-.4549446-1.9520925-.3906667-2.9413031-.215688-1.0042557.1778355-1.6113226.8770361-2.1138265 1.6590838-.5807382.9027472-.6514498 1.9383355-.783846 2.949641-.0804909.6134967.0707116 1.2234225.1534592 1.8354909.1354053.9884511.6198552 1.7219333 1.5142822 2.2283002.6191029.3513858 1.2720572.5327923 2.0070068.5177941 1.3427688-.0285679 2.6870421-.0085704 4.0952568-.0085704m-.0015045 2.5454045c-1.2449761 0-2.3868938.021426-3.5258025-.0064278-.7966342-.0199975-1.618845-.0014283-2.3808757-.1828348-2.2958714-.5456479-3.7627617-1.5355274-4.3976619-3.930236-.3001484-1.1305767-.4400671-2.2718664-.3294862-3.4181554.1399188-1.4341112.4227653-2.8439396 1.2998905-4.0837887.8387604-1.1862842 1.9513402-2.011898 3.3934062-2.4025647.8169451-.2214017 1.6579622-.4049507 2.5147766-.337816 1.2886067.1014162 2.5764612.3256746 3.6446582 1.0405876.9478368.6349227 1.7316828 1.4662501 2.1055518 2.5568316.3370086.9813092.5671975 1.9747597.556666 3.0260603-.0293378 3.1096216.0300901 6.2206715-.0263288 9.3310072-.0315945 1.7647853-.7590217 3.2574607-2.4034433 4.2244859-.6725128.3956661-1.43003.582072-2.2101147.7099136-1.9618718.3199611-3.9365318.0664205-5.9803989.1814065-.0699594-.1749787-.1903197-.3428154-.1978422-.5156515-.024072-.5977844-.009027-1.1955688-.009027-1.7533581.1429278-.2899647.3723645-.3006777.6258732-.2999635 1.5029984.0049994 3.0059967 0 4.5082429 0 .5062652.0007142.9884583-.1085582 1.4270209-.334245.9809359-.5049385 1.3006428-1.3812605 1.3781247-2.3625696.036108-.4499452.0067702-.9048899.0067702-1.4426816M266.0527212 76.0549872c-.5769161.7304479-1.1264657 1.4263922-1.6567847 2.0981107-.7847538-.3604522-1.5066386-.7025514-2.2388783-1.0255636-1.1693646-.5168194-2.4067757-.5689418-3.6656362-.5447159-.5680405.0102776-1.0769101.1622402-1.5835608.3744004-.5613838.2341838-.9615269.6342784-1.2100446 1.1848673-.0584312.129939-.1161228.2606121-.1826901.4096381v1.2039544c.024408.0601977.0495556.111586.0673069.1651766.3631613 1.1305425 1.3187711 1.4043687 2.3328121 1.6378184.5458514.1255343 1.1020577.0932331 1.6360749.1916049.54881.1013084 1.1005784.0822213 1.6397731.1659108 1.2425886.1945414 2.4652069.4279911 3.5435963 1.1914743.9911123.7018173 1.4711361 1.6671832 1.7729076 2.7595515.1213003.4360664.1960035.9088387.1693766 1.3581192-.0813599 1.3331592-.4667103 2.5921725-1.3261674 3.6375572-.6079808.7414597-1.3868176 1.2957192-2.3291139 1.6011125-.7928898.2569415-1.5843004.4529511-2.4215684.5586642-.6094601.0778165-1.2181805.1717837-1.8180254.118193-2.3224571-.2055531-4.5221347-.7781656-6.3808401-2.2787038-.2462988-.1996802-.5073903-.3824757-.7529495-.582156-.0857978-.0704753-.1457083-.1695813-.2130152-.2503344.7973277-1.0174882 1.570987-1.7391267 2.1427256-1.9850564.9962898.8508433 2.1508616 1.4528205 3.4430058 1.8235503.6168565.1776567 1.2181806.3413652 1.8646225.3178734.4423023-.0154165.8868236-.0095436 1.3291259-.0014683.9016164.0161506 1.6900684-.3186074 2.4045568-.8141374.8476229-.5880289 1.0880046-2.0041435.8002862-2.7353255-.0510349-.1314073-.0747032-.2745604-.1227796-.4544194-.111685-.1167248-.2670086-.2562074-.394226-.4155111-.489639-.6159254-1.2226184-.7113608-1.9141781-.8780057-.4171547-.0998401-.8505814-.1416849-1.2803099-.179859-.4023621-.0352377-.7965881-.0682731-1.1996897-.1438873-.5317983-.1005742-1.0887443-.0917648-1.6331164-.2040849-1.2381507-.2562074-2.383847-.6900714-3.2543986-1.6378184-.6789859-.7385232-1.0902235-1.610656-1.1116729-2.6325489-.008136-.439737.0022189-.8802081-.002219-1.3206792-.0133134-1.1555025.4733671-2.0915036 1.2211391-2.9489541.8979182-1.0299682 2.0857737-1.56147 3.3579477-1.8051974.9289829-.1776566 1.9045628-.3369603 2.8720067-.2084896 1.5635906.2077555 3.1116489.4977323 4.5206555 1.2487356.5258813.2796991 1.0088636.6379489 1.5739455 1.0006035" fill="#FAB717"/>
      <g transform="translate(269.223529 67.012048)">
        <mask id="f" fill="#fff">
          <use xlink:href="#e"/>
        </mask>
        <path d="M4.5678682 23.6760195c.5150118.0904461 1.1301647-.1495278 1.6662589.1611983.1611294 1.4507848.1152 2.2874113-.167153 2.7863237-1.125647.0182351-2.2550588.026988-3.3882353-.3092673-1.343247-.3989841-1.9862588-1.2961511-2.343153-2.5281146-.1408-.4843244-.164894-.9569782-.164894-1.4427614C.16768 15.2616138.16768 8.1805588.16768 1.0987743c0-.0860696.0082824-.1721393.0165647-.3435493C.3408565.702708.5215624.592568.70528.5881915 1.5146918.5684975 2.3248565.5794386 3.200527.5794386c.0105412.3289613.0301177.6396874.0301177.9504136.0022588 6.4989905-.0030118 12.9972517.0090353 19.4962422.000753.5375709.064753 1.0860827.1867294 1.6112537.1167059.4996418.4841412.8453794 1.1414588 1.0386714" fill="#FAB717" mask="url(#f)"/>
      </g>
    </g>
  </g>
</svg>
