<svg xmlns="http://www.w3.org/2000/svg" xmlns:xlink="http://www.w3.org/1999/xlink" version="1.1" id="Layer_1" x="0px" y="0px" viewBox="0 0 324 59" style="enable-background:new 0 0 324 59;" xml:space="preserve">
<defs>
<style type="text/css">
    @font-face {
    font-family: din;
    src: url('../fonts/DINNext.woff') format('woff');
    font-weight: normal;
    font-style: normal;
	}
	.st0{fill:#ff6c00;
	font-family: 'din', serif;}
	.st1{filter:url(#Adobe_OpacityMaskFilter);}
	.st2{fill:#FFFFFF;}
	.st3{mask:url(#mask-2_1_);fill:#33B4E4;}
	.st4{fill:#33B4E4;}
	.st5{fill:#404042;}
	.st6{filter:url(#Adobe_OpacityMaskFilter_1_);}
	.st7{mask:url(#mask-4_1_);fill:#404042;}
	.st8{fill:#884443;}
	.st9{fill:none;stroke:#ACACAC;stroke-width:0.5;stroke-linecap:square;}
</style>
</defs>
<title>Logo</title>
<desc>Created with Sketch.</desc>
<g id="Table" transform="translate(-1035.000000, -33.000000)">
	<g xmlns="http://www.w3.org/2000/svg" id="Logo" transform="translate(1035.000000, 33.000000)">
		<g id="Page-1" transform="translate(84.000000, 0.000000)">
			<polygon id="Fill-1" class="st0" points="64,39 43,47.5 43,55 64,46.5    "/>
			<polygon id="Fill-2" class="st0" points="71,21 43,32.4 43,40 71,28.6    "/>
			<polygon id="Fill-3" class="st0" points="86,0 43,17.6 43,25 86,7.4 86,0    "/>
			<g id="Group-112" transform="translate(0.000000, 9.000000)">
				<g id="Group-6" transform="translate(21.818182, 30.163934)">
					<g id="Clip-5">
					</g>
					<defs>
						<filter id="Adobe_OpacityMaskFilter" filterUnits="userSpaceOnUse" x="0.4" y="0.1" width="20.7" height="15.7">
							<feColorMatrix type="matrix" values="1 0 0 0 0  0 1 0 0 0  0 0 1 0 0  0 0 0 1 0"/>
						</filter>
					</defs>
					<mask maskUnits="userSpaceOnUse" x="0.4" y="0.1" width="20.7" height="15.7" id="mask-2_1_">
						<g class="st1">
							<polygon id="path-1_1_" class="st2" points="0.4,0.1 21.1,0.1 21.1,15.8 0.4,15.8        "/>
						</g>
					</mask>
					<path id="Fill-4" class="st3" d="M21.1,0.1c0,0-3.6,3.6-10.6,5C4.6,6.2,0.4,8.4,0.4,8.4v7.4c0,0,4.6-2.9,11-4.1       c6.1-1.1,9.7-4.2,9.7-4.2V0.1z"/>
				</g>
				<path id="Fill-7" class="st4" d="M42.9,15.5c0,0-4.7,4.9-14.1,6.2c-7.8,1.1-13.5,4.9-13.5,4.9V34c0,0,6.1-4.4,14.7-5.6      c8.1-1.1,12.9-5.5,12.9-5.5V15.5z"/>
				<path id="Fill-9" class="st4" d="M42.9,0.7c0,0-7.4,7.8-21.9,9.1C8.8,10.9,0,18.3,0,18.3v7.4c0,0,9.5-8,22.8-9.2      c12.5-1.1,20.1-8.4,20.1-8.4V0.7z"/>
				<path id="Fill-11" class="st5" d="M85.8,16.1c-0.7,0-1.2,0.2-1.5,0.7c-0.3,0.4-0.5,1.1-0.5,1.9c0,0.9,0.2,1.6,0.5,2      c0.3,0.4,0.8,0.6,1.5,0.6c0.7,0,1.2-0.2,1.5-0.6c0.3-0.4,0.5-1.1,0.5-1.9C87.8,16.9,87.1,16.1,85.8,16.1 M85.8,23.3      c-0.7,0-1.3-0.1-1.9-0.3c-0.5-0.2-1-0.5-1.4-1c-0.1,0.2-0.2,0.3-0.4,0.4c-0.2,0.1-0.3,0.2-0.4,0.3c-0.1,0.1-0.3,0.2-0.4,0.4      c-0.1,0.2-0.1,0.4-0.1,0.7v3.5h-2.4v-4c0-0.5,0.1-0.8,0.2-1.1c0.1-0.3,0.3-0.5,0.5-0.7c0.2-0.2,0.4-0.4,0.6-0.5      c0.2-0.1,0.4-0.3,0.6-0.4c0.2-0.1,0.4-0.3,0.5-0.4c0.1-0.2,0.2-0.4,0.3-0.6c0-0.1,0-0.3,0-0.4c0-0.1,0-0.3,0-0.5      c0-0.9,0.1-1.6,0.3-2.2c0.2-0.6,0.5-1.1,0.9-1.5c0.4-0.4,0.9-0.6,1.4-0.8c0.5-0.2,1.1-0.3,1.7-0.3c0.6,0,1.2,0.1,1.7,0.3      c0.5,0.2,1,0.4,1.4,0.8c0.4,0.4,0.7,0.9,0.9,1.5c0.2,0.6,0.3,1.3,0.3,2.2c0,0.8-0.1,1.5-0.3,2.1c-0.2,0.6-0.5,1.1-0.9,1.4      c-0.4,0.4-0.9,0.6-1.4,0.8C87,23.2,86.4,23.3,85.8,23.3"/>
				<path id="Fill-13" class="st5" d="M92.6,8.9c0-0.1,0.1-0.2,0.2-0.2h2C95,8.7,95,8.8,95,8.9v11c0,0.4,0.1,0.7,0.2,0.9      c0.2,0.2,0.4,0.2,0.8,0.2h0.7c0.3,0,0.5,0.1,0.6,0.2c0.1,0.2,0.2,0.4,0.2,0.8c0,0.4-0.1,0.7-0.2,0.8c-0.1,0.1-0.3,0.2-0.6,0.2      h-1.7c-0.9,0-1.5-0.2-1.9-0.6c-0.4-0.4-0.6-1.1-0.6-2V8.9z"/>
				<path id="Fill-15" class="st5" d="M96.8,23.2c-0.3,0-0.5-0.1-0.6-0.2c-0.1-0.1-0.2-0.4-0.2-0.8c0-0.4,0-0.7,0.1-0.9      c0.1-0.2,0.3-0.2,0.6-0.2h2.5c0.3,0,0.5,0.1,0.6,0.2c0.1,0.2,0.2,0.4,0.2,0.8c0,0.4-0.1,0.7-0.2,0.9c-0.1,0.1-0.3,0.2-0.6,0.2      H96.8z"/>
				<path id="Fill-17" class="st5" d="M99.3,23.2c-0.3,0-0.5-0.1-0.6-0.2c-0.1-0.1-0.2-0.4-0.2-0.8c0-0.4,0-0.7,0.1-0.9      c0.1-0.2,0.3-0.2,0.6-0.2h2.5c0.3,0,0.5,0.1,0.6,0.2c0.1,0.2,0.2,0.4,0.2,0.8c0,0.4-0.1,0.7-0.2,0.9c-0.1,0.1-0.3,0.2-0.6,0.2      H99.3z"/>
				<path id="Fill-19" class="st5" d="M101.9,23.2c-0.3,0-0.5-0.1-0.6-0.2c-0.1-0.1-0.2-0.4-0.2-0.8c0-0.4,0-0.7,0.1-0.9      c0.1-0.2,0.3-0.2,0.6-0.2h2.5c0.3,0,0.5,0.1,0.6,0.2c0.1,0.2,0.2,0.4,0.2,0.8c0,0.4-0.1,0.7-0.2,0.9c-0.1,0.1-0.3,0.2-0.6,0.2      H101.9z"/>
				<path id="Fill-21" class="st5" d="M104.4,23.2c-0.3,0-0.5-0.1-0.6-0.2c-0.1-0.1-0.2-0.4-0.2-0.8c0-0.4,0-0.7,0.1-0.9      c0.1-0.2,0.3-0.2,0.6-0.2h2.5c0.3,0,0.5,0.1,0.6,0.2c0.1,0.2,0.2,0.4,0.2,0.8c0,0.4-0.1,0.7-0.2,0.9c-0.1,0.1-0.3,0.2-0.6,0.2      H104.4z"/>
				<path id="Fill-23" class="st5" d="M113.2,20.4c0.2-0.1,0.5-0.3,0.7-0.5c0.2-0.2,0.4-0.4,0.6-0.6c0.2-0.2,0.3-0.5,0.4-0.8      c0.1-0.3,0.2-0.5,0.2-0.8c0-0.6-0.2-1-0.6-1.2c-0.4-0.2-1-0.3-1.6-0.3c-0.6,0-1.1,0.1-1.5,0.2c-0.4,0.1-0.7,0.2-0.9,0.3      c0.7,0.4,1.2,0.9,1.7,1.6C112.7,18.8,113,19.5,113.2,20.4 M112.9,13.9c1.6,0,2.8,0.3,3.6,0.9c0.7,0.6,1.1,1.4,1.1,2.4      c0,0.4-0.1,0.8-0.2,1.2c-0.1,0.4-0.3,0.7-0.5,1c-0.2,0.3-0.5,0.6-0.7,0.9c-0.3,0.3-0.5,0.5-0.8,0.6c0.1,0,0.2,0,0.4,0h0.4h2.7      c0.3,0,0.5,0.1,0.7,0.3c0.1,0.2,0.2,0.5,0.2,0.8c0,0.4-0.1,0.7-0.2,0.8c-0.1,0.1-0.3,0.2-0.6,0.2h-3.2c-0.5,0-1,0-1.5-0.1      c-0.5-0.1-0.9-0.3-1.3-0.5c-0.5,0.3-1,0.4-1.5,0.5c-0.5,0.1-1,0.1-1.4,0.1H107c-0.3,0-0.5-0.1-0.6-0.2c-0.1-0.1-0.2-0.4-0.2-0.8      c0-0.4,0-0.6,0.1-0.8c0.1-0.2,0.3-0.3,0.7-0.3h2.5c0.2,0,0.5,0,0.8,0c0.3,0,0.6-0.1,1-0.2c-0.1-0.5-0.3-0.9-0.5-1.2      c-0.2-0.3-0.4-0.6-0.6-0.9c-0.2-0.3-0.5-0.5-0.8-0.7c-0.3-0.2-0.6-0.4-0.8-0.6c-0.2-0.1-0.2-0.2-0.3-0.3c0-0.1,0-0.2,0-0.3v-1.3      c0-0.2,0.1-0.3,0.4-0.5c0.3-0.2,0.6-0.4,1.1-0.5c0.4-0.1,0.9-0.3,1.5-0.4C111.7,14,112.3,13.9,112.9,13.9"/>
				<path id="Fill-25" class="st5" d="M118.8,23.2c-0.3,0-0.5-0.1-0.6-0.2c-0.1-0.1-0.2-0.4-0.2-0.8c0-0.4,0.1-0.7,0.2-0.8      c0.1-0.2,0.3-0.2,0.6-0.2h1c0.4,0,0.6-0.1,0.8-0.2c0.2-0.2,0.2-0.5,0.2-0.9v-11c0-0.1,0.1-0.2,0.2-0.2h2c0.1,0,0.2,0.1,0.2,0.2      v11.6c0,0.9-0.2,1.6-0.6,2c-0.4,0.4-1,0.6-1.9,0.6H118.8z"/>
				<path id="Fill-27" class="st5" d="M128.4,22.9c0,0.1-0.1,0.2-0.2,0.2h-2c-0.1,0-0.2-0.1-0.2-0.2v-14c0-0.1,0.1-0.2,0.2-0.2h2      c0.1,0,0.2,0.1,0.2,0.2V22.9z"/>
				<path id="Fill-29" class="st5" d="M135.7,22.7c0-0.8,0.1-1.5,0.4-2.3c0.2-0.8,0.5-1.4,0.9-2c0.1-0.1,0.2-0.1,0.3,0L139,19      c0.1,0,0.1,0.1,0.1,0.1c0,0,0,0.1,0,0.2c-0.2,0.4-0.4,0.9-0.6,1.4c-0.2,0.5-0.3,1.1-0.3,1.8c0,0.6,0.1,1,0.3,1.4      c0.2,0.4,0.4,0.7,0.7,0.9c0.3,0.2,0.6,0.4,0.9,0.5c0.3,0.1,0.7,0.1,1,0.1c0.8,0,1.5-0.2,2-0.6c0.5-0.4,0.7-1.1,0.7-2.1V8.9      c0-0.1,0.1-0.2,0.2-0.2h2c0.1,0,0.2,0.1,0.2,0.2v10.8c0,0.4,0.2,0.8,0.5,1c0.3,0.2,0.7,0.3,1.3,0.3h0.3c0.3,0,0.5,0.1,0.6,0.2      c0.1,0.2,0.2,0.4,0.2,0.8c0,0.4-0.1,0.7-0.2,0.9c-0.1,0.2-0.3,0.2-0.6,0.2c-0.5,0-0.9,0-1.2-0.1c-0.3-0.1-0.6-0.3-0.9-0.6v0.2      c0,0.8-0.1,1.5-0.4,2.1c-0.2,0.6-0.6,1.1-1.1,1.5c-0.5,0.4-1,0.7-1.6,0.9c-0.6,0.2-1.3,0.3-2.1,0.3c-0.7,0-1.4-0.1-2.1-0.3      c-0.6-0.2-1.2-0.5-1.6-0.9s-0.8-0.9-1.1-1.5C135.9,24.2,135.7,23.5,135.7,22.7"/>
				<path id="Fill-31" class="st5" d="M148.2,23.2c-0.3,0-0.5-0.1-0.6-0.2c-0.1-0.1-0.2-0.4-0.2-0.8c0-0.4,0-0.7,0.1-0.9      c0.1-0.2,0.3-0.2,0.6-0.2h2.5c0.3,0,0.5,0.1,0.6,0.2c0.1,0.2,0.2,0.4,0.2,0.8c0,0.4-0.1,0.7-0.2,0.9c-0.1,0.1-0.3,0.2-0.6,0.2      H148.2z"/>
				<path id="Fill-33" class="st5" d="M150.8,23.2c-0.3,0-0.5-0.1-0.6-0.2c-0.1-0.1-0.2-0.4-0.2-0.8c0-0.4,0-0.7,0.1-0.9      c0.1-0.2,0.3-0.2,0.6-0.2h2.5c0.3,0,0.5,0.1,0.6,0.2c0.1,0.2,0.2,0.4,0.2,0.8c0,0.4-0.1,0.7-0.2,0.9c-0.1,0.1-0.3,0.2-0.6,0.2      H150.8z"/>
				<path id="Fill-35" class="st5" d="M153.3,23.2c-0.3,0-0.5-0.1-0.6-0.2c-0.1-0.1-0.2-0.4-0.2-0.8c0-0.4,0-0.7,0.1-0.9      c0.1-0.2,0.3-0.2,0.6-0.2h2.5c0.3,0,0.5,0.1,0.6,0.2c0.1,0.2,0.2,0.4,0.2,0.8c0,0.4-0.1,0.7-0.2,0.9c-0.1,0.1-0.3,0.2-0.6,0.2      H153.3z"/>
				<path id="Fill-37" class="st5" d="M155.9,23.2c-0.3,0-0.5-0.1-0.6-0.2c-0.1-0.1-0.2-0.4-0.2-0.8c0-0.4,0-0.7,0.1-0.9      c0.1-0.2,0.3-0.2,0.6-0.2h2.5c0.3,0,0.5,0.1,0.6,0.2c0.1,0.2,0.2,0.4,0.2,0.8c0,0.4-0.1,0.7-0.2,0.9c-0.1,0.1-0.3,0.2-0.6,0.2      H155.9z"/>
				<path id="Fill-39" class="st5" d="M164.7,12.2c-0.1,0-0.2-0.1-0.2-0.2v-1.8c0-0.1,0.1-0.2,0.2-0.2h1.8c0.1,0,0.2,0.1,0.2,0.2V12      c0,0.1-0.1,0.2-0.2,0.2H164.7z M164.1,15.8c-0.6,0-1,0.2-1.4,0.5c-0.4,0.3-0.6,0.9-0.6,1.5c0,0.7,0.2,1.3,0.6,1.8      c0.4,0.4,0.9,0.8,1.4,1c0.6-0.2,1-0.6,1.4-1c0.4-0.4,0.6-1,0.6-1.8c0-0.7-0.2-1.2-0.6-1.5C165.1,16,164.7,15.8,164.1,15.8z       M161.9,12.2c-0.1,0-0.2-0.1-0.2-0.2v-1.8c0-0.1,0.1-0.2,0.2-0.2h1.8c0.1,0,0.2,0.1,0.2,0.2V12c0,0.1-0.1,0.2-0.2,0.2H161.9z       M164.1,13.9c1.4,0,2.5,0.3,3.3,1c0.8,0.7,1.1,1.6,1.1,2.8c0,0.7-0.2,1.3-0.5,1.9c-0.3,0.6-0.7,1-1.3,1.4h3      c0.3,0,0.5,0.1,0.6,0.2c0.1,0.1,0.2,0.4,0.2,0.8c0,0.4-0.1,0.7-0.2,0.9c-0.1,0.2-0.3,0.2-0.6,0.2h-2.9c-0.5,0-1,0-1.4-0.1      c-0.5,0-0.9-0.2-1.3-0.4c-0.5,0.3-1,0.4-1.5,0.4c-0.5,0-1,0.1-1.4,0.1h-2.8c-0.3,0-0.5-0.1-0.6-0.3c-0.1-0.2-0.2-0.4-0.2-0.8      c0-0.4,0.1-0.7,0.2-0.8c0.1-0.1,0.3-0.2,0.6-0.2h3c-0.5-0.4-0.9-0.8-1.3-1.4c-0.3-0.6-0.5-1.2-0.5-1.9c0-1.1,0.4-2.1,1.1-2.8      C161.6,14.3,162.7,13.9,164.1,13.9z"/>
				<path id="Fill-41" class="st5" d="M172.2,12.2c-0.1,0-0.2-0.1-0.2-0.2v-1.8c0-0.1,0.1-0.2,0.2-0.2h2c0.1,0,0.2,0.1,0.2,0.2V12      c0,0.1-0.1,0.2-0.2,0.2H172.2z M174.4,19.7c0,0.4,0.2,0.8,0.5,1c0.3,0.2,0.7,0.3,1.3,0.3h0.4c0.3,0,0.5,0.1,0.6,0.2      c0.1,0.2,0.2,0.4,0.2,0.8c0,0.4-0.1,0.7-0.2,0.9c-0.1,0.2-0.3,0.2-0.6,0.2c-0.6,0-1-0.1-1.4-0.2c-0.4-0.1-0.7-0.4-1-0.9      c-0.2,0.4-0.5,0.7-0.9,0.9c-0.4,0.2-0.9,0.2-1.6,0.2h-1.7c-0.3,0-0.5,0-0.6-0.1c-0.1-0.1-0.2-0.3-0.2-0.6c0-0.4,0.1-0.7,0.2-0.9      c0.1-0.3,0.4-0.4,0.7-0.4h1c0.2,0,0.4,0,0.6-0.1c0.1-0.1,0.2-0.2,0.3-0.3c0.1-0.2,0.1-0.4,0.1-0.6c0-0.3,0-0.6,0-0.9v-4.5      c0-0.1,0.1-0.2,0.2-0.2h2c0.1,0,0.2,0.1,0.2,0.2V19.7z"/>
				<path id="Fill-43" class="st5" d="M176.4,23.2c-0.3,0-0.5-0.1-0.6-0.2c-0.1-0.1-0.2-0.4-0.2-0.8c0-0.4,0.1-0.7,0.2-0.8      c0.1-0.2,0.3-0.2,0.6-0.2h1c0.4,0,0.6-0.1,0.8-0.2c0.2-0.2,0.2-0.5,0.2-0.9v-11c0-0.1,0.1-0.2,0.2-0.2h2c0.1,0,0.2,0.1,0.2,0.2      v11.6c0,0.9-0.2,1.6-0.6,2c-0.4,0.4-1,0.6-1.9,0.6H176.4z"/>
				<path id="Fill-45" class="st5" d="M186,22.9c0,0.1-0.1,0.2-0.2,0.2h-2c-0.1,0-0.2-0.1-0.2-0.2v-14c0-0.1,0.1-0.2,0.2-0.2h2      c0.1,0,0.2,0.1,0.2,0.2V22.9z"/>
				<path id="Fill-47" class="st5" d="M198.2,11.4c-0.1,0-0.2-0.1-0.2-0.2V9.3c0-0.1,0.1-0.2,0.2-0.2h1.8c0.1,0,0.2,0.1,0.2,0.2v1.8      c0,0.1-0.1,0.2-0.2,0.2H198.2z M197.5,20.2c0.7,0,1.2-0.2,1.5-0.6c0.3-0.4,0.5-1,0.5-1.7v-1.8h-1.9c-0.6,0-1.1,0.2-1.5,0.5      c-0.4,0.3-0.6,0.9-0.6,1.7c0,0.7,0.2,1.1,0.5,1.4C196.5,20,196.9,20.2,197.5,20.2z M195.5,11.4c-0.1,0-0.2-0.1-0.2-0.2V9.3      c0-0.1,0.1-0.2,0.2-0.2h1.8c0.1,0,0.2,0.1,0.2,0.2v1.8c0,0.1-0.1,0.2-0.2,0.2H195.5z M199.5,13.9V13c0-0.1,0.1-0.2,0.2-0.2h2      c0.1,0,0.2,0.1,0.2,0.2v6.9c0,0.4,0.1,0.7,0.2,0.9c0.2,0.2,0.4,0.2,0.8,0.2h0.8c0.6,0,0.8,0.4,0.8,1.1c0,0.4-0.1,0.7-0.2,0.8      c-0.1,0.1-0.4,0.2-0.6,0.2H202c-0.7,0-1.2-0.1-1.6-0.4c-0.4-0.2-0.6-0.7-0.8-1.3c-0.3,0.3-0.7,0.4-1.1,0.6      c-0.4,0.1-0.8,0.2-1.3,0.2c-0.6,0-1.1-0.1-1.6-0.2c-0.5-0.2-0.9-0.4-1.3-0.7c-0.4-0.3-0.6-0.7-0.9-1.2c-0.2-0.5-0.3-1.1-0.3-1.8      c0-0.8,0.1-1.5,0.4-2.1c0.2-0.6,0.5-1,0.9-1.3c0.4-0.3,0.8-0.6,1.3-0.7c0.5-0.1,1-0.2,1.5-0.2H199.5z"/>
				<path id="Fill-49" class="st5" d="M204,23.2c-0.3,0-0.5-0.1-0.6-0.2c-0.1-0.1-0.2-0.4-0.2-0.8c0-0.4,0-0.7,0.1-0.9      c0.1-0.2,0.3-0.2,0.6-0.2h2.5c0.3,0,0.5,0.1,0.6,0.2c0.1,0.2,0.2,0.4,0.2,0.8c0,0.4-0.1,0.7-0.2,0.9c-0.1,0.1-0.3,0.2-0.6,0.2      H204z"/>
				<path id="Fill-51" class="st5" d="M206.5,23.2c-0.3,0-0.5-0.1-0.6-0.2c-0.1-0.1-0.2-0.4-0.2-0.8c0-0.4,0-0.7,0.1-0.9      c0.1-0.2,0.3-0.2,0.6-0.2h2.5c0.3,0,0.5,0.1,0.6,0.2c0.1,0.2,0.2,0.4,0.2,0.8c0,0.4-0.1,0.7-0.2,0.9c-0.1,0.1-0.3,0.2-0.6,0.2      H206.5z"/>
				<path id="Fill-53" class="st5" d="M209,23.2c-0.3,0-0.5-0.1-0.6-0.2c-0.1-0.1-0.2-0.4-0.2-0.8c0-0.4,0-0.7,0.1-0.9      c0.1-0.2,0.3-0.2,0.6-0.2h2.5c0.3,0,0.5,0.1,0.6,0.2c0.1,0.2,0.2,0.4,0.2,0.8c0,0.4-0.1,0.7-0.2,0.9c-0.1,0.1-0.3,0.2-0.6,0.2      H209z"/>
				<path id="Fill-55" class="st5" d="M211.6,23.2c-0.3,0-0.5-0.1-0.6-0.2c-0.1-0.1-0.2-0.4-0.2-0.8c0-0.4,0-0.7,0.1-0.9      c0.1-0.2,0.3-0.2,0.6-0.2h2.5c0.3,0,0.5,0.1,0.6,0.2c0.1,0.2,0.2,0.4,0.2,0.8c0,0.4-0.1,0.7-0.2,0.9c-0.1,0.1-0.3,0.2-0.6,0.2      H211.6z"/>
				<path id="Fill-57" class="st5" d="M215.8,11.2c-0.1-0.1-0.2-0.3-0.2-0.5c-0.1-0.2-0.1-0.4-0.1-0.6c0-0.2,0-0.5,0.1-0.7      c0.1-0.2,0.2-0.5,0.4-0.7c0.2-0.2,0.4-0.4,0.7-0.5c0.3-0.1,0.7-0.2,1.1-0.2c0.4,0,0.8,0.1,1.2,0.2c0.4,0.2,0.6,0.4,0.8,0.6      c0,0.1,0,0.2,0,0.2l-0.6,0.6c0,0-0.1,0-0.2,0c-0.1-0.1-0.3-0.3-0.5-0.3c-0.2-0.1-0.4-0.1-0.6-0.1c-0.3,0-0.6,0.1-0.8,0.3      c-0.2,0.2-0.3,0.4-0.3,0.7c0,0.3,0.1,0.5,0.2,0.7c0.1,0.2,0.3,0.3,0.4,0.4h2.3c0.1,0,0.1,0,0.1,0.1v0.8c0,0.1,0,0.1-0.1,0.1      h-4.7c-0.1,0-0.1,0-0.1-0.1v-0.8c0-0.1,0-0.1,0.1-0.1H215.8z M218.7,19.7c0,0.4,0.2,0.8,0.5,1c0.3,0.2,0.7,0.3,1.3,0.3h0.4      c0.3,0,0.5,0.1,0.6,0.2c0.1,0.2,0.2,0.4,0.2,0.8c0,0.4-0.1,0.7-0.2,0.9c-0.1,0.2-0.3,0.2-0.6,0.2c-0.6,0-1-0.1-1.4-0.2      c-0.4-0.1-0.7-0.4-1-0.9c-0.2,0.4-0.5,0.7-0.9,0.9c-0.4,0.2-0.9,0.2-1.6,0.2h-1.7c-0.3,0-0.5,0-0.6-0.1      c-0.1-0.1-0.2-0.3-0.2-0.6c0-0.4,0.1-0.7,0.2-0.9c0.1-0.3,0.4-0.4,0.7-0.4h1c0.2,0,0.4,0,0.6-0.1c0.1-0.1,0.2-0.2,0.3-0.3      c0.1-0.2,0.1-0.4,0.1-0.6c0-0.3,0-0.6,0-0.9v-4.5c0-0.1,0.1-0.2,0.2-0.2h2c0.1,0,0.2,0.1,0.2,0.2V19.7z"/>
				<path id="Fill-59" class="st5" d="M224.8,27.2c-0.1,0-0.2-0.1-0.2-0.2v-1.8c0-0.1,0.1-0.2,0.2-0.2h1.8c0.1,0,0.2,0.1,0.2,0.2V27      c0,0.1-0.1,0.2-0.2,0.2H224.8z M222,27.2c-0.1,0-0.2-0.1-0.2-0.2v-1.8c0-0.1,0.1-0.2,0.2-0.2h1.8c0.1,0,0.2,0.1,0.2,0.2V27      c0,0.1-0.1,0.2-0.2,0.2H222z M225.3,22.1c-0.2,0.4-0.5,0.7-0.9,0.9c-0.4,0.2-0.9,0.2-1.6,0.2h-2c-0.3,0-0.5-0.1-0.6-0.2      c-0.1-0.1-0.2-0.4-0.2-0.8c0-0.4,0.1-0.7,0.2-0.9c0.1-0.2,0.3-0.2,0.6-0.2h1.4c0.3,0,0.4,0,0.6-0.1c0.1-0.1,0.2-0.2,0.3-0.4      c0.1-0.2,0.1-0.4,0.1-0.6c0-0.3,0-0.6,0-1v-4.4c0-0.1,0-0.1,0.1-0.2c0.1,0,0.2,0,0.2,0h1.8c0.1,0,0.2,0.1,0.2,0.2v5.2      c0,0.4,0.2,0.8,0.5,1c0.3,0.2,0.7,0.3,1.3,0.3h0.4c0.3,0,0.5,0.1,0.6,0.2c0.1,0.2,0.2,0.4,0.2,0.8c0,0.4-0.1,0.7-0.2,0.9      c-0.1,0.2-0.3,0.2-0.6,0.2c-0.6,0-1-0.1-1.4-0.2C225.9,22.8,225.6,22.5,225.3,22.1z"/>
				<g id="Group-63" transform="translate(226.457680, 12.819672)">
					<g id="Clip-62">
					</g>
					<defs>
						<filter id="Adobe_OpacityMaskFilter_1_" filterUnits="userSpaceOnUse" x="0.4" y="0.6" width="13" height="9.8">
							<feColorMatrix type="matrix" values="1 0 0 0 0  0 1 0 0 0  0 0 1 0 0  0 0 0 1 0"/>
						</filter>
					</defs>
					<mask maskUnits="userSpaceOnUse" x="0.4" y="0.6" width="13" height="9.8" id="mask-4_1_">
						<g class="st6">
							<polygon id="path-3_1_" class="st2" points="0.4,0.6 13.5,0.6 13.5,10.3 0.4,10.3        "/>
						</g>
					</mask>
					<path id="Fill-61" class="st7" d="M6.4,5.3C6,5.3,5.7,5.4,5.5,5.7C5.2,5.9,5.1,6.3,5.1,6.8c0,0.5,0.1,0.9,0.3,1.1       c0.2,0.2,0.5,0.4,0.8,0.4h0.2c0.4,0,0.6-0.2,0.8-0.4c0.2-0.2,0.3-0.6,0.3-1.1c0-0.5-0.1-0.9-0.3-1.1C7.1,5.4,6.8,5.3,6.4,5.3z        M1.3,10.3c-0.3,0-0.5-0.1-0.6-0.2C0.5,9.9,0.4,9.7,0.4,9.3c0-0.4,0.1-0.7,0.2-0.8C0.8,8.3,1,8.2,1.3,8.2h2.4       C3.4,7.8,3.3,7.3,3.3,6.7c0-0.6,0.1-1,0.2-1.4c0.2-0.4,0.4-0.7,0.7-1s0.6-0.4,1-0.6C5.6,3.7,6,3.6,6.4,3.6       c0.9,0,1.6,0.3,2.2,0.8c0.6,0.5,0.9,1.3,0.9,2.4c0,0.2,0,0.5-0.1,0.7c0,0.3-0.1,0.5-0.2,0.7c0.4,0,0.6,0,0.9-0.1       c0.2-0.1,0.4-0.2,0.5-0.4c0.1-0.2,0.2-0.4,0.3-0.7c0-0.3,0.1-0.6,0.1-1c0-1-0.3-1.9-0.9-2.5S8.6,2.6,7.4,2.6       c-0.5,0-1,0-1.5,0.1C5.3,2.9,4.8,3,4.2,3.3C4.2,3.3,4.1,3.4,4,3.4c-0.1,0-0.1,0-0.1-0.1L3.4,2c0-0.1,0-0.1,0-0.2       c0-0.1,0-0.1,0.1-0.2c1.3-0.7,2.8-1,4.3-1c1.1,0,2,0.2,2.8,0.5c0.7,0.3,1.3,0.7,1.7,1.3c0.4,0.5,0.7,1.1,0.9,1.7       c0.2,0.6,0.3,1.3,0.3,1.9c0,0.8-0.1,1.5-0.2,2c-0.1,0.5-0.3,1-0.6,1.3c-0.3,0.3-0.7,0.6-1.1,0.7c-0.5,0.2-1,0.2-1.7,0.2H1.3z"/>
				</g>
				<path id="Fill-64" class="st5" d="M80.8,33c0.3,0,0.5-0.1,0.7-0.2c0.2-0.2,0.3-0.4,0.3-0.6c0-0.3-0.1-0.5-0.3-0.6      c-0.2-0.2-0.4-0.2-0.7-0.2h-1.1c0,0-0.1,0-0.1,0.1v1.7c0,0,0,0.1,0.1,0.1H80.8z M78.4,36.6C78.3,36.6,78.3,36.6,78.4,36.6      l-0.1-6.5c0-0.1,0-0.1,0.1-0.1h2.5c0.4,0,0.7,0.1,1,0.2c0.3,0.1,0.5,0.2,0.7,0.4c0.2,0.2,0.3,0.4,0.5,0.7      c0.1,0.3,0.2,0.5,0.2,0.9c0,0.3-0.1,0.6-0.2,0.9c-0.1,0.3-0.3,0.5-0.5,0.7s-0.4,0.3-0.7,0.4c-0.3,0.1-0.6,0.2-1,0.2h-1.2      c0,0-0.1,0-0.1,0.1v2.2c0,0.1,0,0.1-0.1,0.1H78.4z"/>
				<path id="Fill-66" class="st5" d="M87.5,36.7c-0.4,0-0.7-0.1-1-0.2c-0.3-0.1-0.6-0.3-0.8-0.5c-0.2-0.2-0.4-0.5-0.5-0.8      c-0.1-0.3-0.2-0.7-0.2-1.1v-4.1c0-0.1,0-0.1,0.1-0.1h1.2c0.1,0,0.1,0,0.1,0.1v4.1c0,0.4,0.1,0.7,0.3,0.9      c0.2,0.2,0.5,0.3,0.8,0.3c0.3,0,0.6-0.1,0.8-0.3c0.2-0.2,0.3-0.5,0.3-0.9v-4.1c0-0.1,0-0.1,0.1-0.1H90c0.1,0,0.1,0,0.1,0.1v4.1      c0,0.4-0.1,0.8-0.2,1.1c-0.1,0.3-0.3,0.6-0.5,0.8c-0.2,0.2-0.5,0.4-0.8,0.5C88.3,36.6,87.9,36.7,87.5,36.7"/>
				<path id="Fill-68" class="st5" d="M93.7,35.4C93.7,35.4,93.7,35.4,93.7,35.4l1.1,0.1c0.3,0,0.5-0.1,0.7-0.2      c0.2-0.1,0.2-0.3,0.2-0.6c0-0.3-0.1-0.5-0.2-0.6c-0.2-0.1-0.4-0.2-0.7-0.2h-1.1c0,0-0.1,0-0.1,0.1V35.4z M94.7,32.7      c0.3,0,0.5-0.1,0.6-0.2c0.2-0.1,0.2-0.3,0.2-0.6c0-0.2-0.1-0.4-0.2-0.6c-0.2-0.1-0.4-0.2-0.6-0.2h-1c0,0-0.1,0-0.1,0.1v1.4      c0,0,0,0.1,0.1,0.1H94.7z M92.2,30.1C92.2,30,92.3,30,92.2,30.1l2.7-0.1c0.7,0,1.2,0.2,1.6,0.5c0.3,0.3,0.5,0.7,0.5,1.3      c0,0.4-0.1,0.7-0.2,0.9c-0.1,0.2-0.3,0.4-0.5,0.5v0c0.1,0,0.2,0.1,0.3,0.2c0.1,0.1,0.2,0.2,0.3,0.3c0.1,0.1,0.1,0.3,0.2,0.4      c0.1,0.2,0.1,0.3,0.1,0.5c0,0.7-0.2,1.1-0.6,1.4c-0.4,0.3-1,0.5-1.7,0.5h-2.5c-0.1,0-0.1,0-0.1-0.1V30.1z"/>
				<path id="Fill-70" class="st5" d="M99.1,30.1C99.1,30,99.1,30,99.1,30.1l1.3-0.1c0.1,0,0.1,0,0.1,0.1v5.2c0,0,0,0.1,0.1,0.1h2.9      c0.1,0,0.1,0,0.1,0.1v1.1c0,0.1,0,0.1-0.1,0.1h-4.3c-0.1,0-0.1,0-0.1-0.1V30.1z"/>
				<path id="Fill-72" class="st5" d="M105.3,30.1C105.3,30,105.4,30,105.3,30.1l1.3-0.1c0.1,0,0.1,0,0.1,0.1v6.4      c0,0.1,0,0.1-0.1,0.1h-1.2c-0.1,0-0.1,0-0.1-0.1V30.1z"/>
				<path id="Fill-74" class="st5" d="M109,35.1c0-0.1-0.1-0.2-0.1-0.3c0-0.1,0-0.2-0.1-0.4c0-0.1,0-0.3,0-0.5c0-0.2,0-0.4,0-0.6      c0-0.3,0-0.5,0-0.6c0-0.2,0-0.3,0-0.5c0-0.1,0-0.2,0.1-0.4c0-0.1,0.1-0.2,0.1-0.3c0.2-0.5,0.5-0.9,0.9-1.2      c0.4-0.3,0.9-0.4,1.5-0.4c0.6,0,1,0.1,1.4,0.4c0.4,0.3,0.7,0.6,0.9,1.1c0,0.1,0,0.1,0,0.1l-1.1,0.5c-0.1,0-0.1,0-0.1,0      c-0.1-0.2-0.2-0.4-0.4-0.5c-0.2-0.1-0.4-0.2-0.7-0.2c-0.3,0-0.5,0.1-0.6,0.2c-0.2,0.1-0.3,0.3-0.4,0.5c0,0.1,0,0.1,0,0.2      c0,0.1,0,0.2,0,0.3c0,0.1,0,0.2,0,0.4c0,0.2,0,0.3,0,0.6c0,0.2,0,0.4,0,0.6c0,0.2,0,0.3,0,0.4c0,0.1,0,0.2,0,0.3      c0,0.1,0,0.1,0,0.2c0.1,0.2,0.2,0.4,0.4,0.5c0.2,0.1,0.4,0.2,0.6,0.2c0.3,0,0.5-0.1,0.7-0.2c0.2-0.1,0.3-0.3,0.4-0.5      c0-0.1,0.1-0.1,0.1,0l1.1,0.5c0.1,0,0.1,0.1,0,0.1c-0.2,0.5-0.5,0.8-0.9,1.1c-0.4,0.3-0.9,0.4-1.4,0.4c-0.6,0-1.1-0.1-1.5-0.4      C109.4,36,109.2,35.6,109,35.1"/>
				<path id="Fill-76" class="st5" d="M120.1,36.6C120,36.6,120,36.6,120.1,36.6l-0.1-5.3c0,0,0-0.1-0.1-0.1h-1.7      c-0.1,0-0.1,0-0.1-0.1v-1.1c0-0.1,0-0.1,0.1-0.1h4.9c0.1,0,0.1,0,0.1,0.1v1.1c0,0.1,0,0.1-0.1,0.1h-1.7c0,0-0.1,0-0.1,0.1v5.2      c0,0.1,0,0.1-0.1,0.1H120.1z"/>
				<path id="Fill-78" class="st5" d="M127.6,32.9c0.3,0,0.5-0.1,0.6-0.2c0.2-0.1,0.2-0.3,0.2-0.6c0-0.2-0.1-0.4-0.2-0.6      c-0.2-0.1-0.4-0.2-0.6-0.2h-1.2c0,0-0.1,0-0.1,0.1v1.5c0,0,0,0.1,0.1,0.1H127.6z M128.6,36.6c-0.1,0-0.1,0-0.1-0.1l-1.1-2.4      h-0.9c0,0-0.1,0-0.1,0.1v2.4c0,0.1,0,0.1-0.1,0.1H125c-0.1,0-0.1,0-0.1-0.1v-6.4c0-0.1,0-0.1,0.1-0.1h2.6c0.3,0,0.6,0.1,0.9,0.1      c0.3,0.1,0.5,0.2,0.7,0.4s0.3,0.4,0.5,0.6c0.1,0.3,0.2,0.5,0.2,0.8c0,0.4-0.1,0.8-0.3,1.1c-0.2,0.3-0.5,0.6-0.9,0.7l1.3,2.6      c0,0,0,0.1,0,0.1c0,0,0,0-0.1,0H128.6z"/>
				<path id="Fill-80" class="st5" d="M135.2,34.1l-0.7-2.3h0l-0.7,2.3H135.2z M133.7,30.1c0-0.1,0.1-0.1,0.1-0.1h1.2      c0.1,0,0.1,0,0.1,0.1l2.2,6.4c0,0.1,0,0.1-0.1,0.1H136c-0.1,0-0.1,0-0.1-0.1l-0.4-1.2h-2.3l-0.4,1.2c0,0.1-0.1,0.1-0.1,0.1h-1.3      c-0.1,0-0.1,0-0.1-0.1L133.7,30.1z"/>
				<path id="Fill-82" class="st5" d="M139.1,30.1C139.1,30,139.1,30,139.1,30.1l1.3-0.1c0.1,0,0.1,0,0.2,0.1l2.3,4.1h0v-4.1      c0-0.1,0-0.1,0.1-0.1h1.1c0.1,0,0.1,0,0.1,0.1v6.4c0,0.1,0,0.1-0.1,0.1h-1.1c-0.1,0-0.1,0-0.2-0.1l-2.3-4.1h0v4.1      c0,0.1,0,0.1-0.1,0.1h-1.1c-0.1,0-0.1,0-0.1-0.1V30.1z"/>
				<path id="Fill-84" class="st5" d="M148.6,36.7c-0.3,0-0.5,0-0.8-0.1c-0.2,0-0.5-0.1-0.7-0.2c-0.2-0.1-0.4-0.2-0.6-0.3      c-0.2-0.1-0.3-0.2-0.5-0.3c-0.1-0.1-0.1-0.1,0-0.2l0.7-0.8c0-0.1,0.1-0.1,0.1,0c0.2,0.2,0.5,0.3,0.8,0.5c0.3,0.1,0.6,0.2,1,0.2      c0.3,0,0.6-0.1,0.8-0.2c0.2-0.1,0.3-0.3,0.3-0.6c0-0.2-0.1-0.4-0.2-0.5c-0.1-0.1-0.4-0.2-0.8-0.3l-0.3,0      c-0.7-0.1-1.2-0.3-1.5-0.6c-0.4-0.3-0.5-0.8-0.5-1.4c0-0.3,0.1-0.6,0.2-0.8c0.1-0.2,0.3-0.5,0.5-0.6c0.2-0.2,0.4-0.3,0.7-0.4      c0.3-0.1,0.6-0.1,1-0.1c0.4,0,0.8,0.1,1.2,0.2c0.4,0.1,0.7,0.3,1,0.5c0.1,0,0.1,0.1,0,0.1l-0.6,0.9c0,0.1-0.1,0.1-0.1,0      c-0.3-0.2-0.5-0.3-0.7-0.4c-0.2-0.1-0.5-0.1-0.8-0.1c-0.3,0-0.5,0.1-0.7,0.2c-0.1,0.1-0.2,0.3-0.2,0.5c0,0.2,0.1,0.3,0.2,0.5      c0.2,0.1,0.4,0.2,0.8,0.3l0.3,0c0.7,0.1,1.2,0.3,1.5,0.6c0.3,0.3,0.5,0.8,0.5,1.4c0,0.3-0.1,0.6-0.2,0.8      c-0.1,0.3-0.3,0.5-0.5,0.7c-0.2,0.2-0.5,0.3-0.8,0.4C149.4,36.6,149,36.7,148.6,36.7"/>
				<path id="Fill-86" class="st5" d="M155.6,33c0.3,0,0.5-0.1,0.7-0.2c0.2-0.2,0.3-0.4,0.3-0.6c0-0.3-0.1-0.5-0.3-0.6      c-0.2-0.2-0.4-0.2-0.7-0.2h-1.1c0,0-0.1,0-0.1,0.1v1.7c0,0,0,0.1,0.1,0.1H155.6z M153.2,36.6C153.1,36.6,153.1,36.6,153.2,36.6      l-0.1-6.5c0-0.1,0-0.1,0.1-0.1h2.5c0.4,0,0.7,0.1,1,0.2c0.3,0.1,0.5,0.2,0.7,0.4c0.2,0.2,0.3,0.4,0.5,0.7      c0.1,0.3,0.2,0.5,0.2,0.9c0,0.3-0.1,0.6-0.2,0.9c-0.1,0.3-0.3,0.5-0.5,0.7c-0.2,0.2-0.4,0.3-0.7,0.4c-0.3,0.1-0.6,0.2-1,0.2      h-1.2c0,0-0.1,0-0.1,0.1v2.2c0,0.1,0,0.1-0.1,0.1H153.2z"/>
				<path id="Fill-88" class="st5" d="M162.3,35.4c0.3,0,0.5-0.1,0.7-0.2c0.2-0.1,0.3-0.3,0.4-0.5c0-0.1,0-0.1,0-0.2      c0-0.1,0-0.2,0-0.3c0-0.1,0-0.2,0-0.4c0-0.2,0-0.3,0-0.6c0-0.2,0-0.4,0-0.6c0-0.2,0-0.3,0-0.4c0-0.1,0-0.2,0-0.3      c0-0.1,0-0.1,0-0.2c-0.1-0.2-0.2-0.4-0.4-0.5c-0.2-0.1-0.4-0.2-0.7-0.2c-0.3,0-0.5,0.1-0.7,0.2c-0.2,0.1-0.3,0.3-0.4,0.5      c0,0.1,0,0.1,0,0.2c0,0.1,0,0.2,0,0.3c0,0.1,0,0.2,0,0.4c0,0.2,0,0.3,0,0.6c0,0.2,0,0.4,0,0.6c0,0.2,0,0.3,0,0.4      c0,0.1,0,0.2,0,0.3c0,0.1,0,0.1,0,0.2c0.1,0.2,0.2,0.4,0.4,0.5C161.8,35.4,162,35.4,162.3,35.4 M162.3,36.7      c-0.6,0-1.1-0.1-1.5-0.4c-0.4-0.3-0.7-0.7-0.9-1.2c0-0.1-0.1-0.2-0.1-0.3c0-0.1,0-0.2-0.1-0.4c0-0.1,0-0.3,0-0.5      c0-0.2,0-0.4,0-0.6c0-0.2,0-0.5,0-0.6c0-0.2,0-0.3,0-0.5c0-0.1,0-0.3,0.1-0.4c0-0.1,0.1-0.2,0.1-0.3c0.2-0.5,0.5-0.9,0.9-1.2      c0.4-0.3,0.9-0.4,1.5-0.4c0.6,0,1.1,0.1,1.5,0.4c0.4,0.3,0.7,0.7,0.9,1.2c0,0.1,0.1,0.2,0.1,0.3c0,0.1,0,0.2,0.1,0.4      c0,0.1,0,0.3,0,0.5c0,0.2,0,0.4,0,0.6c0,0.2,0,0.5,0,0.6c0,0.2,0,0.3,0,0.5c0,0.1,0,0.3-0.1,0.4c0,0.1-0.1,0.2-0.1,0.3      c-0.2,0.5-0.5,0.9-0.9,1.2C163.3,36.6,162.8,36.7,162.3,36.7"/>
				<path id="Fill-90" class="st5" d="M169.5,32.9c0.3,0,0.5-0.1,0.6-0.2c0.2-0.1,0.2-0.3,0.2-0.6c0-0.2-0.1-0.4-0.2-0.6      c-0.2-0.1-0.4-0.2-0.6-0.2h-1.2c0,0-0.1,0-0.1,0.1v1.5c0,0,0,0.1,0.1,0.1H169.5z M170.5,36.6c-0.1,0-0.1,0-0.1-0.1l-1.1-2.4      h-0.9c0,0-0.1,0-0.1,0.1v2.4c0,0.1,0,0.1-0.1,0.1H167c-0.1,0-0.1,0-0.1-0.1v-6.4c0-0.1,0-0.1,0.1-0.1h2.6c0.3,0,0.6,0.1,0.9,0.1      c0.3,0.1,0.5,0.2,0.7,0.4s0.3,0.4,0.5,0.6c0.1,0.3,0.2,0.5,0.2,0.8c0,0.4-0.1,0.8-0.3,1.1c-0.2,0.3-0.5,0.6-0.9,0.7l1.3,2.6      c0,0,0,0.1,0,0.1c0,0,0,0-0.1,0H170.5z"/>
				<path id="Fill-92" class="st5" d="M175.3,36.6C175.2,36.6,175.2,36.6,175.3,36.6l-0.1-5.3c0,0,0-0.1-0.1-0.1h-1.7      c-0.1,0-0.1,0-0.1-0.1v-1.1c0-0.1,0-0.1,0.1-0.1h4.9c0.1,0,0.1,0,0.1,0.1v1.1c0,0.1,0,0.1-0.1,0.1h-1.7c0,0-0.1,0-0.1,0.1v5.2      c0,0.1,0,0.1-0.1,0.1H175.3z"/>
				<path id="Fill-94" class="st5" d="M186.5,34.1l-0.7-2.3h0l-0.7,2.3H186.5z M185.1,30.1c0-0.1,0.1-0.1,0.1-0.1h1.2      c0.1,0,0.1,0,0.1,0.1l2.2,6.4c0,0.1,0,0.1-0.1,0.1h-1.3c-0.1,0-0.1,0-0.1-0.1l-0.4-1.2h-2.3l-0.4,1.2c0,0.1-0.1,0.1-0.1,0.1      h-1.3c-0.1,0-0.1,0-0.1-0.1L185.1,30.1z"/>
				<path id="Fill-96" class="st5" d="M192.7,36.7c-0.4,0-0.7-0.1-1-0.2c-0.3-0.1-0.6-0.3-0.8-0.5c-0.2-0.2-0.4-0.5-0.5-0.8      c-0.1-0.3-0.2-0.7-0.2-1.1v-4.1c0-0.1,0-0.1,0.1-0.1h1.2c0.1,0,0.1,0,0.1,0.1v4.1c0,0.4,0.1,0.7,0.3,0.9      c0.2,0.2,0.5,0.3,0.8,0.3c0.3,0,0.6-0.1,0.8-0.3c0.2-0.2,0.3-0.5,0.3-0.9v-4.1c0-0.1,0-0.1,0.1-0.1h1.2c0.1,0,0.1,0,0.1,0.1v4.1      c0,0.4-0.1,0.8-0.2,1.1c-0.1,0.3-0.3,0.6-0.5,0.8c-0.2,0.2-0.5,0.4-0.8,0.5C193.4,36.6,193.1,36.7,192.7,36.7"/>
				<path id="Fill-98" class="st5" d="M198.9,36.6C198.8,36.6,198.8,36.6,198.9,36.6l-0.1-5.3c0,0,0-0.1-0.1-0.1H197      c-0.1,0-0.1,0-0.1-0.1v-1.1c0-0.1,0-0.1,0.1-0.1h4.9c0.1,0,0.1,0,0.1,0.1v1.1c0,0.1,0,0.1-0.1,0.1h-1.7c0,0-0.1,0-0.1,0.1v5.2      c0,0.1,0,0.1-0.1,0.1H198.9z"/>
				<path id="Fill-100" class="st5" d="M203.7,30.1C203.7,30,203.8,30,203.7,30.1l1.3-0.1c0.1,0,0.1,0,0.1,0.1v2.5      c0,0,0,0.1,0.1,0.1h2.1c0,0,0.1,0,0.1-0.1v-2.5c0-0.1,0-0.1,0.1-0.1h1.2c0.1,0,0.1,0,0.1,0.1v6.4c0,0.1,0,0.1-0.1,0.1h-1.2      c-0.1,0-0.1,0-0.1-0.1V34c0,0,0-0.1-0.1-0.1h-2.1c0,0-0.1,0-0.1,0.1v2.5c0,0.1,0,0.1-0.1,0.1h-1.2c-0.1,0-0.1,0-0.1-0.1V30.1z"/>
				<path id="Fill-102" class="st5" d="M213.4,35.4c0.3,0,0.5-0.1,0.7-0.2c0.2-0.1,0.3-0.3,0.4-0.5c0-0.1,0-0.1,0-0.2      c0-0.1,0-0.2,0-0.3c0-0.1,0-0.2,0-0.4c0-0.2,0-0.3,0-0.6c0-0.2,0-0.4,0-0.6c0-0.2,0-0.3,0-0.4c0-0.1,0-0.2,0-0.3      c0-0.1,0-0.1,0-0.2c-0.1-0.2-0.2-0.4-0.4-0.5c-0.2-0.1-0.4-0.2-0.7-0.2c-0.3,0-0.5,0.1-0.7,0.2c-0.2,0.1-0.3,0.3-0.4,0.5      c0,0.1,0,0.1,0,0.2c0,0.1,0,0.2,0,0.3c0,0.1,0,0.2,0,0.4c0,0.2,0,0.3,0,0.6c0,0.2,0,0.4,0,0.6c0,0.2,0,0.3,0,0.4      c0,0.1,0,0.2,0,0.3c0,0.1,0,0.1,0,0.2c0.1,0.2,0.2,0.4,0.4,0.5C213,35.4,213.2,35.4,213.4,35.4 M213.4,36.7      c-0.6,0-1.1-0.1-1.5-0.4c-0.4-0.3-0.7-0.7-0.9-1.2c0-0.1-0.1-0.2-0.1-0.3c0-0.1,0-0.2-0.1-0.4c0-0.1,0-0.3,0-0.5      c0-0.2,0-0.4,0-0.6c0-0.2,0-0.5,0-0.6c0-0.2,0-0.3,0-0.5c0-0.1,0-0.3,0.1-0.4c0-0.1,0.1-0.2,0.1-0.3c0.2-0.5,0.5-0.9,0.9-1.2      c0.4-0.3,0.9-0.4,1.5-0.4c0.6,0,1.1,0.1,1.5,0.4c0.4,0.3,0.7,0.7,0.9,1.2c0,0.1,0.1,0.2,0.1,0.3c0,0.1,0,0.2,0.1,0.4      c0,0.1,0,0.3,0,0.5c0,0.2,0,0.4,0,0.6c0,0.2,0,0.5,0,0.6c0,0.2,0,0.3,0,0.5c0,0.1,0,0.3-0.1,0.4c0,0.1-0.1,0.2-0.1,0.3      c-0.2,0.5-0.5,0.9-0.9,1.2C214.5,36.6,214,36.7,213.4,36.7"/>
				<path id="Fill-104" class="st5" d="M220.7,32.9c0.3,0,0.5-0.1,0.6-0.2c0.2-0.1,0.2-0.3,0.2-0.6c0-0.2-0.1-0.4-0.2-0.6      c-0.2-0.1-0.4-0.2-0.6-0.2h-1.2c0,0-0.1,0-0.1,0.1v1.5c0,0,0,0.1,0.1,0.1H220.7z M221.7,36.6c-0.1,0-0.1,0-0.1-0.1l-1.1-2.4      h-0.9c0,0-0.1,0-0.1,0.1v2.4c0,0.1,0,0.1-0.1,0.1h-1.2c-0.1,0-0.1,0-0.1-0.1v-6.4c0-0.1,0-0.1,0.1-0.1h2.6      c0.3,0,0.6,0.1,0.9,0.1c0.3,0.1,0.5,0.2,0.7,0.4s0.3,0.4,0.5,0.6c0.1,0.3,0.2,0.5,0.2,0.8c0,0.4-0.1,0.8-0.3,1.1      c-0.2,0.3-0.5,0.6-0.9,0.7l1.3,2.6c0,0,0,0.1,0,0.1c0,0,0,0-0.1,0H221.7z"/>
				<path id="Fill-106" class="st5" d="M225,30.1C225,30,225.1,30,225,30.1l1.3-0.1c0.1,0,0.1,0,0.1,0.1v6.4c0,0.1,0,0.1-0.1,0.1      h-1.2c-0.1,0-0.1,0-0.1-0.1V30.1z"/>
				<path id="Fill-108" class="st5" d="M230.1,36.6C230,36.6,230,36.6,230.1,36.6l-0.1-5.3c0,0,0-0.1-0.1-0.1h-1.7      c-0.1,0-0.1,0-0.1-0.1v-1.1c0-0.1,0-0.1,0.1-0.1h4.9c0.1,0,0.1,0,0.1,0.1v1.1c0,0.1,0,0.1-0.1,0.1h-1.7c0,0-0.1,0-0.1,0.1v5.2      c0,0.1,0,0.1-0.1,0.1H230.1z"/>
				<path id="Fill-110" class="st5" d="M236.5,36.6C236.4,36.6,236.4,36.6,236.5,36.6l-0.1-2.6l-1.9-3.9c0-0.1,0-0.1,0.1-0.1h1.3      c0.1,0,0.1,0,0.1,0.1l1.2,2.4h0l1.2-2.4c0-0.1,0.1-0.1,0.1-0.1h1.2c0,0,0.1,0,0.1,0c0,0,0,0,0,0.1l-1.9,3.9v2.5      c0,0.1,0,0.1-0.1,0.1H236.5z"/>
			</g>
		</g>
		<text transform="translate(6, 20)" class="st0" style="font-family: 'din', serif;"> Delivery</text>
    <text transform="translate(15, 50)" class="st4" style="font-weight: bold;"> توصيل</text>
		<path id="Line" class="st9" d="M66.5,6.5v52.2"/>
	</g>

</g>
</svg>