<svg width="80px" height="50px" viewBox="0 0 80 50" version="1.1" xmlns="http://www.w3.org/2000/svg" xmlns:xlink="http://www.w3.org/1999/xlink">
    <defs>
        <polygon id="path-1" points="0 0.162069767 33.3093042 0.162069767 33.3093042 29.9099696 0 29.9099696"></polygon>
    </defs>
    <g id="Symbols" stroke="none" stroke-width="1" fill="none" fill-rule="evenodd">
            <rect id="Rectangle-2" x="0" y="0" width="80" height="50"></rect>
            <g id="Group-3" transform="translate(23.000000, 10.000000)">
                <mask id="mask-2" fill="white">
                    <use xlink:href="#path-1"></use>
                </mask>
                <g id="Clip-2"></g>
                <path d="M26.536502,16.7895005 C26.5509858,15.4561073 27.6639506,14.3717611 29.0239022,14.3585374 C30.4074852,14.3717611 31.52045,15.4553727 31.5120647,16.7895005 C31.52045,18.1258323 30.4074852,19.2101785 29.0239022,19.2234023 C27.6639506,19.2101785 26.5509858,18.126567 26.536502,16.7895005 Z M17.0184042,11.926105 L4.9755264,11.926105 L7.27899819,6.08117761 C7.56771887,5.22623867 7.99725972,4.62188529 9.01525579,4.62886755 L16.9814291,4.62886755 L25.0207659,4.62886755 C26.0112273,4.62188529 26.4407682,5.22701448 26.7200484,6.08117761 L29.0243069,11.926105 L17.0184042,11.926105 Z M1.65845323,16.789868 C1.65997809,15.4559416 2.77159914,14.3717591 4.14702054,14.3585374 C5.5163425,14.3717591 6.62948841,15.4552071 6.63406299,16.789868 C6.62948841,18.125998 5.5163425,19.2101805 4.14702054,19.2234023 C2.77159914,19.2101805 1.65997809,18.125998 1.65845323,16.789868 Z M28.5379992,4.00164639 C27.9591604,2.60352619 26.7378572,1.40146076 24.4426762,1.38556442 L20.198376,1.38556442 L12.9760823,1.38556442 L8.69221002,1.38556442 C6.40634011,1.40146076 5.18426098,2.60352619 4.63490731,4.00164639 L1.61889361,11.4100938 C0.437162493,11.547862 -1.66481361,12.8816399 -1.65860622,15.4068857 L-1.65860622,24.814486 L1.24567453,24.814486 L1.24567453,27.8272192 C1.24877822,31.5121402 6.72446864,31.4689931 6.71903718,27.8272192 L6.71903718,24.814486 L16.5856773,24.814486 L26.4150731,24.814486 L26.4150731,27.8272192 C26.4212805,31.4689931 31.8954191,31.5121402 31.8876599,27.8272192 L31.8876599,24.814486 L34.8291849,24.814486 L34.8291849,15.4068857 C34.8097869,12.8816399 32.7070348,11.547862 31.5159926,11.4100938 L28.5379992,4.00164639 Z" id="Fill-1" fill="#C8C8C8" mask="url(#mask-2)"></path>
            </g>
    </g>
</svg>