<?xml version="1.0" encoding="UTF-8"?>
<svg width="80px" height="50px" viewBox="0 0 80 50" version="1.1" xmlns="http://www.w3.org/2000/svg" xmlns:xlink="http://www.w3.org/1999/xlink">
    <!-- Generator: Sketch 48.2 (47327) - http://www.bohemiancoding.com/sketch -->
    <title>BahriActive</title>
    <desc>Created with Sketch.</desc>
    <defs></defs>
    <g id="Symbols" stroke="none" stroke-width="1" fill="none" fill-rule="evenodd">
        <g id="BahriActive">
            <rect id="Rectangle-2" x="0" y="0" width="80" height="50"></rect>
            <path d="M55.2276491,20.3768241 C56.3641836,20.3768241 57.2836479,21.3069543 57.2836479,22.4509646 C57.2836479,23.597462 56.3641836,24.5251052 55.2276491,24.5251052 C54.0929647,24.5251052 53.1716503,23.597462 53.1716503,22.4509646 C53.1722669,21.3069543 54.0935814,20.3768241 55.2276491,20.3768241 Z M44.2749163,12.4208905 L44.0239149,12.4280508 L21.6909,21.7399966 L21.6909,22.4680577 L20.92,22.4680577 L20.92,21.6757376 L21.3853344,21.6757376 L21.1605645,21.1067643 L21.6726754,20.8933994 L21.6580957,20.8622056 L22.3548824,20.5228181 L22.3889016,20.5945636 L23.1045204,20.2963518 L23.0510616,20.1809351 L23.7478482,19.8396759 L23.8207466,19.9975161 L24.5369728,19.6993042 L24.4446349,19.4996645 L25.013242,19.2207927 L25.1116547,19.4341577 L25.1724034,19.4341577 L43.3726897,11.8453524 L43.2572673,11.6575663 L44.658738,11.6170144 L44.68,12.4093346 L44.449509,12.4159099 L44.68,12.78438 L44.2377143,13.0638202 L43.96,12.6198575 L44.2749163,12.4208905 Z M17.3162391,36.3220905 L17.2564215,33.4446557 L15.88,28.4862411 C20.738176,27.1737379 25.8350058,25.2152419 30.5272959,23.3413032 C42.5500174,18.5432988 54.6041893,13.2957729 67,14.7606036 C65.8184482,20.7940148 58.4985003,25.8624782 59.3100463,31.4283374 C59.8280544,34.2131322 62.2263086,31.9978556 62.3940446,36.3220905 C62.3940446,36.3220905 57.1122119,40.5972075 50.5587927,36.8325429 C44.0053735,33.0672566 38.1586653,36.3220905 38.1586653,36.3220905 C38.1586653,36.3220905 33.6680284,40.3472661 27.9939896,36.3220905 C22.3199508,32.2956713 17.3162391,36.3220905 17.3162391,36.3220905 Z M50.368,38.9797126 C57.9151136,43.1722342 65.62975,36.3420249 65.7076818,36.2732212 L66.7250909,37.511687 C66.4612273,37.7489631 61.6564545,41.998714 55.6569318,42 C53.7368636,42 51.6946818,41.5640292 49.639,40.4226602 C43.7665,37.1599524 38.7463409,39.5249976 38.0922045,39.8600135 C37.3895909,40.4464521 32.7284091,43.9895187 27.1013636,39.8387937 C21.9633864,36.0520207 13.9818182,41.8984021 13.9020455,41.9575604 L13,40.625213 C13.3632727,40.3564286 21.9695227,34.0605729 27.9978864,38.5038742 C33.0487273,42.2302029 36.9833636,38.7109282 37.1484318,38.5591744 L37.3006136,38.4498601 C37.5485227,38.3116098 43.4523182,35.1357104 50.368,38.9797126 Z M46.84,15.6783106 L46.3979669,15.9574318 L46.12,15.5131501 L46.5620331,15.2340289 L46.84,15.6783106 Z M46.12,12.3210157 L45.4193103,12.3404173 L45.4,11.6369704 L46.1006897,11.6170144 L46.12,12.3210157 Z M41.08,8.72340289 L41.08,8 L41.8,8 L41.8,8.72340289 L41.08,8.72340289 Z M45.4,8.72340289 L45.4,8 L46.12,8 L46.12,8.72340289 L45.4,8.72340289 Z M44.9579669,14.510626 L44.68,14.0659314 L45.1220331,13.7872231 L45.4,14.2319177 L44.9579669,14.510626 Z M42.52,8.72340289 L42.52,8 L43.24,8 L43.24,8.72340289 L42.52,8.72340289 Z M43.96,8.72340289 L43.96,8 L44.68,8 L44.68,8.72340289 L43.96,8.72340289 Z M49.72,9.92049758 L49.2481166,10.1702087 L49,9.69651686 L49.4718834,9.44680577 L49.72,9.92049758 Z M53.5038882,11.5466977 L53.3360102,11.5517564 L53.32,10.9097996 L53.8263787,10.8936115 L54.04,11.2836421 L53.6726811,11.5300037 L53.6731385,11.5421448 L53.6543837,11.5421448 L53.5423126,11.6170144 L53.5038882,11.5466977 Z M52.5806897,10.8936115 L52.6,11.5976128 L51.8998621,11.6170144 L51.88,10.9130132 L52.5806897,10.8936115 Z M54.76,12.7908849 L54.3114957,13.0638202 L54.04,12.6137674 L54.4889169,12.3404173 L54.76,12.7908849 Z M49,10.9130132 L49.7006897,10.8936115 L49.72,11.5970585 L49.0193103,11.6170144 L49,10.9130132 Z M47.56,11.5970585 L46.8593103,11.6170144 L46.84,10.9135675 L47.5401379,10.8936115 L47.56,11.5970585 Z M51.1406897,10.8936115 L51.16,11.5976128 L50.4598621,11.6170144 L50.44,10.9130132 L51.1406897,10.8936115 Z M46.84,8.72340289 L46.84,8 L47.56,8 L47.56,8.72340289 L46.84,8.72340289 Z M48.5247915,9.44680577 L48.28,8.66282235 L48.5116853,8.45684852 L48.5061891,8 L48.6681151,8 L48.7552085,8.24160944 L49,9.02488015 L48.5247915,9.44680577 Z M39.64,8.72340289 L39.64,8 L40.36,8 L40.36,8.72340289 L39.64,8.72340289 Z M31.4634531,11.6170144 L31.72,12.0823883 L31.2565469,12.3404173 L31,11.8746246 L31.4634531,11.6170144 Z M24.52,18.1276404 L24.52,17.4042375 L25.24,17.4042375 L25.24,18.1276404 L24.52,18.1276404 Z M25.7034531,14.510626 L25.96,14.9759998 L25.4965469,15.2340289 L25.24,14.7682362 L25.7034531,14.510626 Z M24.52,16.6808346 L24.52,15.9574318 L25.24,15.9574318 L25.24,16.6808346 L24.52,16.6808346 Z M27.1434531,13.7872231 L27.4,14.2525969 L26.9365469,14.510626 L26.68,14.0448333 L27.1434531,13.7872231 Z M20.92,25.3616693 L20.92,24.6382664 L21.64,24.6382664 L21.64,25.3616693 L20.92,25.3616693 Z M44.2749163,12.4208905 L44.449509,12.4159099 L44.4022857,12.3404173 L44.2749163,12.4208905 Z M28.5831847,13.0638202 L28.84,13.5289247 L28.3768153,13.7872231 L28.12,13.3216999 L28.5831847,13.0638202 Z M20.92,23.9148635 L20.92,23.1914606 L21.64,23.1914606 L21.64,23.9148635 L20.92,23.9148635 Z M30.0233333,12.3404173 L30.28,12.8055218 L29.8166667,13.0638202 L29.56,12.5982971 L30.0233333,12.3404173 Z M33.6233333,10.1702087 L33.88,10.6353132 L33.4166667,10.8936115 L33.16,10.4280884 L33.6233333,10.1702087 Z M32.9034531,10.8936115 L33.16,11.3588359 L32.6965469,11.6170144 L32.44,11.1509519 L32.9034531,10.8936115 Z M35.0631847,9.44680577 L35.32,9.91232893 L34.8572322,10.1702087 L34.6,9.70468551 L35.0631847,9.44680577 Z M36.5034531,8.72340289 L36.76,9.18877672 L36.2965469,9.44680577 L36.04,8.98101306 L36.5034531,8.72340289 Z M37.5267616,8.58125067 C37.4736809,8.47111226 37.4781043,8.35078765 37.5223382,8.24701562 L37.48,8.16934576 L37.7833186,8 L38.4461961,8 L38.4461961,8.63409164 L40.3191885,12.4819329 C40.4165033,12.6824739 40.3337226,12.9250331 40.1353016,13.023712 C40.0784294,13.0510874 40.0183976,13.0638202 39.9589977,13.0638202 C39.810498,13.0638202 39.6676854,12.9810572 39.5981749,12.8384503 L37.5267616,8.58125067 Z M29.56,21.7395061 L24.3716486,23.9148635 L23.8,22.4732065 L28.9883514,20.2978491 L29.56,21.7395061 Z M36.76,18.8456503 L31.5722446,21.021252 L31,19.5798392 L36.1883514,17.4042375 L36.76,18.8456503 Z M43.96,15.9531404 L38.7710525,18.1276404 L38.2,16.685126 L43.3883514,14.510626 L43.96,15.9531404 Z M34.229892,13.7872231 L33.88,13.1671635 L37.130108,11.6170144 L37.48,12.2365244 L34.229892,13.7872231 Z M32.44,14.40689 L29.189892,15.9574318 L28.84,15.3377649 L32.090108,13.7872231 L32.44,14.40689 Z M52.6,14.6793205 L47.7277763,15.2340289 L47.56,13.6185286 L52.4328338,13.0638202 L52.6,14.6793205 Z" id="Combined-Shape" fill="#33B4E4"></path>
        </g>
    </g>
</svg>