<?xml version="1.0" encoding="UTF-8"?>
<svg width="351px" height="23px" viewBox="0 0 351 23" version="1.1" xmlns="http://www.w3.org/2000/svg" xmlns:xlink="http://www.w3.org/1999/xlink">
    <!-- Generator: Sketch 48.2 (47327) - http://www.bohemiancoding.com/sketch -->
    <title>Or</title>
    <desc>Created with Sketch.</desc>
    <defs></defs>
    <g id="2-Organizations-Registeration" stroke="none" stroke-width="1" fill="none" fill-rule="evenodd" transform="translate(-574.000000, -604.000000)">
        <g id="Or" transform="translate(574.000000, 598.000000)">
            <path d="M0.573529412,20.5 L155.464701,20.5" id="Line-2" stroke="#DCDCDC" stroke-linecap="square"></path>
            <path d="M195.573529,20.5 L350.464701,20.5" id="Line-2" stroke="#DCDCDC" stroke-linecap="square"></path>
            <path d="M181.6,24.5267969 C181.6,24.6601309 181.533334,24.7267969 181.4,24.7267969 L180.12,24.7267969 C179.986666,24.7267969 179.92,24.6601309 179.92,24.5267969 L179.92,11.3267969 C179.92,11.1934629 179.986666,11.1267969 180.12,11.1267969 L181.4,11.1267969 C181.533334,11.1267969 181.6,11.1934629 181.6,11.3267969 L181.6,24.5267969 Z M179.48,9.28679688 C179.373333,9.14012948 179.286667,8.96013128 179.22,8.74679688 C179.153333,8.53346248 179.12,8.30013148 179.12,8.04679688 C179.12,7.83346248 179.153333,7.61013138 179.22,7.37679688 C179.286667,7.14346238 179.399999,6.93013118 179.56,6.73679688 C179.720001,6.54346258 179.929999,6.38346418 180.19,6.25679688 C180.450001,6.13012958 180.773331,6.06679688 181.16,6.06679688 C181.506668,6.06679688 181.816665,6.12679628 182.09,6.24679688 C182.363335,6.36679748 182.579999,6.54012908 182.74,6.76679688 C182.78,6.86013068 182.78,6.92679668 182.74,6.96679688 L182.32,7.30679688 C182.226666,7.38679728 182.153334,7.40013048 182.1,7.34679688 C181.979999,7.21346288 181.840001,7.10346398 181.68,7.01679688 C181.519999,6.93012978 181.340001,6.88679688 181.14,6.88679688 C180.766665,6.88679688 180.490001,7.00012908 180.31,7.22679688 C180.129999,7.45346468 180.04,7.72012868 180.04,8.02679688 C180.04,8.32013168 180.116666,8.57679578 180.27,8.79679688 C180.423334,9.01679798 180.573333,9.18012968 180.72,9.28679688 L182.78,9.28679688 C182.86,9.28679688 182.9,9.33346308 182.9,9.42679688 L182.9,9.98679688 C182.9,10.0801307 182.86,10.1267969 182.78,10.1267969 L178.72,10.1267969 C178.64,10.1267969 178.6,10.0801307 178.6,9.98679688 L178.6,9.42679688 C178.6,9.33346308 178.64,9.28679688 178.72,9.28679688 L179.48,9.28679688 Z M171.28,28.7067969 C171.146666,28.7067969 171.08,28.6401309 171.08,28.5067969 L171.08,27.3467969 C171.08,27.2134629 171.146666,27.1467969 171.28,27.1467969 L173.68,27.1467969 C173.946668,27.1467969 174.193332,27.1167972 174.42,27.0567969 C174.646668,26.9967966 174.843333,26.8967976 175.01,26.7567969 C175.176668,26.6167962 175.306666,26.4234648 175.4,26.1767969 C175.493334,25.930129 175.54,25.6201321 175.54,25.2467969 L175.54,24.7267969 L173.4,24.7267969 C172.81333,24.7267969 172.283336,24.6567976 171.81,24.5167969 C171.336664,24.3767962 170.933335,24.1501318 170.6,23.8367969 C170.266665,23.523462 170.013334,23.1067995 169.84,22.5867969 C169.666666,22.0667943 169.58,21.4268007 169.58,20.6667969 C169.58,19.9067931 169.679999,19.2434664 169.88,18.6767969 C170.080001,18.1101274 170.356665,17.6434654 170.71,17.2767969 C171.063335,16.9101284 171.473331,16.6367978 171.94,16.4567969 C172.406669,16.276796 172.906664,16.1867969 173.44,16.1867969 C174.626673,16.1867969 175.55333,16.5301268 176.22,17.2167969 C176.88667,17.903467 177.22,19.0134559 177.22,20.5467969 L177.22,25.2067969 C177.22,25.8334667 177.136667,26.3667947 176.97,26.8067969 C176.803333,27.2467991 176.570001,27.6067955 176.27,27.8867969 C175.969999,28.1667983 175.606669,28.3734629 175.18,28.5067969 C174.753331,28.6401309 174.280003,28.7067969 173.76,28.7067969 L171.28,28.7067969 Z M173.44,17.7467969 C172.759997,17.7467969 172.226669,18.0134609 171.84,18.5467969 C171.453331,19.0801329 171.26,19.7867925 171.26,20.6667969 C171.26,21.6134683 171.449998,22.2667951 171.83,22.6267969 C172.210002,22.9867987 172.77333,23.1667969 173.52,23.1667969 L175.54,23.1667969 L175.54,20.5467969 C175.54,19.6667925 175.376668,18.9801327 175.05,18.4867969 C174.723332,17.9934611 174.18667,17.7467969 173.44,17.7467969 Z" id="or" fill="#D1CCCC"></path>
        </g>
    </g>
</svg>