<svg width="80px" height="50px" viewBox="0 0 80 50" version="1.1" xmlns="http://www.w3.org/2000/svg" xmlns:xlink="http://www.w3.org/1999/xlink">
    <g id="Symbols" stroke="none" stroke-width="1" fill="none" fill-rule="evenodd">
            <rect id="Rectangle-2" x="0" y="0" width="80" height="50"></rect>
            <path d="M29.3250586,28.9055434 C30.0200081,28.9055434 30.5834963,29.4537538 30.5834963,30.1292978 C30.5834963,30.810476 30.0200081,31.3586865 29.3250586,31.3586865 C28.6277926,31.3586865 28.0648835,30.810476 28.0648835,30.1292978 C28.0648835,29.4531904 28.6277926,28.9055434 29.3250586,28.9055434 Z M31.9398061,16.7158902 L39.6971798,16.7158902 L39.6971798,24.5587362 L31.9398061,24.5587362 C30.6570451,23.1282056 29.6140418,20.2299584 29.6140418,18.9819768 C29.6146209,17.7317416 30.6576242,16.7158902 31.9398061,16.7158902 Z M40.4720485,5.31840946 C41.7577051,5.31840946 42.7978128,6.33426084 42.7978128,7.58393271 C42.7978128,8.83191431 41.7577051,9.84438516 40.4720485,9.84438516 C39.1887084,9.84438516 38.1474424,8.83191431 38.1474424,7.58393271 C38.1474424,6.33426084 39.1887084,5.31840946 40.4720485,5.31840946 Z M49.0042909,16.7158902 C50.2853145,16.7158902 51.3312135,17.7317416 51.3312135,18.9814134 C51.3312135,20.2299584 50.2853145,23.1276421 49.0042909,24.5581727 L40.8565872,24.5581727 L40.8565872,16.7153267 L49.0042909,16.7153267 L49.0042909,16.7158902 Z M52.6881024,30.1292978 C52.6881024,30.810476 52.1217185,31.3586865 51.4302438,31.3586865 C50.7306613,31.3586865 50.1665939,30.810476 50.1665939,30.1292978 C50.1665939,29.4537538 50.7306613,28.9055434 51.4302438,28.9055434 C52.1217185,28.9055434 52.6881024,29.4531904 52.6881024,30.1292978 Z M26.2574357,32.8692231 C25.538163,32.8692231 24.9596175,32.300166 24.9601966,31.6099731 L24.9601966,28.6542568 C24.9601966,27.9606833 25.5387421,27.3995141 26.2580148,27.3995141 L27.8726141,27.3995141 L27.8726141,18.1548721 C27.8726141,12.6834729 31.6739879,9.4877385 36.8108229,7.94734045 C36.7969239,7.822824 36.7893953,7.70506862 36.7893953,7.58505956 C36.7893953,5.60406484 38.4375838,4 40.4726276,4 C42.505934,4 44.1552808,5.60350141 44.1552808,7.58505956 C44.1552808,7.69605386 44.1506478,7.79972366 44.1384862,7.90621058 C49.3065939,9.40773246 53.0790114,12.6322014 53.0790114,18.1543087 L53.0790114,27.3989507 L54.5001832,27.3989507 C55.2101899,27.3989507 55.7910519,27.9606833 55.7910519,28.6536934 L55.7910519,31.6094096 C55.7910519,32.300166 55.2101899,32.8692231 54.5001832,32.8692231 L53.0685872,32.8692231 L49.5220283,32.8692231 L31.2315367,32.8692231 L27.8737724,32.8692231 L26.2574357,32.8692231 Z M32.7272727,43.1416597 L32.7272727,41.7124896 L47.2727273,41.7124896 L47.2727273,43.1416597 L32.7272727,43.1416597 Z M56,41.568876 L56,43.0084951 L52.8895947,43.0084951 L55.371295,44.845583 L54.5044701,46 L46.5420154,40.1048757 L33.6053106,40.1048757 L25.6422848,46 L24.7754599,44.845583 L27.2571602,43.0084951 L24,43.0084951 L24,41.568876 L29.2015204,41.568876 L31.1989864,40.0895666 C29.2237906,39.940445 27.6717286,38.3052099 27.6717286,36.3082274 L27.6717286,33.8520538 L52.5258481,33.8520538 L52.5258481,36.3082274 C52.5258481,38.318818 50.9446635,39.9625581 48.9506237,40.0918346 L50.9452346,41.568876 L56,41.568876 Z M45.2583379,36.7873444 L45.2583379,36.4052658 C45.2583379,35.8099132 44.7712486,35.3262601 44.1705241,35.3262601 C43.5697996,35.3262601 43.0827103,35.8093462 43.0827103,36.4052658 L43.0827103,36.7873444 C43.0827103,37.384398 43.5692286,37.8669171 44.1705241,37.8669171 C44.7706776,37.8669171 45.2583379,37.384965 45.2583379,36.7873444 Z M41.0880994,36.7873444 L41.0880994,36.4052658 C41.0880994,35.8099132 40.60101,35.3262601 40.0002855,35.3262601 C39.399561,35.3262601 38.9130427,35.8093462 38.9130427,36.4052658 L38.9130427,36.7873444 C38.9130427,37.384398 39.39899,37.8669171 40.0002855,37.8669171 C40.600439,37.8669171 41.0880994,37.384965 41.0880994,36.7873444 Z M36.9178608,36.7873444 L36.9178608,36.4052658 C36.9178608,35.8099132 36.4313425,35.3262601 35.830618,35.3262601 C35.2293224,35.3262601 34.7428041,35.8093462 34.7428041,36.4052658 L34.7428041,36.7873444 C34.7428041,37.384398 35.2287514,37.8669171 35.830618,37.8669171 C36.4307714,37.8669171 36.9178608,37.384965 36.9178608,36.7873444 Z M30.5725655,36.4052658 L30.5725655,36.7873444 C30.5725655,37.384965 31.0596549,37.8674841 31.6603794,37.8669171 C32.2605328,37.8669171 32.7481932,37.384965 32.7481932,36.7873444 L32.7481932,36.4052658 C32.7481932,35.8099132 32.2611039,35.3262601 31.6603794,35.3262601 C31.0596549,35.3262601 30.5725655,35.8093462 30.5725655,36.4052658 Z M47.2523778,36.4058328 L47.2523778,36.7879114 C47.2523778,37.384965 47.7388961,37.8674841 48.3401917,37.8674841 C48.9403451,37.8674841 49.4280055,37.385532 49.4280055,36.7879114 L49.4280055,36.4058328 C49.4280055,35.8104802 48.9409161,35.3268271 48.3401917,35.3268271 C47.7394672,35.3268271 47.2523778,35.8099132 47.2523778,36.4058328 Z" id="Combined-Shape" fill="#C8C8C8"></path>
    </g>
</svg>