<svg width="351" height="94" xmlns="http://www.w3.org/2000/svg" xmlns:xlink="http://www.w3.org/1999/xlink">
  <defs>
    <path id="a" d="M.361279.0885311h20.7227586v15.7475345H.361279z"/>
    <path id="c" d="M.4229718.5763574h13.0403511v9.7550164H.4229718z"/>
    <path id="e" d="M.4678643.1673777H30.859503v21.4705232H.4678643z"/>
    <path id="g" d="M.1197714.4056203h4.3989513v18.3344812H.1197714z"/>
  </defs>
  <g fill="none" fill-rule="evenodd">
    <path fill="#ff6c00" d="M78 57l-21 8.4677489V73l21-8.4677489zM85 39L57 50.4200487V58l28-11.4192776zM99.9984919 18L57 35.5772402V43l43-17.5779952V18z"/>
    <g transform="translate(35.818182 57.163934)">
      <mask id="b" fill="#fff">
        <use xlink:href="#a"/>
      </mask>
      <path d="M21.0840376.0885311s-3.5503448 3.633246-10.5915987 4.9619673C4.6286144 6.1567607.361279 8.4228262.361279 8.4228262v7.413541s4.5870846-2.8934754 11.0114107-4.094c6.0549216-1.1311475 9.7113479-4.240295 9.7113479-4.240295V.0885311z" fill="#33B4E4" mask="url(#b)"/>
    </g>
    <path d="M56.9022194 42.4974s-4.7300313 4.9212459-14.1133542 6.2492131c-7.8139185 1.1062623-13.4994357 4.8571476-13.4994357 4.8571476v7.4135409s6.1128526-4.378295 14.6723511-5.5780655c8.0674608-1.1311476 12.9404388-5.5282951 12.9404388-5.5282951V42.4974zM56.9022194 27.703423s-7.3504702 7.8101967-21.928025 9.1381639c-12.139185 1.1062623-20.974044 8.4451475-20.974044 8.4451475v7.4127869s9.496928-7.965541 22.7962383-9.1653115c12.5349216-1.1311475 20.1058307-8.4172459 20.1058307-8.4172459v-7.413541z" fill="#33B4E4"/>
    <path d="M99.8126395 43.074059c-.6778683 0-1.1834483.2194426-1.5159875.6583279-.3317868.4403934-.4980564 1.0783606-.4980564 1.9131475 0 .9071804.1662696 1.5587213.4980564 1.9561312.3325392.3959016.8381192.5949836 1.5159875.5949836.6786207 0 1.1804389-.2020984 1.5062069-.6070492.3250157-.4034426.4867712-1.0512131.4867712-1.9440656 0-1.7140655-.6635737-2.5714754-1.9929781-2.5714754m0 7.2257705c-.692163 0-1.3105956-.0987869-1.8552978-.2971147-.5439499-.1975738-.9998746-.5173115-1.367022-.9561968-.113605.184-.2475235.3227541-.4032601.414-.1557367.0927541-.3047022.191541-.4453919.2971148-.141442.1063279-.2618182.245082-.3603762.4155082-.098558.1696721-.1482131.4170164-.1482131.743541v3.5276721h-2.3954859v-3.9733443c0-.4539672.0594357-.8295082.1798119-1.127377.1196238-.2971148.2753605-.544459.4664577-.743541.1903448-.199082.3949843-.3649836.6146708-.4992131.2189342-.1357377.424326-.2692131.6154232-.4034426.1903448-.1357377.3596238-.2842951.507837-.4464263.1489655-.1636393.2369906-.3800655.2655799-.6492787-.0142946-.1417704-.0248275-.2858032-.0315987-.4343606-.0075235-.1493115-.0112853-.3099344-.0112853-.4788525 0-.8649508.1098433-1.6009508.3295298-2.2110164.2189342-.6078032.5221317-1.0972131.9118495-1.4652131.3882132-.3695082.8516615-.6379672 1.3880878-.8083934.5371787-.1696721 1.1172414-.2548853 1.7386834-.2548853.6221944 0 1.2022571.0852132 1.7394357.2548853.5364264.1704262.9998746.4388852 1.3880878.8083934.3889655.368.6929154.8574099.9118495 1.4652131.2189342.6100656.3295298 1.3460656.3295298 2.2110164 0 .8362951-.1068338 1.5451476-.3182445 2.1250492-.212163.5821639-.5131034 1.0564918-.9013166 1.4244918-.3889655.368-.8516615.6379672-1.3888401.8068853-.5379311.1711803-1.1240126.2548852-1.7605016.2548852M106.6403762 35.9116328c0-.1410164.070721-.2119017.212163-.2119017h1.9719122c.141442 0 .212163.0708853.212163.2119017v11.0098361c0 .4238032.0812539.7186557.2437618.882295.1625078.1613771.4198119.2443279.7734169.2443279h.7425705c.2821317 0 .4950471.0806885.6357367.2443279.141442.1621311.212163.4419016.212163.8393114 0 .4388853-.0669592.7186558-.2008777.8400656-.1346709.1191476-.3498433.1794754-.647022.1794754h-1.6747335c-.8915361 0-1.5265204-.214918-1.9087147-.6485246-.381442-.4313442-.5725392-1.1070164-.5725392-2.0292786V35.9116328z" fill="#404042"/>
    <path d="M110.7959875 50.1511213c-.2828841 0-.4769906-.0708852-.5830721-.2119016-.1060815-.1417705-.1587461-.4034427-.1587461-.7865246 0-.4260656.0496552-.7156394.1482131-.8717377.0993104-.1553443.2964264-.2330164.5936051-.2330164h2.5444514c.282884 0 .4942946.0776721.636489.2330164.1406901.1560983.2121631.4253115.2121631.8083934 0 .4388853-.067712.7261967-.2023825.8596722-.1346709.1357377-.3498433.2020983-.6462696.2020983h-2.5444514z" fill="#404042"/>
    <path d="M113.3402884 50.1511213c-.282884 0-.4769906-.0708852-.5830721-.2119016-.1060815-.1417705-.1587461-.4034427-.1587461-.7865246 0-.4260656.0496552-.7156394.1482132-.8717377.0993103-.1553443.2964263-.2330164.593605-.2330164h2.5444516c.282884 0 .494294.0776721.636489.2330164.140689.1560983.212163.4253115.212163.8083934 0 .4388853-.067712.7261967-.202383.8596722-.13467.1357377-.349843.2020983-.646269.2020983h-2.5444516z" fill="#404042"/>
    <path d="M115.884589 50.1511213c-.282884 0-.47699-.0708852-.583072-.2119016-.106081-.1417705-.158746-.4034427-.158746-.7865246 0-.4260656.049655-.7156394.148213-.8717377.099311-.1553443.296427-.2330164.593605-.2330164h2.544452c.282884 0 .494294.0776721.636489.2330164.140689.1560983.212163.4253115.212163.8083934 0 .4388853-.067712.7261967-.202383.8596722-.134671.1357377-.349843.2020983-.646269.2020983h-2.544452z" fill="#404042"/>
    <path d="M118.428966 50.1511213c-.282884 0-.476991-.0708852-.583073-.2119016-.106081-.1417705-.158746-.4034427-.158746-.7865246 0-.4260656.049656-.7156394.148214-.8717377.09931-.1553443.296426-.2330164.593605-.2330164h2.544451c.282884 0 .494295.0776721.636489.2330164.14069.1560983.212163.4253115.212163.8083934 0 .4388853-.067712.7261967-.202382.8596722-.134671.1357377-.349844.2020983-.64627.2020983h-2.544451z" fill="#404042"/>
    <path d="M127.229367 47.3674426c.225705-.1410164.455172-.3121967.689153-.5097705.233229-.1983278.437869-.4155082.614671-.6492787.176803-.2330164.321254-.4848852.434859-.7540983.112853-.268459.169279-.5452131.169279-.8295082 0-.5799017-.208401-.9833443-.625204-1.2103279-.417554-.2269836-.950971-.3400983-1.601003-.3400983-.565768 0-1.057053.0573114-1.473856.168918-.417554.115377-.702695.2134098-.858432.2978688.650031.4124918 1.204514.9471476 1.6642 1.6054755.459687.6583278.787712 1.3988524.986333 2.2208196m-.318245-6.4188852c1.625079 0 2.812289.3054098 3.562383.9147213.749341.6085574 1.124012 1.4094098 1.124012 2.4010492 0 .4253114-.067711.8257377-.20163 1.2005246-.134671.3755409-.307711.7231803-.519122 1.0406557-.212915.3197377-.452915.6070492-.721505.8619344-.268589.2548853-.529655.4667869-.78395.6379672.112101.0279017.236239.0422295.370909.0422295h3.08464c.325016 0 .54395.0844591.657555.2548853.112852.1696721.169279.4539672.169279.8498688 0 .3966558-.066959.6628525-.20163.797082-.133919.1357377-.343072.2013443-.625204.2013443h-3.159122c-.509342 0-.993104-.0452459-1.452038-.138-.460439-.0912459-.894545-.2654427-1.304577-.5203279-.466457.2548852-.961504.429082-1.484388.5203279-.522884.0927541-.989342.138-1.399373.138h-3.053041c-.26859 0-.473229-.0701312-.615423-.2119017-.14069-.1410164-.212163-.4034426-.212163-.7865246 0-.368.045893-.6447541.138432-.8287541.091787-.1847541.321254-.276.689154-.276h2.480501c.225706 0 .480753-.0113114.763637-.0324262.282131-.0203606.614671-.0731475.996113-.1591147-.112853-.4682951-.264828-.8717377-.455173-1.2118361-.191097-.3400984-.407022-.6409836-.647774-.9026557-.24-.2624263-.498057-.4961968-.773417-.7013115-.275361-.2058689-.554483-.4079672-.837367-.605541-.155737-.1131148-.243762-.2164262-.26558-.3091803-.021066-.0912459-.031599-.1945574-.031599-.3076722V42.479377c0-.1560983.134671-.3257704.402508-.5097704.26859-.184.622947-.3506558 1.060815-.4992132.437869-.1493114.940439-.2744918 1.505455-.3725245.565768-.0987869 1.145078-.1493115 1.738683-.1493115" fill="#404042"/>
    <path d="M132.826483 50.1511213c-.282884 0-.494295-.0663606-.636489-.2020983-.14069-.1334755-.211411-.4064591-.211411-.8174427 0-.3974098.066959-.6771803.20163-.8393114.133919-.1636394.349091-.2443279.64627-.2443279h1.038997c.353605 0 .610909-.0821967.774169-.2443279.162508-.1636393.243009-.4584918.243009-.8822951V35.911482c0-.1410164.070721-.2119017.212916-.2119017h1.971912c.14069 0 .212163.0708853.212163.2119017v11.561836c0 .9222623-.191097 1.5979345-.573292 2.0300328-.381442.4328525-1.017178.6477705-1.907962.6477705h-1.971912zM142.431448 49.9389934c0 .1410164-.070721.2119017-.21141.2119017h-1.971913c-.142194 0-.212915-.0708853-.212915-.2119017V35.9112557c0-.1410164.070721-.2119016.212915-.2119016h1.971913c.140689 0 .21141.0708852.21141.2119016v14.0277377zM149.747009 49.6841836c0-.7661639.119624-1.5300656.360377-2.2962295.24-.7646557.536426-1.4229836.890783-1.9764918.055674-.0987869.162508-.1131148.318245-.0429836l1.716865.6809508c.070721.0294098.109843.0678689.116614.1176394.006772.0482622-.003009.1033114-.031598.1591147-.225706.3959016-.44163.8596721-.647022 1.3920656-.20464.5316393-.30696 1.1160656-.30696 1.7525246 0 .5535082.088026 1.0172787.264828 1.3928196.176803.3747869.40326.6764263.678621.9034099.27536.2269836.583072.3853442.922382.4780983.339311.092.671097.1372459.996865.1372459.819311 0 1.476113-.214918 1.971913-.6477705.494294-.4320983.741818-1.1296393.741818-2.093377V35.9113311c0-.1410164.070721-.2119016.212163-.2119016h1.971912c.141442 0 .212163.0708852.212163.2119016v10.8182951c0 .4253115.158746.751082.476991.9780656.318244.2269836.74558.3400984 1.282758.3400984h.339311c.282884 0 .495047.0784262.635736.2330164.141442.1560983.212916.4177704.212916.7865245 0 .4109837-.067712.6952787-.20163.8513771-.134671.1545902-.349844.2322623-.647022.2322623-.452163 0-.851662-.038459-1.197743-.1161312-.346834-.0784262-.647022-.2654426-.901317-.5640655v.2337705c0 .8091475-.123386 1.5157377-.371661 2.1258032-.247524.6093115-.600377 1.1160656-1.060063 1.5195082-.458934.4034427-1.007398.7043279-1.642383.9034099-.636489.1983278-1.344451.2971147-2.120877.2971147-.749342 0-1.438496-.0987869-2.067461-.2971147-.629718-.199082-1.176677-.4999672-1.643135-.9034099-.466458-.4034426-.830595-.9101967-1.092414-1.5195082-.261066-.6100655-.391975-1.3241967-.391975-2.1461639" fill="#404042"/>
    <path d="M162.236489 50.1511213c-.282884 0-.476991-.0708852-.583072-.2119016-.106082-.1417705-.158746-.4034427-.158746-.7865246 0-.4260656.049655-.7156394.148213-.8717377.09931-.1553443.296426-.2330164.593605-.2330164h2.544451c.282884 0 .494295.0776721.636489.2330164.14069.1560983.212163.4253115.212163.8083934 0 .4388853-.067711.7261967-.202382.8596722-.134671.1357377-.349843.2020983-.64627.2020983h-2.544451z" fill="#404042"/>
    <path d="M164.78079 50.1511213c-.282884 0-.476991-.0708852-.583072-.2119016-.106082-.1417705-.158746-.4034427-.158746-.7865246 0-.4260656.049655-.7156394.148213-.8717377.09931-.1553443.296426-.2330164.593605-.2330164h2.544451c.282884 0 .494295.0776721.636489.2330164.14069.1560983.212163.4253115.212163.8083934 0 .4388853-.067711.7261967-.202382.8596722-.134671.1357377-.349843.2020983-.64627.2020983h-2.544451z" fill="#404042"/>
    <path d="M167.325166 50.1511213c-.282884 0-.47699-.0708852-.583072-.2119016-.106081-.1417705-.158746-.4034427-.158746-.7865246 0-.4260656.049655-.7156394.148213-.8717377.09931-.1553443.296426-.2330164.593605-.2330164h2.544452c.282884 0 .494294.0776721.636489.2330164.140689.1560983.212163.4253115.212163.8083934 0 .4388853-.067712.7261967-.202383.8596722-.134671.1357377-.349843.2020983-.646269.2020983h-2.544452z" fill="#404042"/>
    <path d="M169.869467 50.1511213c-.282884 0-.476991-.0708852-.583072-.2119016-.106082-.1417705-.158746-.4034427-.158746-.7865246 0-.4260656.049655-.7156394.148213-.8717377.09931-.1553443.296426-.2330164.593605-.2330164h2.544451c.282885 0 .494295.0776721.63649.2330164.140689.1560983.212163.4253115.212163.8083934 0 .4388853-.067712.7261967-.202383.8596722-.134671.1357377-.349843.2020983-.64627.2020983h-2.544451z" fill="#404042"/>
    <path d="M178.690483 39.2063639c-.141442 0-.212163-.0708852-.212163-.2134098v-1.8279344c0-.1417705.070721-.2119017.212163-.2119017h1.780815c.141442 0 .21141.0701312.21141.2119017v1.8279344c0 .1425246-.069968.2134098-.21141.2134098h-1.780815zm-.573292 3.6332459c-.550721 0-1.027711.1741968-1.430972.5218361-.402507.3476393-.604137.8596721-.604137 1.540623 0 .7231803.197868 1.3060983.593605 1.7540327.395736.4464263.876489.789541 1.441504 1.0293443.552226-.2398033 1.025455-.582918 1.421191-1.0293443.394985-.4479344.593605-1.0308524.593605-1.7540327 0-.6809509-.19862-1.1929837-.593605-1.540623-.395736-.3476393-.868965-.5218361-1.421191-.5218361zm-2.183323-3.6332459c-.142194 0-.212163-.0708852-.212163-.2134098v-1.8279344c0-.1417705.069969-.2119017.212163-.2119017h1.780815c.141442 0 .212163.0701312.212163.2119017v1.8279344c0 .1425246-.070721.2134098-.212163.2134098h-1.780815zm2.183323 1.7427213c1.442257 0 2.545204.3431148 3.30884 1.0308525.762884.6877377 1.144326 1.6039672 1.144326 2.752459 0 .6937705-.158746 1.3272131-.47699 1.9018361-.317492.5738688-.74558 1.0451803-1.282759 1.4139344h3.010909c.282132 0 .495047.0663607.636489.2013443.141442.1342295.211411.4004262.211411.7970819 0 .4109836-.066959.6982951-.200878.8596722-.134671.1636393-.349843.2450819-.647022.2450819h-2.947711c-.507837 0-.989342-.0211147-1.441505-.0633442-.452163-.0429836-.88326-.191541-1.293292-.4464263-.46721.2548853-.965266.4034427-1.494921.4464263-.530408.0422295-1.000627.0633442-1.410659.0633442h-2.819811c-.282884 0-.494295-.084459-.635737-.2548852-.141442-.1696721-.212163-.4464262-.212163-.8295082 0-.4109836.066959-.6832131.20163-.8174426.134671-.1349836.349843-.2013443.64627-.2013443h2.989843c-.522884-.3687541-.943448-.8400656-1.261693-1.4139344-.318244-.574623-.476991-1.2080656-.476991-1.9018361 0-1.1484918.381442-2.0647213 1.145079-2.752459.762884-.6877377 1.865831-1.0308525 3.307335-1.0308525z" fill="#404042"/>
    <path d="M186.174345 39.2063639c-.14069 0-.211411-.0708852-.211411-.2134098v-1.8279344c0-.1417705.070721-.2119017.211411-.2119017h2.035862c.141442 0 .212163.0701312.212163.2119017v1.8279344c0 .1425246-.070721.2134098-.212163.2134098h-2.035862zm2.205893 7.5236394c0 .4253115.158746.7510819.476238.9773115.318245.2269836.746333.3408524 1.283511.3408524h.360377c.282884 0 .494294.0776721.636489.2322623.140689.1560984.21141.4185246.21141.7865246 0 .4109836-.066959.6952787-.20163.851377-.133918.1545902-.349091.2330164-.646269.2330164-.550721 0-1.032226-.0663606-1.442257-.2020983-.410032-.1342295-.735047-.4283279-.975047-.8822951-.198621.4109836-.491286.6952787-.880251.851377-.388213.1545902-.92163.2330164-1.601003.2330164h-1.674734c-.282132 0-.495047-.046-.636489-.1387541-.141442-.0912459-.211411-.2933442-.211411-.6055409 0-.3529181.06696-.6681312.200878-.9456394.134671-.2767541.357367-.4132459.668088-.4132459h1.017931c.24 0 .431097-.0354426.572539-.1063279.141442-.0723934.243762-.184.306959-.3400983.06395-.1560984.10232-.3627213.117367-.6176066.013542-.2541311.021066-.5655737.021066-.9350819v-4.5049836c0-.1417705.070721-.2126558.211411-.2126558h1.971912c.141442 0 .212915.0708853.212915.2126558v5.1859344z" fill="#404042"/>
    <path d="M190.394583 50.1511213c-.282884 0-.494295-.0663606-.636489-.2020983-.14069-.1334755-.211411-.4064591-.211411-.8174427 0-.3974098.06696-.6771803.20163-.8393114.133919-.1636394.349091-.2443279.64627-.2443279h1.038997c.353605 0 .610909-.0821967.774169-.2443279.162508-.1636393.24301-.4584918.24301-.8822951V35.911482c0-.1410164.070721-.2119017.212915-.2119017h1.971912c.14069 0 .212163.0708853.212163.2119017v11.561836c0 .9222623-.191097 1.5979345-.573291 2.0300328-.381442.4328525-1.017179.6477705-1.907963.6477705h-1.971912zM199.999549 49.9389934c0 .1410164-.070721.2119017-.211411.2119017h-1.971912c-.142195 0-.212916-.0708853-.212916-.2119017V35.9112557c0-.1410164.070721-.2119016.212916-.2119016h1.971912c.14069 0 .211411.0708852.211411.2119016v14.0277377zM212.213442 38.3564951c-.141442 0-.212163-.0708853-.212163-.2134099v-1.8279344c0-.1417705.070721-.2119016.212163-.2119016h1.780815c.141442 0 .211411.0701311.211411.2119016v1.8279344c0 .1425246-.069969.2134099-.211411.2134099h-1.780815zm-.700439 8.8191803c.679373 0 1.180439-.1938033 1.505455-.5844262.325768-.3891148.488276-.9592131.488276-1.7102951v-1.8068197h-1.887649c-.6079 0-1.095424.1560984-1.462571.4667869-.3679.3121967-.551473.8868197-.551473 1.7216066 0 .6522951.170031 1.1341639.508589 1.4463606.33931.3106885.805768.4667869 1.399373.4667869zm-2.056175-8.8191803c-.142195 0-.212163-.0708853-.212163-.2134099v-1.8279344c0-.1417705.069968-.2119016.212163-.2119016h1.780815c.141442 0 .212163.0701311.212163.2119016v1.8279344c0 .1425246-.070721.2134099-.212163.2134099h-1.780815zm4.049906 2.5925901v-.9132131c0-.1432787.069968-.2141639.212163-.2141639h1.950846c.14069 0 .211411.0708852.211411.2141639v6.8849181c0 .4245573.081254.7194098.243761.882295.162508.1621312.420565.245082.774922.245082h.805016c.565768 0 .848652.352918.848652 1.0617705 0 .4253115-.067712.705082-.20163.8393115-.135424.1357377-.350596.2020983-.647022.2020983h-1.716866c-.692915 0-1.233855-.1199016-1.622821-.3612131-.388965-.2413114-.646269-.6658688-.774169-1.2751803-.296426.2548852-.650031.4464262-1.060063.5738689-.410031.1266885-.840376.1915409-1.293291.1915409-.550721 0-1.070596-.0776721-1.558119-.2337705-.488276-.1560983-.91185-.3966557-1.272979-.7231803-.359623-.3257705-.646269-.7397705-.858432-1.2435082-.211411-.5022295-.318245-1.1085246-.318245-1.817377 0-.820459.116615-1.5081968.350596-2.0601968.232476-.5542622.543197-.9961639.932163-1.3287213.388965-.3325573.831348-.5700983 1.325643-.7126229.494294-.1417705 1.011159-.2119017 1.547586-.2119017h2.120878z" fill="#404042"/>
    <path d="M217.958997 50.1511213c-.282884 0-.476991-.0708852-.583072-.2119016-.106082-.1417705-.158746-.4034427-.158746-.7865246 0-.4260656.049655-.7156394.148213-.8717377.09931-.1553443.296426-.2330164.593605-.2330164h2.544451c.282884 0 .494295.0776721.636489.2330164.14069.1560983.212163.4253115.212163.8083934 0 .4388853-.067711.7261967-.202382.8596722-.134671.1357377-.349843.2020983-.64627.2020983h-2.544451z" fill="#404042"/>
    <path d="M220.50405 50.1511213c-.282884 0-.47699-.0708852-.583072-.2119016-.106081-.1417705-.158746-.4034427-.158746-.7865246 0-.4260656.049655-.7156394.148213-.8717377.09931-.1553443.296426-.2330164.593605-.2330164h2.544452c.282884 0 .494294.0776721.636489.2330164.140689.1560983.212163.4253115.212163.8083934 0 .4388853-.067712.7261967-.202383.8596722-.134671.1357377-.349843.2020983-.646269.2020983h-2.544452z" fill="#404042"/>
    <path d="M223.048351 50.1511213c-.282884 0-.47699-.0708852-.583072-.2119016-.106082-.1417705-.158746-.4034427-.158746-.7865246 0-.4260656.049655-.7156394.148213-.8717377.09931-.1553443.296426-.2330164.593605-.2330164h2.544452c.282884 0 .494294.0776721.636489.2330164.140689.1560983.212163.4253115.212163.8083934 0 .4388853-.067712.7261967-.202383.8596722-.134671.1357377-.349843.2020983-.646269.2020983h-2.544452z" fill="#404042"/>
    <path d="M225.592652 50.1511213c-.282884 0-.476991-.0708852-.583072-.2119016-.106082-.1417705-.158746-.4034427-.158746-.7865246 0-.4260656.049655-.7156394.148213-.8717377.09931-.1553443.296426-.2330164.593605-.2330164h2.544451c.282884 0 .494295.0776721.636489.2330164.14069.1560983.212163.4253115.212163.8083934 0 .4388853-.067711.7261967-.202382.8596722-.134671.1357377-.349843.2020983-.64627.2020983h-2.544451z" fill="#404042"/>
    <path d="M229.833505 38.1856918c-.099311-.1410164-.179812-.3046557-.243762-.4886557-.06395-.1847541-.095549-.3966558-.095549-.6379672 0-.2254755.042132-.46.127148-.7013115.085015-.2398033.218934-.4637705.40326-.6688853.182821-.2058688.426583-.3725246.731285-.5007213.30395-.1266885.667336-.1900328 1.092414-.1900328.423574 0 .812539.0814427 1.166144.245082.352853.161377.614671.3634754.784702.6047869.04138.0987869.033856.1696721-.021818.2126557l-.636489.5949836c-.042132.0422295-.098558.0294099-.169279-.0429836-.141442-.1410164-.30395-.2548852-.488276-.3400983-.183573-.083705-.395736-.1266886-.634984-.1266886-.33931 0-.598119.0957705-.774922.2873115-.176802.191541-.264827.4207869-.264827.6907541 0 .2827869.070721.5097705.212163.6786885.141442.1711804.289655.2978689.445392.383082h2.311222c.084263 0 .127147.0497705.127147.1485574v.8295082c0 .0987869-.042884.1485574-.127147.1485574h-4.664577c-.085015 0-.127899-.0497705-.127899-.1485574v-.8295082c0-.0987869.042884-.1485574.127899-.1485574h.720753zm2.862696 8.5439344c0 .4260656.158746.751082.476238.9780656.318244.2269836.746332.3400984 1.283511.3400984h.360376c.282884 0 .494295.0784262.636489.2330164.14069.1560983.211411.4177704.211411.7865245 0 .4109837-.06696.6952787-.20163.8513771-.133919.1545902-.349091.2322623-.64627.2322623-.550721 0-1.032226-.0663607-1.442257-.2013443-.410031-.1342295-.735047-.4290819-.975047-.8822951-.198621.4109837-.491285.6952787-.880251.8513771-.388213.1545902-.92163.2322623-1.601003.2322623h-1.674734c-.282131 0-.494294-.0452459-.636489-.138-.140689-.0912459-.21141-.2933443-.21141-.605541 0-.3536721.066959-.6688852.200878-.9456393.13467-.2767541.357366-.414.668087-.414h1.017931c.24 0 .431098-.0354427.57254-.1055738.141442-.0723934.244514-.1847541.307711-.3408525.063198-.1560983.101568-.3619672.116615-.6168524.013542-.2548853.021065-.5655738.021065-.935082v-4.5057377c0-.1410164.070721-.2119016.211411-.2119016h1.971912c.141442 0 .212916.0708852.212916.2119016v5.1859344z" fill="#404042"/>
    <path d="M238.759549 54.232377c-.14069 0-.211411-.0708852-.211411-.2119016V52.192541c0-.1432787.070721-.2134099.211411-.2134099h1.781567c.141442 0 .211411.0701312.211411.2134099v1.8279344c0 .1410164-.069969.2119016-.211411.2119016h-1.781567zm-2.756615 0c-.141442 0-.21141-.0708852-.21141-.2119016V52.192541c0-.1432787.069968-.2134099.21141-.2134099h1.781568c.141442 0 .21141.0701312.21141.2134099v1.8279344c0 .1410164-.069968.2119016-.21141.2119016h-1.781568zm3.308088-5.1655737c-.197868.4109836-.498809.6952787-.901317.851377-.402508.1545902-.943448.2330164-1.622069.2330164h-1.971912c-.282132 0-.494295-.0663606-.636489-.2020983-.14069-.1334754-.211411-.4004263-.211411-.7963279 0-.4109836.06696-.6982951.200878-.8604262.134671-.1636394.349843-.2443279.647022-.2443279h1.378307c.255047 0 .449154-.0399672.583072-.1176394.133919-.076918.233229-.1975737.297179-.3612131.063198-.1621311.10232-.3755409.116615-.6379672.014294-.2616721.021065-.5844262.021065-.966V41.543918c0-.0852131.03837-.1417705.116615-.1696721.077492-.0294098.159498-.0422295.243762-.0422295h1.823699c.140689 0 .212163.0701311.212163.2119016v5.1859345c0 .4253114.158746.7510819.47699.9780655.318245.2262295.74558.3400984 1.282759.3400984h.360376c.282132 0 .495047.0776721.636489.2322623.14069.1560983.211411.4185246.211411.7865246 0 .4109836-.06696.6952787-.200878.851377-.134671.1545902-.349843.2330164-.647022.2330164-.551473 0-1.032226-.0663606-1.442257-.2020983-.410031-.1334754-.734295-.4283279-.975047-.8822951z" fill="#404042"/>
    <g transform="translate(240.45768 39.819672)">
      <mask id="d" fill="#fff">
        <use xlink:href="#c"/>
      </mask>
      <path d="M6.3808401 5.273636c-.3957366 0-.7034483.1312132-.9223824.3928853-.2196865.2624262-.3280251.6334426-.3280251 1.1153115 0 .4961967.098558.8619344.2964263 1.0957049.1978684.2330164.4732289.3642295.8268339.3936393h.2339812c.3671473-.0294098.6425078-.1606229.8260815-.3936393.1835736-.2337705.2753605-.5995082.2753605-1.095705 0-.4818688-.1015674-.8528852-.3069593-1.1153114-.2046395-.2616721-.5055799-.3928852-.9013166-.3928852zm-5.1099686 5.0577378c-.282884 0-.4942947-.0806886-.636489-.2443279-.1406897-.1621312-.2114107-.429082-.2114107-.797082 0-.4109836.0669592-.690754.20163-.8393114.1339186-.1485574.349091-.222459.6462697-.222459h2.3533542c-.1978683-.4253115-.2971787-.9222623-.2971787-1.4878361 0-.5535082.0820063-1.027836.2445141-1.4237377.1617555-.3966558.3844514-.7231804.6673354-.9780656.282884-.2548853.6078997-.4434098.9757994-.5625574.3671474-.1206557.7561129-.1817377 1.1661442-.1817377.8907837 0 1.6295925.2548853 2.215674.7646558.5868339.5112786.8802508 1.3053442.8802508 2.3814426 0 .2269836-.017304.4743278-.0526646.744295-.0361128.267705-.0887774.5165574-.1594984.743541.353605 0 .6432602-.0429836.8697178-.1281967.2257054-.085213.4025079-.214918.5296552-.3928852.1271474-.1772131.2129154-.4041967.2542947-.6809508.042884-.275246.0639498-.598.0639498-.966 0-1.0489509-.2964263-1.885246-.8900313-2.5081312-.593605-.6228852-1.5054546-.935082-2.7355486-.935082-.4807524 0-.9863323.0497705-1.5167398.1485574-.5296552.1002951-1.0638245.2692131-1.6010032.5097705-.0842633.0573115-.1557366.0852131-.2114106.0852131-.0714734 0-.1128527-.0279016-.1271473-.085213l-.5093417-1.2962952c-.0285894-.0837049-.0421317-.1485573-.0421317-.191541 0-.0708852.0353605-.1266885.1060815-.169672 1.328652-.6937706 2.7701567-1.04141 4.3252665-1.04141 1.1172414 0 2.0426332.1636394 2.7784326.48941.7342946.3257704 1.3181191.7465573 1.7492163 1.2638688.4303448.5180655.7312852 1.0987213.9005642 1.7434754.1700314.644.2550471 1.2932787.2550471 1.9440655 0 .7940656-.0639499 1.4629509-.1910972 2.008918-.1271474.5452132-.3355486.988623-.6259561 1.3272132-.2896552.3400984-.6680878.5889508-1.1345455.7450492-.4657053.1553442-1.0314733.2330164-1.6957994.2330164H1.2708715z" fill="#404042" mask="url(#d)"/>
    </g>
    <path d="M94.8210157 60.0051508c.3016928 0 .5371787-.0784262.704953-.2367869.1662695-.1583606.2505329-.3732787.2505329-.644 0-.2699672-.0842634-.4863934-.2505329-.6477705-.1677743-.1606229-.4032602-.2420655-.704953-.2420655h-1.0811286c-.0383699 0-.057931.0196065-.057931.0580655v1.6544918c0 .0392132.0195611.0580656.057931.0580656h1.0811286zm-2.4609405 3.5789508c-.0639498 0-.0963009-.0324262-.0963009-.0965246v-6.3849508c0-.0640983.0323511-.0965246.0963009-.0965246h2.5474609c.353605 0 .6726018.0520328.9554858.1553443.2836364.1025574.5243888.2480984.7245142.4351148.1986206.1870163.3498432.4094754.4529153.6666229.1030721.2586557.154232.5452131.154232.8611803 0 .3099345-.0526646.5934754-.1594984.8513771-.1053292.2586557-.2565518.4811147-.4529154.6681311-.1963636.1870164-.4356113.3318033-.7192477.4351148-.282884.1033115-.6018808.1545901-.9554858.1545901h-1.167649c-.0383699 0-.057931.0188525-.057931.0580656v2.1959344c0 .0640984-.0323511.0965246-.0970533.0965246h-1.2248276zM101.5473354 63.6902787c-.366395 0-.704953-.0542951-1.0134169-.1643935-.3092163-.1093442-.5740439-.2707213-.7959875-.483377-.2219435-.2134098-.396489-.4773443-.5213793-.7933115-.1256426-.3159672-.1888401-.6771803-.1888401-1.0836393v-4.0623279c0-.0640984.0323511-.0965246.0970533-.0965246h1.2255799c.0639499 0 .096301.0324262.096301.0965246v4.101541c0 .3936393.1000627.6960328.3001881.9086885.1986206.2126558.4657053.3197377.8005015.3197377.3280251 0 .591348-.1070819.7914734-.3197377.1986207-.2126557.2986834-.5150492.2986834-.9086885v-4.101541c0-.0640984.0323511-.0965246.0970533-.0965246h1.2255799c.0639498 0 .0963009.0324262.0963009.0965246v4.0623279c0 .406459-.0624451.7676721-.1880877 1.0836393-.1256427.3159672-.2986834.5799017-.520627.7933115-.2219436.2126557-.4867712.3740328-.7914734.483377-.3062069.1100984-.6425078.1643935-1.0089028.1643935M107.6565016 62.3749803c0 .0392131.0188087.0580656.057931.0580656h1.0811285c.2889028 0 .5093417-.0731475.6613166-.2179344.1504703-.1447869.2257054-.3461312.2257054-.6047869 0-.2511148-.0752351-.4509508-.2257054-.5995082-.1519749-.1478033-.3724138-.222459-.6613166-.222459h-1.0811285c-.0391223 0-.057931.0196065-.057931.0588196v1.5278033zm1.0615674-2.6800655c.270094 0 .4807523-.0671148.6319749-.2020984.1512226-.1357377.22721-.3257705.22721-.5708525 0-.2450819-.0759874-.4336065-.22721-.5663278-.1512226-.1319672-.3618809-.1983279-.6319749-.1983279h-1.0036364c-.0391223 0-.057931.0196066-.057931.0580656v1.4222295c0 .038459.0188087.0573115.057931.0573115h1.0036364zm-2.4805016-2.5918361c0-.0640984.0323511-.0965246.0963009-.0965246h2.5579938c.7139812 0 1.2413793.161377 1.5821943.483377.3408151.3227541.5123511.7450492.5123511 1.2668853 0 .3619672-.072978.6545574-.2174294.8807869-.1452038.2254754-.3272728.3996721-.5454546.521836v.0196066c.1098433.0392131.2166771.1018033.323511.1885246.1053291.0874754.1986207.1953115.2798746.3242623.0797492.1289508.1459561.276.1978683.4403934.0511599.1636394.0767398.3431148.0767398.536164 0 .652295-.2008777 1.1334098-.6033855 1.4463606-.4017555.3129508-.96.4698033-1.6739812.4698033h-2.4902822c-.0639498 0-.0963009-.0324262-.0963009-.0965246v-6.3849508zM113.0802006 57.1029279c0-.0640984.0323511-.0965246.096301-.0965246h1.2255804c.064702 0 .097053.0324262.097053.0965246v5.1557705c0 .0392131.018809.0580655.057931.0580655h2.895047c.06395 0 .096301.0324263.096301.0972787v1.0738361c0 .0640983-.032351.0965246-.096301.0965246h-4.2756114c-.0639499 0-.096301-.0324263-.096301-.0965246v-6.3849508zM119.343674 57.1029279c0-.0640984.032351-.0965246.096301-.0965246h1.22558c.064702 0 .097053.0324262.097053.0965246v6.3849508c0 .0640983-.032351.0965246-.097053.0965246h-1.22558c-.06395 0-.096301-.0324263-.096301-.0965246v-6.3849508zM122.981969 62.0753016c-.039123-.1033114-.069217-.2081311-.091787-.314459-.022571-.1070819-.040627-.2262295-.052665-.3581967-.013542-.1312131-.023323-.2865574-.028589-.4645246-.006771-.176459-.010533-.391377-.010533-.6424918 0-.2518688.003762-.4667869.010533-.644.005266-.176459.015047-.3318033.028589-.4637705.012038-.1327213.030094-.2496065.052665-.3536721.02257-.1033115.052664-.2088853.091787-.3189836.17304-.5414426.461191-.9463935.863699-1.2140984.402508-.2677049.89304-.4011803 1.471598-.4011803.560502 0 1.034483.1274426 1.423449.3823279.389718.2541311.677116.613836.864451 1.0783606.031599.0580656.0158.0965246-.048903.1161312l-1.051787.4735737c-.057931.0324263-.103072.0165902-.13467-.0482623-.090282-.2126557-.21743-.3898688-.381442-.5316393-.164765-.1425246-.385204-.2126557-.661317-.2126557-.257304 0-.467962.0648524-.631975.1938032-.164012.1281968-.282132.306164-.3521.5316394-.019561.0580656-.035361.1206557-.048903.1885246-.012038.0671147-.023323.1530819-.033856.2556393-.009028.1033115-.015799.2330164-.018809.3876066-.003009.1545901-.004514.3483934-.004514.5806557 0 .2315082.001505.4253115.004514.5799016.00301.1545902.009781.283541.018809.3868525.010533.1040656.021818.1892787.033856.2571475.013542.0671148.029342.1304591.048903.1885246.069968.2254754.188088.4026886.3521.5316394.164013.1289508.374671.1938033.631975.1938033.276113 0 .496552-.0708853.661317-.2134099.164012-.1417705.29116-.3189836.381442-.5323934.031598-.0640984.076739-.0799344.13467-.0475082l1.051787.4735738c.064703.0196065.080502.0580655.048903.1161311-.187335.4645246-.474733.8242295-.864451 1.0791148-.388966.2548852-.862947.3815737-1.423449.3815737-.578558 0-1.06909-.1334754-1.471598-.4019344-.402508-.2669508-.690659-.6719016-.863699-1.2133443M134.051235 63.584177c-.06395 0-.096301-.0324262-.096301-.0965245v-5.1565246c0-.038459-.018809-.0573115-.057931-.0573115h-1.659686c-.064703 0-.097054-.0324262-.097054-.0972787v-1.0738361c0-.0640983.032351-.0965246.097054-.0965246h4.854169c.06395 0 .096301.0324263.096301.0965246v1.0738361c0 .0648525-.032351.0972787-.096301.0972787h-1.659687c-.039122 0-.057931.0188525-.057931.0573115v5.1565246c0 .0640983-.032351.0965245-.097053.0965245h-1.22558zM141.56963 59.8697148c.270094 0 .486019-.0746558.64627-.2224591.161003-.1485573.241504-.3483934.241504-.6002623 0-.2443278-.080501-.4411475-.241504-.5897049-.160251-.1478033-.376176-.222459-.64627-.222459h-1.157868c-.039123 0-.057931.0188525-.057931.0580656v1.5187541c0 .0392131.018808.0580656.057931.0580656h1.157868zm.993856 3.7146885c-.070721 0-.118872-.0324263-.144452-.0965246l-1.129279-2.4085902h-.877993c-.039123 0-.057931.0188525-.057931.0580656v2.3505246c0 .0640983-.032351.0965246-.097054.0965246h-1.22558c-.063949 0-.0963-.0324263-.0963-.0965246v-6.3849508c0-.0640984.032351-.0965246.0963-.0965246h2.615925c.334044 0 .637994.0505246.911097.1493115.273856.100295.50859.2413114.704953.4215409.196364.1802295.347587.3959017.453668.6477705.106082.2511148.158746.5263607.158746.8219672 0 .4260656-.10232.797082-.308464 1.1130492-.205392.3159672-.492037.5542623-.858432.7156394l1.292539 2.591836c.01279.0324263.01279.0603279 0 .0829509-.01279.0226229-.034608.0339344-.066959.0339344h-1.370784zM149.154834 61.1274754l-.742571-2.3030164h-.028589l-.744075 2.3030164h1.515235zm-1.476113-4.0246229c.018809-.0640984.06094-.0965246.12489-.0965246h1.216552c.06395 0 .106082.0324262.12489.0965246l2.220188 6.3849508c.019562.0640983-.003009.0965246-.066959.0965246h-1.254921c-.064703 0-.106834-.0324263-.125643-.0965246l-.376176-1.1515082h-2.296928l-.367147 1.1515082c-.019561.0640983-.06094.0965246-.12489.0965246h-1.264702c-.064703 0-.086521-.0324263-.067712-.0965246l2.258558-6.3849508zM153.083386 57.1029279c0-.0640984.032351-.0965246.096301-.0965246h1.157868c.071473 0 .125642.0324262.164765.0965246l2.315736 4.14h.048151v-4.14c0-.0640984.032351-.0965246.096301-.0965246h1.090909c.06395 0 .096301.0324262.096301.0965246v6.3849508c0 .0640983-.032351.0965246-.096301.0965246h-1.148088c-.071473 0-.125642-.0324263-.164765-.0965246l-2.324765-4.1309508h-.048902v4.1309508c0 .0640983-.032352.0965246-.096301.0965246h-1.090909c-.06395 0-.096301-.0324263-.096301-.0965246v-6.3849508zM162.570082 63.6902787c-.257305 0-.510095-.0233771-.757618-.0723935-.247524-.0482622-.480752-.1123606-.699687-.1938032-.218934-.0799345-.419811-.1749509-.603385-.2842951-.182821-.1100984-.33931-.2262295-.467963-.3483935-.051912-.0520327-.054921-.1070819-.00978-.1643934l.734295-.8415738c.037617-.0520328.08652-.0558032.144451-.0098032.218182.1734426.472476.3295409.762132.4690491.288902.1387541.607899.2073771.955486.2073771.347586 0 .613166-.0716394.795987-.2171803.183574-.1447869.275361-.3340656.275361-.5663279 0-.1938033-.071474-.3506558-.212164-.4743279-.142194-.1221639-.408526-.2088852-.801253-.2601639l-.347587-.0490164c-.66884-.0897377-1.181943-.2940984-1.53931-.6138361-.357367-.3189836-.535674-.7729508-.535674-1.3596393 0-.3023935.054922-.5783935.164013-.8272459.109843-.2480984.26558-.4592459.467962-.6326885.203135-.1741968.446897-.3099345.733542-.4072132.286646-.0957705.606395-.1447868.96-.1447868.437869 0 .849405.061836 1.236113.184.385956.1221639.716991.2903278.993856.5029836.057179.038459.06395.0867213.019561.1455409l-.589843.8800328c-.037618.0512787-.082759.0618361-.133919.0294099-.251285-.168164-.500313-.2940984-.747837-.3778033-.248276-.0837049-.507084-.1251803-.777931-.1251803-.288903 0-.507837.0678688-.65605.2020983-.148213.1357377-.221943.3069181-.221943.513541 0 .1870164.075987.3416066.22721.4637705.15047.122918.41605.2096393.795987.2616721l.347586.0482623c.68163.0897377 1.196991.2948525 1.543825.6145902.347586.3189836.521379.7782295.521379 1.3777377 0 .2963606-.054169.5731147-.164013.828-.10909.2541311-.271598.4728197-.487523.6575738-.215925.1832459-.484514.3265245-.805768.429836-.321254.1033115-.695172.1545902-1.119498.1545902M169.615248 60.0051508c.301692 0 .537178-.0784262.704953-.2367869.166269-.1583606.250533-.3732787.250533-.644 0-.2699672-.084264-.4863934-.250533-.6477705-.167775-.1606229-.403261-.2420655-.704953-.2420655h-1.081129c-.03837 0-.057931.0196065-.057931.0580655v1.6544918c0 .0392132.019561.0580656.057931.0580656h1.081129zm-2.460941 3.5789508c-.06395 0-.096301-.0324262-.096301-.0965246v-6.3849508c0-.0640983.032351-.0965246.096301-.0965246h2.547461c.353605 0 .672602.0520328.955486.1553443.283636.1025574.524389.2480984.724514.4351148.198621.1870163.349843.4094754.452915.6666229.103072.2586557.154232.5452131.154232.8611803 0 .3099345-.052664.5934754-.159498.8513771-.105329.2586557-.256552.4811147-.452915.6681311-.196364.1870164-.435612.3318033-.719248.4351148-.282884.1033115-.601881.1545901-.955486.1545901h-1.167649c-.03837 0-.057931.0188525-.057931.0580656v2.1959344c0 .0640984-.032351.0965246-.097053.0965246h-1.224828zM176.255649 62.4331967c.269342 0 .492038-.0648524.665831-.1938033.17304-.1289508.295674-.3061639.366395-.5316393.018808-.0580656.03536-.1244262.048902-.199082.012038-.0731475.024076-.1636393.033104-.2699672.00978-.1070819.016552-.2367869.019561-.3921311.003009-.1553443.005266-.3385902.005266-.5512459 0-.2126558-.002257-.3966558-.005266-.5512459-.003009-.1545902-.009781-.2850492-.019561-.3921312-.009028-.1063278-.021066-.1968197-.033104-.2707213-.013542-.0739016-.030094-.1402623-.048902-.1983279-.070721-.2254754-.193355-.4026885-.366395-.5316393-.173793-.1289508-.396489-.1938033-.665831-.1938033-.270094 0-.492038.0648525-.666583.1938033-.173041.1289508-.295674.3061639-.366395.5316393-.018809.0580656-.035361.1244263-.048151.1983279-.01279.0739016-.024075.1643935-.033855.2707213-.009781.107082-.016552.237541-.019562.3921312-.003009.1545901-.004514.3385901-.004514.5512459 0 .2126557.001505.3959016.004514.5512459.00301.1553442.009781.2850492.019562.3921311.00978.1063279.021065.1968197.033855.2699672.01279.0746558.029342.1410164.048151.199082.070721.2254754.193354.4026885.366395.5316393.174545.1289509.396489.1938033.666583.1938033m0 1.257082c-.573292 0-1.073605-.1319672-1.500941-.3959017-.427335-.2646885-.725266-.6643606-.89304-1.1997704-.03837-.1168853-.068464-.2292459-.091787-.3385902-.022571-.1093443-.039875-.2322623-.052665-.368-.013542-.1349836-.02257-.2903279-.028589-.4637705-.006771-.1741967-.010533-.3838361-.010533-.628918 0-.245082.003762-.4547213.010533-.6289181.006019-.1734426.015047-.3287868.028589-.4637705.01279-.1357377.030094-.2586557.052665-.368.023323-.1093442.053417-.222459.091787-.3385901.167774-.528623.465705-.9267869.89304-1.1952459.427336-.2669508.927649-.4011803 1.500941-.4011803.572539 0 1.072853.1342295 1.500188.4011803.428088.268459.725266.6666229.893041 1.1952459.03837.1161311.068464.2292459.091787.3385901.02257.1093443.039874.2322623.052664.368.013542.1349837.022571.2903279.029342.4637705.006019.1741968.00978.3838361.00978.6289181 0 .2450819-.003761.4547213-.00978.628918-.006771.1734426-.0158.3287869-.029342.4637705-.01279.1357377-.030094.2586557-.052664.368-.023323.1093443-.053417.2217049-.091787.3385902-.167775.5354098-.464953.9350819-.893041 1.1997704-.427335.2639345-.927649.3959017-1.500188.3959017M183.502897 59.8697148c.270094 0 .486018-.0746558.646269-.2224591.161003-.1485573.241505-.3483934.241505-.6002623 0-.2443278-.080502-.4411475-.241505-.5897049-.160251-.1478033-.376175-.222459-.646269-.222459h-1.157869c-.039122 0-.057931.0188525-.057931.0580656v1.5187541c0 .0392131.018809.0580656.057931.0580656h1.157869zm.993855 3.7146885c-.070721 0-.118871-.0324263-.144451-.0965246l-1.129279-2.4085902h-.877994c-.039122 0-.057931.0188525-.057931.0580656v2.3505246c0 .0640983-.032351.0965246-.097053.0965246h-1.22558c-.06395 0-.096301-.0324263-.096301-.0965246v-6.3849508c0-.0640984.032351-.0965246.096301-.0965246h2.615925c.334044 0 .637993.0505246.911097.1493115.273856.100295.508589.2413114.704953.4215409.196364.1802295.347586.3959017.453668.6477705.106081.2511148.158746.5263607.158746.8219672 0 .4260656-.10232.797082-.308464 1.1130492-.205392.3159672-.492038.5542623-.858433.7156394l1.292539 2.591836c.01279.0324263.01279.0603279 0 .0829509-.01279.0226229-.034608.0339344-.066959.0339344h-1.370784zM189.274107 63.584177c-.06395 0-.096301-.0324262-.096301-.0965245v-5.1565246c0-.038459-.018809-.0573115-.057931-.0573115h-1.659687c-.064702 0-.097053-.0324262-.097053-.0972787v-1.0738361c0-.0640983.032351-.0965246.097053-.0965246h4.854169c.06395 0 .096301.0324263.096301.0965246v1.0738361c0 .0648525-.032351.0972787-.096301.0972787h-1.659686c-.039122 0-.057931.0188525-.057931.0573115v5.1565246c0 .0640983-.032351.0965245-.097053.0965245h-1.22558zM200.527022 61.1274754l-.742571-2.3030164h-.028589l-.744075 2.3030164h1.515235zm-1.476113-4.0246229c.018809-.0640984.060941-.0965246.12489-.0965246h1.216552c.06395 0 .106082.0324262.12489.0965246l2.220188 6.3849508c.019562.0640983-.003009.0965246-.066959.0965246h-1.254921c-.064703 0-.106834-.0324263-.125643-.0965246l-.376176-1.1515082h-2.296927l-.367148 1.1515082c-.019561.0640983-.06094.0965246-.12489.0965246h-1.264702c-.064702 0-.086521-.0324263-.067712-.0965246l2.258558-6.3849508zM206.714132 63.6902787c-.366395 0-.704953-.0542951-1.013417-.1643935-.309217-.1093442-.574044-.2707213-.795988-.483377-.221943-.2134098-.396489-.4773443-.521379-.7933115-.125643-.3159672-.18884-.6771803-.18884-1.0836393v-4.0623279c0-.0640984.032351-.0965246.097053-.0965246h1.22558c.06395 0 .096301.0324262.096301.0965246v4.101541c0 .3936393.100063.6960328.300188.9086885.198621.2126558.465705.3197377.800502.3197377.328025 0 .591348-.1070819.791473-.3197377.198621-.2126557.298683-.5150492.298683-.9086885v-4.101541c0-.0640984.032351-.0965246.097054-.0965246h1.22558c.063949 0 .096301.0324262.096301.0965246v4.0623279c0 .406459-.062446.7676721-.188088 1.0836393-.125643.3159672-.298684.5799017-.520627.7933115-.221944.2126557-.486771.3740328-.791474.483377-.306206.1100984-.642507.1643935-1.008902.1643935M212.85121 63.584177c-.06395 0-.096301-.0324262-.096301-.0965245v-5.1565246c0-.038459-.018809-.0573115-.057931-.0573115h-1.659686c-.064703 0-.097054-.0324262-.097054-.0972787v-1.0738361c0-.0640983.032351-.0965246.097054-.0965246h4.854169c.06395 0 .096301.0324263.096301.0965246v1.0738361c0 .0648525-.032351.0972787-.096301.0972787h-1.659687c-.039122 0-.057931.0188525-.057931.0573115v5.1565246c0 .0640983-.032351.0965245-.097053.0965245h-1.22558zM217.734871 57.1029279c0-.0640984.032352-.0965246.096301-.0965246h1.22558c.064703 0 .097054.0324262.097054.0965246v2.4666557c0 .038459.018808.0588197.057931.0588197h2.142696c.037617 0 .057931-.0203607.057931-.0588197v-2.4666557c0-.0640984.031598-.0965246.096301-.0965246h1.22558c.063949 0 .095548.0324262.095548.0965246v6.3849508c0 .0640983-.031599.0965246-.095548.0965246h-1.22558c-.064703 0-.096301-.0324263-.096301-.0965246V60.9526c0-.0377049-.020314-.0580656-.057931-.0580656h-2.142696c-.039123 0-.057931.0203607-.057931.0580656v2.5352787c0 .0640983-.032351.0965246-.097054.0965246h-1.22558c-.063949 0-.096301-.0324263-.096301-.0965246v-6.3849508zM227.444188 62.4331967c.269342 0 .492038-.0648524.665831-.1938033.173041-.1289508.295674-.3061639.366395-.5316393.018809-.0580656.03536-.1244262.048903-.199082.012037-.0731475.024075-.1636393.033103-.2699672.009781-.1070819.016552-.2367869.019561-.3921311.00301-.1553443.005267-.3385902.005267-.5512459 0-.2126558-.002257-.3966558-.005267-.5512459-.003009-.1545902-.00978-.2850492-.019561-.3921312-.009028-.1063278-.021066-.1968197-.033103-.2707213-.013543-.0739016-.030094-.1402623-.048903-.1983279-.070721-.2254754-.193354-.4026885-.366395-.5316393-.173793-.1289508-.396489-.1938033-.665831-.1938033-.270094 0-.492038.0648525-.666583.1938033-.173041.1289508-.295674.3061639-.366395.5316393-.018809.0580656-.03536.1244263-.04815.1983279-.01279.0739016-.024076.1643935-.033856.2707213-.009781.107082-.016552.237541-.019561.3921312-.00301.1545901-.004514.3385901-.004514.5512459 0 .2126557.001504.3959016.004514.5512459.003009.1553442.00978.2850492.019561.3921311.00978.1063279.021066.1968197.033856.2699672.01279.0746558.029341.1410164.04815.199082.070721.2254754.193354.4026885.366395.5316393.174545.1289509.396489.1938033.666583.1938033m0 1.257082c-.573291 0-1.073605-.1319672-1.50094-.3959017-.427336-.2646885-.725267-.6643606-.893041-1.1997704-.03837-.1168853-.068464-.2292459-.091787-.3385902-.02257-.1093443-.039875-.2322623-.052665-.368-.013542-.1349836-.02257-.2903279-.028589-.4637705-.006771-.1741967-.010533-.3838361-.010533-.628918 0-.245082.003762-.4547213.010533-.6289181.006019-.1734426.015047-.3287868.028589-.4637705.01279-.1357377.030095-.2586557.052665-.368.023323-.1093442.053417-.222459.091787-.3385901.167774-.528623.465705-.9267869.893041-1.1952459.427335-.2669508.927649-.4011803 1.50094-.4011803.572539 0 1.072853.1342295 1.500188.4011803.428088.268459.725267.6666229.893041 1.1952459.03837.1161311.068464.2292459.091787.3385901.02257.1093443.039874.2322623.052664.368.013543.1349837.022571.2903279.029342.4637705.006019.1741968.009781.3838361.009781.6289181 0 .2450819-.003762.4547213-.009781.628918-.006771.1734426-.015799.3287869-.029342.4637705-.01279.1357377-.030094.2586557-.052664.368-.023323.1093443-.053417.2217049-.091787.3385902-.167774.5354098-.464953.9350819-.893041 1.1997704-.427335.2639345-.927649.3959017-1.500188.3959017M234.691436 59.8697148c.270094 0 .486019-.0746558.646269-.2224591.161003-.1485573.241505-.3483934.241505-.6002623 0-.2443278-.080502-.4411475-.241505-.5897049-.16025-.1478033-.376175-.222459-.646269-.222459h-1.157869c-.039122 0-.057931.0188525-.057931.0580656v1.5187541c0 .0392131.018809.0580656.057931.0580656h1.157869zm.993856 3.7146885c-.070721 0-.118872-.0324263-.144452-.0965246l-1.129279-2.4085902h-.877994c-.039122 0-.057931.0188525-.057931.0580656v2.3505246c0 .0640983-.032351.0965246-.097053.0965246h-1.22558c-.06395 0-.096301-.0324263-.096301-.0965246v-6.3849508c0-.0640984.032351-.0965246.096301-.0965246h2.615925c.334044 0 .637994.0505246.911097.1493115.273856.100295.508589.2413114.704953.4215409.196364.1802295.347586.3959017.453668.6477705.106081.2511148.158746.5263607.158746.8219672 0 .4260656-.10232.797082-.308464 1.1130492-.205392.3159672-.492038.5542623-.858433.7156394l1.292539 2.591836c.01279.0324263.01279.0603279 0 .0829509-.012789.0226229-.034608.0339344-.066959.0339344h-1.370783zM239.034382 57.1029279c0-.0640984.032352-.0965246.096301-.0965246h1.22558c.064703 0 .097054.0324262.097054.0965246v6.3849508c0 .0640983-.032351.0965246-.097054.0965246h-1.22558c-.063949 0-.096301-.0324263-.096301-.0965246v-6.3849508zM244.110495 63.584177c-.06395 0-.096301-.0324262-.096301-.0965245v-5.1565246c0-.038459-.018808-.0573115-.057931-.0573115h-1.659686c-.064702 0-.097053-.0324262-.097053-.0972787v-1.0738361c0-.0640983.032351-.0965246.097053-.0965246h4.854169c.06395 0 .096301.0324263.096301.0965246v1.0738361c0 .0648525-.032351.0972787-.096301.0972787h-1.659686c-.039123 0-.057931.0188525-.057931.0573115v5.1565246c0 .0640983-.032352.0965245-.097054.0965245h-1.22558zM250.490056 63.584177c-.064702 0-.097053-.0324262-.097053-.0965245V60.962177l-1.939561-3.8594754c-.02558-.0640983-.003009-.0965246.067712-.0965246h1.254921c.070721 0 .118872.0324263.144452.0965246l1.18721 2.399541h.028589l1.187962-2.399541c.02558-.0640983.072978-.0965246.144452-.0965246h1.215799c.031599 0 .054169.0098033.067712.0286558.01279.0196065.01279.0422295 0 .0678688l-1.940314 3.8594754v2.5254755c0 .0640983-.031598.0965245-.096301.0965245h-1.22558z" fill="#404042"/>
    <g>
      <g transform="translate(287 22)">
        <mask id="f" fill="#fff">
          <use xlink:href="#e"/>
        </mask>
        <path d="M19.2054887 9.8633354c0 .8379184.0036205 1.7010723-.0010345 2.5642262-.0046549.8446135.0237921 1.6902571-.0274126 2.5436258 2.4490332 0 4.9084107.000515 7.367271-.000515.4468775 0 .8994443.0437757 1.3664933-.2085783.5679067-.4099466.7732428-1.0356817.7432441-1.7695685-.0144822-.3491756 0-.6993812-.0015517-1.0495868-.0025861-.4861678-.0098272-.9656405-.1158571-1.4507783-.1215465-.557754-.3998105-1.0315616-.7861733-1.3915524-.5353219-.499043-1.2501189-.7359468-1.972157-.8034129-1.1404684-.1060917-2.2980051-.059741-3.3939927.2703794-1.085126.3275452-2.1930096.6386102-3.1788295 1.2957608M2.1796654 11.3135987c.3118832.1601675.5787683.2945847.8430673.4341519.264299.1405973.5254948.2873747.8141031.4449672-.207922.4089166-.3972243.8059879-.6077326 1.1912141-.6118703 1.1242631-.802207 2.3401976-.6434207 3.5798225.1644757 1.2792806.910823 2.1589147 2.1645626 2.5817365.9904748.3337253 2.0026729.3687459 2.9946994.0988816.5539418-.1503825 1.110987-.4006765 1.4968325-.8765441.3589502-.4413621.5916988-.9254699.68635-1.5084592.0693074-.4264269.0972372-.8440986.0972372-1.2684654.0036205-5.0651064.0010344-10.1307277.0067238-15.196349 0-.2111534-.1024094-.4614475.1562003-.6267651.5435974 0 1.097022-.00309 1.6504466.00515.0460325.00103.0905134.0767363.1489591.1302972v13.3819749c.0325848.066436.0641352.1174218.0837896.1730427.3005043.8322534.9951298 1.0696722 1.7756136 1.1041778.8663423.0381106 1.7363051.0087551 2.5907513.0087551.3977416-.1050617.6475585-.3502056.7908282-.7735424V6.968989c.1753373-.0494409.3605018-.1452324.5446319-.1442024.4618768.002575.9346152-.0736462 1.4358006.0705561v1.0408317c.3920522-.1503824.7344514-.254414 1.0515068-.4089165.7411751-.3615358 1.5309689-.5757793 2.3202455-.7848726.3863628-.1024867.794966-.121542 1.1932248-.179738.2580924-.0375955.514116-.0942464.77376-.1133017.2674024-.0195704.5389425-.0236904.8058276-.00103.9811649.0844613 1.976812.1828279 2.8540159.6478804 1.1073664.5871094 1.9369861 1.4605634 2.2850746 2.7027634.1406836.500588.2730918 1.0058111.2637818 1.5372996-.0031033.2147585.1153399.433637.1018922.6463354-.0568941.9419501-.0625835 1.8967755-.3677429 2.801645-.214646.6370652-.5410113 1.2231447-1.181846 1.5434798-.2834361.1411123-.58032.2770744-.8865138.3455705-.3718806.0834314-.7608295.1272071-1.1435717.1282371-2.729366.0103002-5.4592492.0036051-8.1891324.0082401-.3982589.000515-.7566918-.0854913-1.0540929-.3306353-.5177364.1745878-1.0339212.3306353-1.5857942.3290903-.6408346-.001545-1.2832209-.0211153-1.9230212.0066951-.9118575.0386256-1.7476838-.1514124-2.510065-.750882-.0449981.4933779-.0455153.934225-.1148227 1.3755871-.1153399.7302817-.3641223 1.3920673-.7463473 2.0064722-.6692818 1.0743072-1.7073408 1.6408163-2.8984967 1.9261309-.7246242.1740728-1.4704544.31055-2.2255945.251839-.9009959-.0705561-1.8144051-.1493524-2.6466109-.5175833C2.006397 20.4956811 1.0624718 19.49399.7035216 17.9814108c-.1458558-.6149199-.2627474-1.2210847-.2301625-1.8504248.0579285-1.1072677.3237792-2.1702448.7530712-3.1889312.1639585-.3872862.382225-.7529421.58963-1.120658.0951683-.1684077.2255075-.3172451.363605-.5077981" fill="#FAB717" mask="url(#f)"/>
      </g>
      <path d="M303.4408236 70.9994925h-1.7544068c-.0731003-.1152114-.1933787-.2370207-.2364094-.3806542-.2332988-.7892228-.4427492-1.5855513-.6703451-2.3768043-.200637-.6968508-.4168272-1.3886263-.618501-2.084462-.2955118-1.0160928-.5801363-2.0352307-.875648-3.0508159-.2078952-.7146147-.4282329-1.4251691-.6376833-2.1397838-.2872168-.9770122-.5645831-1.9570697-.8554289-2.9335744-.0772478-.2613825-.186639-.5136293-.315731-.8633236-.1228707.3877597-.226559.6801021-.3084728.9790424-.3292105 1.2094651-.693675 2.4108095-1.0114798 3.6238273-.26285 1.0039118-.5925789 1.9900598-.88498 2.9863585-.369649 1.2597114-.7273737 2.522468-1.0965042 3.7816719-.1985632.6765492-.4033477 1.3515759-.6216116 2.0230497-.0523626.1613974-.169012.3024932-.2462598.4359759h-1.720708c-.124426-.4156743-.26285-.8420069-.378981-1.27443-.2037476-.7567404-.4313435-1.509928-.5811731-2.2778343-.2141164-1.0993291-.5360687-2.1712511-.795808-3.2594144-.2872168-1.2013444-.5930974-2.3986285-.898978-3.5948975-.3162494-1.2343345-.64546-2.4641011-.9622278-3.697928-.267516-1.0445149-.524663-2.0915675-.7880314-3.1370975-.0523626-.2050457-.1140572-.4070461-.1814546-.6460969.106799-.0365428.2151533-.1030304.325063-.1055681.5593986-.0111659 1.1187972-.0050754 1.6932306-.0050754.0850244.0791761.1747148.1624124.2633684.2456488 1.0944304 4.4577136 2.187824 8.9118744 3.281736 13.3665427.0430307.0258845.0865798.0522765.1296104.078161.0295512-.0725781.066879-.1436335.0876167-.2182417.3058806-1.1150628.604503-2.2321558.9160865-3.345696.2478151-.8871779.5122204-1.7692804.7667753-2.6544281.2426307-.8470823.4805955-1.6956872.7227077-2.5432771.1778256-.6222426.3592801-1.2429626.5365872-1.8646977.2369279-.8288109.4691898-1.6586369.7092283-2.4864327.0549548-.1867743.1363501-.366443.2068582-.5532173h1.5957636c.3121019.1101359.3447637.4364834.4028292.6826397.1804177.7643535.4375648 1.5063752.6444231 2.2631156.2830691 1.038932.5770256 2.0763414.8751296 3.1117206.2058213.7156298.4313435 1.4251691.6407939 2.1392762.2866983.9780273.5604355 1.9596075.8507629 2.9356046.2452229.8247506.5054807 1.6454409.8020293 2.607227.1363502-.4303929.2680344-.7166448.3121019-1.0155852.0979855-.6633532.3084728-1.2987919.4619316-1.9484416.1944156-.8211978.3597985-1.6489936.5505851-2.4712066.2078951-.8978361.427196-1.7931346.6480521-2.6884332.1923419-.7800871.4023108-1.5556065.5879129-2.3367087.218264-.9166152.4137165-1.8377982.6324989-2.7544133.0440676-.1857592.1462006-.3583224.2198193-.5324082h2.0099985c.0114057.0126884.0788032.0842514.1264998.1355128-.7600356 3.018841-1.4982965 5.9864206-2.2552214 8.9494323-.7558881 2.9589514-1.53044 5.9128274-2.303955 8.8961407M315.9613318 65.5025861c-.1277903-.2377897-.2851479-.2367947-.4505236-.2353023-.5407285.0039797-1.0809559-.0054722-1.6211833.0029848-.7512067.0129341-1.5054203-.0582038-2.2496111.1193923-.6574938.1576973-1.2242815.4332945-1.4528007 1.114328-.2500682.7437145-.2049657 1.4540986.3623232 2.067974.4109336.4442388.9571747.5830324 1.5249647.6457133.336264.0368126.6805462-.0044772 1.019817.0109443.6494756.0303455 1.2468328-.1437682 1.7780397-.4900059.4099313-.2666427.8083365-.5800475.9225961-1.0964192.0746696-.3377807.1974486-.6661095.1723917-1.0272712-.0260593-.3755882-.0060137-.7541613-.0060137-1.1123381m2.0351238 5.0965584c-.0781777.0661633-.122779.1368037-.1683826.1373012-.5592707.0114417-1.1180402.014924-1.6768097.0104468-.047107-.0004975-.0937129-.0686506-.1889292-.1432708v-1.1715368c-.3187242.2760946-.571298.5293058-.8579493.7362524-.6113891.4417515-1.290933.682526-2.0596795.7382424-.3272435.0238784-.6589973.1129252-.9922544.0895442-1.0639172-.0741227-2.0822308-.3193744-2.9251459-1.0038902-.4610475-.3745933-.7983138-.8979295-.9521633-1.4531037-.2816399-1.0138395-.231526-2.0386234.2079725-3.0260971.2019588-.4536907.5507513-.7889841.9256029-1.0630889.4820954-.3522072 1.0383592-.5909918 1.6402266-.7233183 1.471844-.3248465 2.961729-.2054542 4.4466026-.2283377.1202733-.0019899.2405465-.0004975.3953984-.0004975.0380865-.046762.1307971-.1069556.1323006-.1696366.0120273-.4512033.0385876-.905889-.0030069-1.3536101-.0496127-.525326-.2420499-1.013342-.6665143-1.4625555-.2926649-.1368037-.6304323-.379568-1.0579035-.4074262-.1533484-.0094519-.30369-.0761126-.4565373-.0800924-.4399996-.0119392-.8815027-.0094519-1.3225047-.0054721-.9015483.0079595-1.7254201.2656478-2.470112.7725676-.0952164.0646708-.2044646.1099404-.3558084.1900327-.2851479-.4770717-.5723003-.9571282-.856947-1.4346973.3933938-.5999463 1.0143045-.8272891 1.6116617-1.0581142.5597718-.2154036 1.1435982-.3447453 1.7584952-.3949895.4500225-.0368126.9055575-.1308341 1.3515708-.0781025.9225961.1104379 1.8567184.1323265 2.7276973.5641286.8774936.4352844 1.349065 1.1118407 1.5881081 2.0261867.1498405.5720881.2305238 1.138704.2285192 1.7287009-.0090205 2.7455252-.0035079 5.4915479-.0035079 8.2644339M327.8750255 35.8554278v-.3656298c-.0005551-1.0219613-.0066606-2.0434484.0011101-3.0654097.0038853-.4685373-.1204451-.9195281-.2869591-1.3534467-.1931563-.5041044-.5622623-.9195281-1.1389557-1.168972-.6993588-.3020833-1.440346-.2594028-2.1702324-.143217-.7409872.1180829-1.1889098.582352-1.559681 1.1016317-.428496.5994242-.4806704 1.2870548-.5783586 1.9585617-.05939.4073618.0521744.8123525.1132295 1.2187659.0999084.6563316.4573585 1.1433637 1.1173089 1.4795914.4568034.2333201.9385839.3537741 1.4808644.3438153.9907583-.0189692 1.9826266-.0056908 3.0216739-.0056908m-.0011101 1.6901486c-.9186022 0-1.761163.0142269-2.6015036-.004268-.5877944-.0132784-1.1944603-.0009485-1.7567226-.1214024-1.6940023-.3623102-2.7763432-1.0195902-3.2448026-2.6096767-.2214636-.7507029-.3247023-1.5085192-.2431104-2.2696552.1032387-.9522498.3119362-1.8883759.9591206-2.7116357.618877-.7876927 1.4397909-1.3359002 2.5038153-1.595303.6027807-.1470106 1.2233228-.2688872 1.8555209-.2243098.9507949.0673404 1.9010347.216248 2.689201.6909502.6993587.4215887 1.2777173.97359 1.5535755 1.6977362.2486609.6515893.4185051 1.3112405.4107345 2.0093041-.0216468 2.0647887.0222018 4.1305258-.0194267 6.1957888-.0233119 1.1718173-.560042 2.1629538-1.7733739 2.8050586-.4962117.2627223-1.0551437.3864958-1.630727.4713826-1.4475617.2124541-2.9045591.0441032-4.4126208.1204539-.0516193-.1161859-.1404268-.2276294-.1459772-.3423926-.0177615-.3969288-.0066606-.7938577-.0066606-1.1642297.1054589-.1925366.2747481-.19965.4617988-.1991758 1.1089832.0033196 2.2179664 0 3.3263945 0 .3735464.0004742.7293312-.0720827 1.0529234-.2219387.7237808-.3352792.9596757-.917157 1.0168455-1.5687462.0266422-.2987637.0049954-.6008469.0049954-.9579406M330.5457518 58.538715a9340.386851 9340.386851 0 0 0-1.1952884 1.4061251c-.5661611-.2415701-1.0869653-.4708403-1.6152401-.6873187-.8436388-.3463653-1.7363698-.381297-2.6445755-.3650611-.4098132.0068879-.7769375.1087311-1.1424609.250918-.4050107.1569468-.6936941.4250847-.8729874.7940819-.0421553.0870833-.0837769.1746586-.1318019.2745339v.8068737c.0176092.0403437.0357519.0747834.0485586.1106991.2620029.7576742.9514282.9411888 1.6830087 1.0976435.3938048.0841314.7950802.0624836 1.1803473.1284111.3959393.0678954.794013.0551035 1.1830153.1111911.8964663.130379 1.7785251.2868338 2.5565297.7985098.7150386.4703484 1.0613521 1.1173234 1.2790653 1.8494137.0875122.2922457.1414069.6090913.1221969.9101929-.0586972.8934651-.3367085 1.7372386-.9567643 2.4378412-.4386282.4969161-1.0005204.8683732-1.6803407 1.0730436-.5720308.1721987-1.1429945.3035617-1.747042.3744091-.4396954.0521516-.8788571.1151272-1.3116155.0792114-1.6755382-.1377589-3.262497-.5215159-4.6034611-1.5271561-.1776924-.133823-.3660571-.2563301-.5432159-.390153-.0618988-.0472317-.1051213-.1136511-.1536799-.1677707.5752325-.6819067 1.1333895-1.165539 1.5458707-1.3303577.7187739.5702236 1.5517405.9736604 2.4839587 1.2221185.4450314.1190631.8788571.2287782 1.345233.2130344.3190993-.010332.6397994-.006396.9588987-.000984.6504717.0108239 1.2193009-.2135264 1.734769-.5456238.6115181-.3940889.7849416-1.3431496.577367-1.8331778-.0368192-.0880673-.0538947-.1840066-.0885794-.3045456-.0805753-.0782274-.1926336-.1717067-.2844146-.2784699-.3532504-.4127848-.8820588-.4767443-1.380985-.5884274-.3009565-.0669115-.6136525-.0949553-.9236804-.1205391-.2902843-.0236158-.5746989-.0457556-.8655169-.0964312-.3836662-.0674035-.7854752-.0614996-1.1782128-.136775-.8932646-.1717067-1.7198278-.4624764-2.3478879-1.0976435-.4898547-.4949482-.7865424-1.0794396-.8020171-1.7642983-.0058697-.2947057.0016008-.5899035-.0016008-.8851012-.009605-.774402.3415109-1.4016971.8809915-1.9763487.6478036-.6902706 1.5047827-1.0464759 2.4225934-1.2098186.6702153-.1190631 1.374048-.2258262 2.0720111-.1397269 1.1280534.1392349 2.2449009.3335734 3.2614297.8368855.3793973.1874506.7278452.4275447 1.1355239.6705908" fill="#FAB717"/>
      <g transform="translate(332 53)">
        <mask id="h" fill="#fff">
          <use xlink:href="#g"/>
        </mask>
        <path d="M3.262763 16.6609026c.3678656.0636473.8072605-.1052233 1.1901849.1134359.1150924 1.0209226.0822857 1.6096598-.119395 1.9607463-.8040336.0128321-1.6107563.0189915-2.420168-.2176326-.9594622-.2807666-1.4187563-.9121063-1.6736807-1.7790436-.1005714-.3408208-.1177815-.6734291-.1177815-1.0152765C.1197714 10.7396542.1197714 5.7566895.1197714.7732116c0-.0605676.005916-.1211351.011832-.241757.1118655-.0369564.2409411-.1144624.372168-.117542C1.0819227.4000537 1.6606118.407753 2.2860908.407753c.0075294.2314913.0215126.4501504.0215126.6688095.0016134 4.5733638-.0021513 9.1462142.0064537 13.7195779.0005379.3782906.0462521.7642805.1333782 1.1338452.0833613.3515998.3458151.5948966.8153277.7309169" fill="#FAB717" mask="url(#h)"/>
      </g>
    </g>
    <path d="M270.5 24.5v52.2398315" stroke="#ACACAC" stroke-width=".5" stroke-linecap="square"/>
  </g>
</svg>
